if (_typeface_js && _typeface_js.loadFace) _typeface_js.loadFace({"glyphs":{"S":{"x_min":0,"x_max":1212.65625,"ha":1245,"o":"m 927 1310 q 1039 1215 1009 1310 l 1044 1180 q 1039 1142 1041 1145 q 1147 1058 1108 1120 q 1171 960 1171 1007 l 1171 930 q 1169 906 1171 921 q 1180 873 1180 887 l 1180 851 l 1177 838 q 1212 789 1212 792 l 1212 754 q 992 629 1212 713 q 876 556 921 594 l 876 553 q 819 374 876 470 l 822 374 q 884 317 868 349 q 903 284 897 317 l 903 282 q 887 246 903 265 q 1009 238 887 242 q 1115 119 1115 203 q 960 0 1115 32 l 903 0 q 675 81 816 0 q 623 146 626 124 q 415 86 508 86 q 195 187 262 86 q 187 225 187 210 q 192 255 187 231 l 179 255 q 5 290 50 255 q 0 306 0 299 q 75 339 0 339 l 84 339 l 84 333 l 78 333 q 10 309 26 333 l 10 301 q 146 268 38 268 l 203 268 q 336 333 248 333 l 344 333 q 401 328 367 333 l 401 341 q 455 387 401 368 q 472 406 455 406 q 626 523 564 436 q 659 583 657 565 l 656 583 q 496 545 594 583 l 496 531 q 561 488 550 531 l 561 474 q 488 428 544 428 l 466 428 q 412 444 440 428 q 311 428 379 428 q 295 425 311 425 l 276 425 q 168 349 200 349 q 146 341 168 344 q 105 401 105 350 l 105 412 l 108 444 q 65 425 84 425 l 56 425 q 29 458 35 425 q 141 569 29 522 q 293 591 201 591 l 330 591 q 412 613 347 606 q 642 667 570 667 q 618 724 638 695 q 596 835 596 768 l 596 859 l 599 865 q 534 846 562 846 q 428 979 449 846 l 428 1017 q 534 1152 428 1117 l 553 1152 q 648 1074 619 1152 q 656 1020 653 1048 q 653 1009 653 1015 l 653 984 l 651 979 l 653 979 q 800 1060 727 1060 q 819 1079 813 1065 q 830 1085 826 1085 q 813 1163 813 1127 l 813 1177 q 900 1307 813 1266 l 927 1310 m 857 1047 q 900 1011 857 1022 q 995 1066 940 1011 l 995 1060 q 992 1047 992 1057 q 1001 1044 998 1044 q 1014 1068 1014 1065 l 1020 1068 l 968 957 q 963 927 963 943 q 984 897 963 908 q 1074 979 1015 950 q 1006 914 1074 975 q 992 881 992 899 l 992 876 q 1033 832 992 849 l 1041 832 l 1041 835 l 1025 838 l 1025 841 q 1090 854 1056 841 l 1090 851 q 1055 835 1090 843 l 1055 832 q 1090 827 1079 827 l 1098 827 q 1161 925 1146 827 q 1163 949 1161 939 q 1006 1144 1163 1096 q 979 1155 993 1155 q 914 1098 956 1155 q 857 1047 872 1071 m 800 987 q 748 1017 774 1017 l 743 1017 q 678 925 696 1017 q 672 876 672 911 l 672 849 q 691 754 672 795 q 648 686 648 719 q 756 607 648 638 q 781 604 767 604 l 781 610 l 786 610 q 808 591 786 595 q 878 623 834 592 l 881 623 l 878 618 l 878 615 q 1006 713 971 648 q 1011 743 1011 741 q 963 800 1011 779 q 965 803 963 803 q 906 1001 965 935 q 854 1030 854 1013 q 846 1052 853 1030 q 803 987 830 1052 l 800 987 m 982 1041 q 949 1017 969 1026 q 971 995 949 1013 l 995 1039 l 982 1041 m 843 963 l 854 963 q 887 884 887 938 l 887 857 q 878 808 887 837 q 908 797 908 804 l 876 800 l 868 800 q 762 762 819 800 l 762 765 q 784 784 774 784 q 754 865 754 819 l 754 889 q 781 938 754 933 q 822 832 810 938 l 822 808 l 819 803 l 822 803 l 841 805 q 824 889 824 851 l 824 908 q 843 963 824 952 m 832 903 l 832 859 l 835 859 q 838 884 835 874 l 846 884 q 859 854 855 884 l 859 841 l 857 827 l 849 827 l 841 832 l 841 830 q 854 808 850 808 l 868 808 q 878 865 876 808 l 878 868 q 849 957 878 935 q 832 903 832 944 m 762 884 l 762 870 q 792 789 762 821 q 813 816 813 794 l 813 830 l 811 830 q 803 816 811 816 l 800 816 q 789 841 789 819 l 789 857 q 797 873 791 873 l 803 873 q 808 862 808 873 l 811 862 l 811 868 q 781 930 797 921 q 762 884 762 921 m 1163 887 q 1106 819 1163 847 l 1079 819 q 1049 827 1068 819 l 1049 824 q 1087 794 1049 798 l 1104 794 q 1171 857 1171 808 l 1171 859 l 1169 887 l 1163 887 m 811 859 l 811 849 l 813 849 l 813 859 l 811 859 m 1028 824 l 1028 800 q 1020 759 1028 781 q 1022 748 1022 754 l 1022 740 l 1025 740 q 1085 775 1060 756 q 1055 794 1085 785 q 1039 822 1044 806 q 1028 824 1034 824 m 865 792 q 911 756 911 787 q 824 699 911 709 l 816 699 q 775 729 775 704 l 775 740 q 862 792 775 777 l 865 792 m 1096 756 l 1096 754 l 1101 751 l 1101 754 l 1096 756 m 849 637 l 854 629 q 824 607 843 607 l 811 607 l 811 618 q 849 637 811 630 m 349 591 l 349 588 q 455 534 455 560 l 461 531 l 488 531 q 398 599 488 583 l 390 599 q 349 591 379 599 m 870 594 l 870 575 l 873 575 l 873 594 l 870 594 m 670 585 l 670 583 l 691 583 l 691 585 l 670 585 m 244 558 l 244 561 q 274 577 259 577 l 274 580 l 263 580 q 51 491 124 580 q 40 453 40 464 q 51 436 46 436 l 62 436 q 132 501 109 436 q 181 542 167 542 q 116 404 116 482 q 138 352 116 365 l 160 352 l 160 355 q 141 387 141 375 l 141 404 q 241 526 141 488 l 257 529 l 260 529 l 260 526 q 184 482 229 524 q 149 393 149 438 q 173 363 151 363 q 284 447 194 363 q 317 461 309 461 l 287 434 l 298 434 l 311 436 l 311 439 q 303 444 303 439 q 344 439 337 439 q 401 450 358 439 l 401 453 q 393 469 393 463 q 463 439 430 439 l 480 439 q 553 485 553 448 q 447 523 553 523 q 431 531 446 529 l 431 537 l 450 534 q 371 572 407 572 q 298 556 356 572 q 352 577 298 567 l 352 580 q 322 583 346 580 q 244 558 302 583 m 659 558 q 477 396 612 451 l 466 396 l 466 393 q 548 311 466 354 q 594 301 573 301 l 602 301 q 623 309 622 301 q 567 322 616 309 l 567 325 l 572 325 q 642 317 615 317 l 672 317 q 729 325 701 317 q 697 311 729 316 l 697 306 l 702 306 l 702 303 l 691 303 q 651 306 685 303 q 680 287 666 287 q 838 336 714 287 q 854 344 854 339 q 808 366 817 366 q 794 352 808 362 l 792 352 q 865 531 857 449 l 862 531 q 770 499 816 499 l 767 499 q 667 550 702 499 q 664 558 664 556 l 659 558 m 702 501 q 724 469 724 491 q 667 382 707 382 l 664 382 q 637 420 637 382 q 683 499 637 461 q 702 501 694 501 m 645 412 q 667 390 649 390 l 670 390 q 713 474 713 422 l 713 482 q 702 493 713 486 q 645 412 664 493 m 819 491 q 830 480 823 491 l 830 466 q 778 385 817 385 q 759 409 759 391 q 808 491 759 465 l 819 491 m 767 412 l 767 404 q 781 393 773 393 q 822 463 822 423 q 824 466 824 463 q 816 482 821 482 q 767 412 785 482 m 857 336 l 857 333 q 865 330 859 333 l 865 333 l 859 336 l 857 336 m 198 222 q 349 105 198 147 q 417 100 390 100 q 623 162 520 100 q 664 214 623 186 l 664 217 q 604 284 664 250 q 537 249 586 249 l 523 249 q 472 257 488 249 l 469 257 l 469 255 q 507 219 477 255 l 507 217 q 387 298 474 244 l 393 298 q 444 274 406 293 q 404 314 444 291 q 349 325 395 320 q 206 255 257 325 q 198 222 198 232 m 613 290 q 667 244 643 280 l 675 225 q 713 257 682 225 q 781 284 781 274 q 751 293 771 284 q 691 279 712 279 l 678 279 q 640 306 655 279 l 632 306 q 613 290 613 293 m 567 295 q 515 276 554 276 q 444 290 486 276 q 526 257 444 263 q 599 293 587 257 q 567 295 575 293 m 699 230 l 699 225 q 773 189 699 196 l 789 189 q 859 225 834 189 l 857 225 q 794 208 828 208 l 789 208 q 737 230 752 208 l 737 244 l 751 260 q 699 230 699 245 m 876 238 q 781 179 848 179 q 689 219 717 179 q 634 157 634 187 q 830 24 634 92 q 908 10 876 10 l 935 10 q 1096 92 1043 10 q 1104 122 1100 105 q 1003 227 1104 190 q 876 238 912 233 m 933 217 l 935 217 l 935 214 q 786 143 845 190 l 784 143 q 892 211 796 173 q 933 217 918 217 "},"¦":{"x_min":0,"x_max":0,"ha":688},"/":{"x_min":0,"x_max":0,"ha":386},"y":{"x_min":0,"x_max":2349.359375,"ha":2364,"o":"m 1226 1266 l 1323 1266 l 1323 927 q 1470 1085 1467 1085 q 1557 1033 1557 1037 l 1557 1030 q 1399 887 1551 1030 q 1578 718 1577 722 l 1578 716 q 1492 667 1573 716 l 1489 667 l 1323 843 l 1323 680 l 1226 680 l 1226 1266 m 694 1253 q 751 1199 751 1242 l 751 1182 q 702 1133 735 1133 l 686 1133 q 632 1196 640 1133 q 689 1253 646 1253 l 694 1253 m 97 1190 l 192 1190 l 290 832 l 293 832 l 393 1190 l 482 1190 q 520 1006 490 1190 q 583 686 526 990 l 480 670 q 436 1009 436 998 q 390 854 430 1009 q 339 680 385 843 l 244 680 q 151 1011 151 1007 l 149 1011 q 103 670 108 701 l 0 686 q 97 1190 8 720 m 1020 1085 q 1166 1011 1115 1085 l 1166 1009 l 1085 952 q 1017 984 1053 984 l 1009 984 q 933 887 950 984 l 933 873 q 1003 767 933 789 l 1025 767 q 1085 800 1053 767 q 1166 740 1158 749 l 1166 737 q 1022 667 1112 667 l 1017 667 q 838 816 888 667 q 832 868 832 849 l 832 884 q 908 1047 832 979 q 1020 1085 955 1085 m 1771 1085 q 1920 987 1875 1085 q 1928 957 1928 974 q 1717 822 1857 822 l 1698 822 q 1752 765 1698 788 l 1776 765 q 1852 794 1822 765 l 1855 794 q 1907 740 1859 794 l 1907 737 q 1768 667 1857 667 l 1760 667 q 1597 808 1648 667 q 1589 873 1589 843 l 1589 876 q 1717 1077 1589 1022 q 1771 1085 1736 1085 m 2059 1077 q 2154 824 2132 887 l 2156 824 q 2251 1079 2251 1074 l 2254 1079 l 2349 1055 l 2349 1047 q 2110 480 2335 1007 q 2023 507 2029 507 l 2102 708 l 1958 1052 q 2059 1079 2044 1079 l 2059 1077 m 642 1071 l 743 1071 l 743 680 l 642 680 l 642 1071 m 1692 900 l 1692 897 q 1825 963 1785 897 q 1768 987 1807 987 l 1766 987 q 1692 900 1711 987 m 203 523 l 298 523 l 396 162 l 398 162 l 496 523 l 588 523 q 607 434 594 523 q 689 18 621 377 q 585 8 636 8 q 542 339 542 320 l 537 339 q 444 13 537 335 l 349 13 q 257 341 257 335 l 255 341 l 208 5 l 206 5 q 105 18 187 5 l 203 523 m 897 417 q 1082 263 1032 417 q 1087 208 1087 223 q 973 16 1087 78 q 900 0 942 0 q 770 59 824 0 q 716 200 716 123 l 716 217 q 838 406 716 341 q 897 417 876 417 m 1711 417 q 1839 374 1772 417 l 1839 371 q 1782 295 1791 305 q 1719 317 1755 317 l 1711 317 q 1673 287 1685 317 q 1782 241 1673 269 q 1847 146 1847 210 l 1847 119 q 1749 5 1847 43 q 1711 0 1729 0 l 1709 0 q 1576 43 1620 0 q 1616 132 1612 117 l 1619 132 q 1695 100 1652 100 l 1711 100 q 1749 138 1749 109 q 1654 181 1749 155 q 1584 238 1603 200 q 1576 295 1576 267 l 1576 301 q 1676 412 1576 377 q 1711 417 1688 417 m 2078 417 q 2232 314 2189 417 l 2240 295 q 2026 154 2170 154 l 2007 154 q 2061 97 2007 121 l 2086 97 q 2162 127 2134 97 l 2164 127 q 2216 67 2216 83 q 2078 0 2162 0 l 2069 0 q 1907 143 1956 0 q 1899 211 1899 175 q 2010 404 1899 339 q 2078 417 2044 417 m 1158 404 l 1258 404 l 1258 157 q 1294 103 1261 103 l 1299 103 q 1378 168 1355 103 l 1378 404 l 1478 404 l 1478 184 q 1543 51 1478 103 q 1456 2 1469 6 q 1413 56 1413 50 q 1304 0 1349 4 l 1266 0 q 1169 70 1213 0 q 1158 124 1158 99 l 1158 404 m 2002 230 l 2004 230 q 2135 295 2095 230 q 2078 320 2120 320 l 2075 320 q 2002 230 2019 320 m 816 208 q 889 100 816 124 l 908 100 q 979 168 954 100 q 987 208 984 181 q 925 314 987 280 q 900 317 910 317 l 895 317 q 816 208 830 317 "},"≈":{"x_min":0,"x_max":0,"ha":688},"Á":{"x_min":0,"x_max":0,"ha":1044},"g":{"x_min":0,"x_max":1500.234375,"ha":1560,"o":"m 1215 1709 l 1234 1709 q 1475 1540 1382 1709 q 1500 1429 1500 1473 l 1500 1372 q 1407 1125 1500 1258 q 1250 1011 1313 1031 q 1239 1003 1239 1007 q 1375 634 1375 856 q 1342 450 1375 541 q 1372 363 1372 399 l 1372 336 q 1193 113 1372 223 q 998 48 1069 48 l 984 51 q 859 0 900 0 l 830 0 q 784 29 810 0 q 716 48 784 44 q 550 113 623 70 q 450 268 450 187 l 450 284 l 453 298 q 374 580 374 398 q 385 710 374 621 l 382 710 q 257 678 312 678 l 230 678 q 46 811 120 678 q 0 1020 0 904 l 0 1030 q 143 1345 0 1232 q 301 1399 218 1399 l 306 1399 q 531 1215 463 1399 q 545 1106 542 1158 q 523 957 545 1041 l 526 957 q 664 1071 607 1044 q 919 1144 781 1136 q 976 1193 952 1193 q 946 1345 946 1273 l 946 1386 q 1077 1657 946 1534 q 1215 1709 1140 1709 m 1009 1193 l 1009 1190 l 1014 1190 l 1014 1193 l 1009 1193 m 1020 1190 l 1020 1188 q 1125 1128 1063 1181 l 1125 1131 q 1022 1190 1076 1178 l 1020 1190 m 906 1120 q 889 1093 897 1110 l 889 1090 l 892 1090 q 908 1120 892 1094 l 906 1120 m 1133 1120 l 1133 1117 l 1142 1112 l 1142 1115 l 1133 1120 m 892 965 q 748 1049 814 1049 q 580 838 643 1049 q 553 629 553 731 q 583 428 553 536 l 583 425 q 472 274 472 350 q 699 73 472 158 q 781 54 734 59 l 781 73 l 784 73 q 846 21 798 21 q 1017 89 900 21 l 1017 86 q 998 62 1009 75 q 1315 260 1240 134 q 1345 352 1345 308 l 1345 363 q 1245 493 1345 442 q 1247 548 1247 530 l 1247 602 q 1125 1022 1247 826 q 1009 1115 1055 1115 q 892 965 956 1115 m 992 900 q 1074 727 1053 900 l 1074 705 q 1039 526 1074 622 q 1109 496 1087 517 l 1104 496 q 1009 512 1053 512 l 998 512 q 762 439 882 512 l 759 439 l 759 442 q 816 485 759 458 q 754 686 754 554 q 830 849 763 849 q 908 637 889 849 q 911 607 908 607 q 895 518 906 531 l 897 518 q 957 526 942 526 l 957 529 q 927 683 927 598 l 927 732 q 990 900 927 875 l 992 900 m 941 694 q 976 529 941 599 l 1025 529 q 1055 705 1055 623 q 995 887 1041 878 q 944 743 963 887 q 941 694 941 728 m 773 661 q 832 496 773 560 l 835 496 q 884 529 884 509 q 895 615 895 571 l 895 621 q 838 827 895 744 q 827 835 827 832 q 773 716 793 835 l 773 661 m 965 713 l 968 713 q 1003 640 999 713 l 1003 632 q 984 577 1003 588 l 973 577 q 949 648 949 596 l 949 670 q 965 713 949 705 m 859 694 l 868 694 q 889 623 884 694 q 865 561 889 574 l 862 561 q 835 626 835 561 q 859 694 841 694 m 973 485 l 1003 485 q 1106 409 1106 472 l 1106 401 q 971 284 1106 318 q 925 279 949 279 l 892 279 q 784 344 815 279 l 784 371 q 906 474 784 434 q 973 485 943 485 m 933 122 q 949 113 949 119 l 949 105 q 870 59 949 67 q 846 73 846 59 q 930 122 846 108 l 933 122 "},"²":{"x_min":0,"x_max":0,"ha":688},"–":{"x_min":0,"x_max":0,"ha":751},"ë":{"x_min":0,"x_max":0,"ha":617},"Î":{"x_min":0,"x_max":0,"ha":446},"e":{"x_min":0,"x_max":2128.9375,"ha":2175,"o":"m 1011 1698 l 1116 1698 q 1919 1361 1568 1698 q 2128 889 2128 1123 l 2128 808 q 1924 343 2128 577 q 1337 23 1745 129 q 1116 0 1209 0 l 1011 0 q 209 337 560 0 q 0 808 0 574 l 0 889 q 203 1355 0 1120 q 790 1675 383 1568 q 1011 1698 918 1698 m 203 843 q 564 267 203 502 q 1041 133 796 133 l 1087 133 q 1802 476 1509 133 q 1924 855 1924 667 q 1564 1431 1924 1195 q 1087 1564 1331 1564 l 1041 1564 q 325 1221 619 1564 q 203 843 203 1030 m 982 1343 l 1041 1343 q 1203 1239 1162 1343 q 1418 1343 1312 1343 l 1477 1343 q 1663 1122 1663 1343 l 1663 727 q 1517 610 1663 610 l 1361 610 l 1355 639 l 1355 1047 q 1291 1116 1351 1116 q 1221 1052 1221 1100 l 1221 622 q 1209 610 1221 610 l 930 610 q 918 622 918 610 l 918 1041 q 849 1116 918 1116 q 785 1070 807 1104 l 785 622 q 773 610 785 610 l 482 610 l 476 639 l 476 1140 q 587 1314 476 1314 q 628 1320 587 1320 l 767 1320 q 779 1308 779 1318 l 779 1250 q 982 1343 878 1343 m 488 569 l 494 569 l 593 494 q 686 569 639 541 l 691 569 l 704 366 l 634 366 l 628 436 q 575 406 598 406 q 546 436 575 415 l 546 366 l 482 366 l 482 482 q 488 569 482 512 m 930 569 l 953 569 q 1034 499 1034 562 q 971 482 995 482 q 953 499 971 491 l 930 499 q 907 459 907 491 q 948 430 915 430 q 971 453 971 436 q 1041 436 1028 436 q 948 360 1041 377 l 936 360 q 837 453 837 371 l 837 476 q 930 569 849 569 m 732 564 l 808 564 l 808 366 l 732 366 l 732 564 m 1064 564 l 1133 564 l 1133 505 l 1140 505 q 1180 564 1140 519 l 1256 564 l 1256 558 l 1198 482 l 1198 476 l 1262 377 l 1262 366 l 1174 366 q 1145 418 1159 418 l 1133 401 l 1133 366 l 1064 366 l 1064 564 m 1279 564 l 1436 564 l 1436 517 l 1348 517 l 1348 494 l 1431 494 l 1431 436 l 1348 436 l 1348 418 l 1436 418 l 1436 366 l 1279 366 l 1279 564 m 1442 564 l 1523 564 q 1553 505 1534 564 l 1564 505 l 1581 564 l 1663 564 q 1593 413 1593 430 l 1593 366 l 1523 366 l 1523 406 q 1442 564 1523 422 "},"Ã":{"x_min":0,"x_max":0,"ha":1044},"J":{"x_min":0,"x_max":1204.53125,"ha":1229,"o":"m 377 1383 q 482 1294 452 1383 l 488 1258 q 477 1196 485 1228 q 545 1228 519 1228 l 553 1228 q 596 1199 578 1228 l 613 1196 q 637 1207 627 1207 l 651 1207 q 680 1193 660 1207 l 680 1215 q 792 1337 680 1304 l 813 1337 q 922 1245 890 1337 q 925 1215 925 1226 l 925 1209 q 827 1079 925 1117 q 805 1077 817 1077 l 794 1077 l 767 1079 q 792 968 792 1029 q 773 878 792 929 q 670 762 773 816 l 670 759 q 835 661 775 680 q 873 678 852 678 l 887 678 q 1028 792 961 792 l 1039 792 q 1079 762 1073 792 l 1079 751 q 992 653 1079 724 l 992 651 l 1011 648 q 1152 710 1044 648 l 1177 716 q 1204 702 1195 716 l 1204 667 q 1123 588 1204 630 q 1060 572 1073 572 l 1060 569 q 1142 526 1072 545 q 1152 504 1152 514 q 1082 453 1152 460 l 1077 453 q 992 491 1028 453 l 990 491 q 927 477 965 477 q 881 493 902 478 q 846 491 880 493 l 827 493 q 775 477 809 481 q 789 431 789 440 q 737 387 772 412 q 705 274 705 290 q 727 249 723 249 q 857 257 838 257 q 1001 154 1001 244 l 1001 146 q 868 21 1001 60 q 784 13 822 13 q 542 81 652 13 q 423 8 519 37 q 371 0 388 0 l 287 0 q 119 78 201 0 q 94 149 94 118 l 94 168 q 198 268 94 244 q 151 431 170 307 q 127 512 151 455 q 181 333 149 512 q 219 268 199 286 l 238 268 q 387 246 263 268 q 434 274 394 262 l 482 377 q 472 398 476 377 q 504 564 504 486 q 491 667 499 649 q 255 594 385 594 q 203 596 211 596 q 168 588 183 588 q 105 610 139 588 q 24 713 24 631 q 32 759 27 748 q 0 832 0 780 l 0 841 q 65 908 14 908 q 116 938 87 938 l 124 938 q 162 922 141 938 q 230 1041 162 980 q 263 1049 255 1049 q 298 1022 292 1049 l 298 1006 q 255 876 298 998 q 238 727 238 826 q 260 697 246 724 q 322 689 298 689 q 453 754 372 689 l 458 762 q 336 900 336 824 q 339 933 336 918 q 336 979 336 954 l 336 984 q 385 1117 336 1058 q 349 1112 373 1112 l 347 1112 q 246 1182 274 1112 q 241 1223 241 1208 q 320 1370 241 1316 q 377 1383 341 1383 m 428 1014 q 436 971 428 1003 l 420 971 q 347 916 360 971 l 347 903 q 461 773 347 831 l 461 775 q 458 784 458 781 q 545 724 502 724 q 629 773 579 724 l 632 773 l 623 759 l 623 756 q 756 851 720 788 l 762 870 l 762 887 q 716 938 762 909 q 732 1020 727 967 q 672 1169 732 1098 q 645 1180 653 1180 q 596 1150 623 1180 q 548 1201 575 1201 q 447 1101 507 1201 q 428 1014 428 1046 m 564 1131 q 591 1066 588 1131 q 575 979 591 1041 l 596 979 q 594 987 594 984 q 632 1112 599 1112 l 637 1112 q 661 1052 661 1098 q 634 965 661 1008 q 651 949 649 959 l 648 949 q 583 968 618 968 l 564 968 q 518 960 551 968 q 537 971 524 971 l 537 973 q 520 1036 520 996 q 564 1131 528 1131 m 558 1123 q 529 1033 529 1086 q 548 976 535 980 l 550 976 l 548 990 q 561 1028 548 1020 l 567 1028 q 575 1017 575 1028 l 577 1017 q 583 1071 583 1044 q 558 1123 579 1123 m 602 1011 l 615 1020 q 626 1001 626 1018 q 618 971 626 986 l 626 971 q 651 1044 651 994 l 651 1068 q 634 1104 645 1104 l 632 1104 q 602 1014 615 1104 l 602 1011 m 168 876 l 168 870 q 203 827 168 848 q 227 759 227 800 q 217 724 225 724 l 219 737 l 219 748 q 173 835 219 814 q 119 876 132 876 l 108 876 q 89 849 89 864 l 89 846 q 154 756 89 782 l 154 754 l 138 754 l 132 756 l 132 754 q 141 746 137 754 l 135 746 l 119 756 q 105 705 105 727 l 105 691 q 138 642 105 659 l 138 640 l 130 640 q 94 705 94 659 q 116 762 94 733 l 116 765 l 113 765 l 86 767 q 51 751 73 751 q 40 754 46 754 q 35 713 35 724 q 108 618 35 646 q 141 615 116 615 q 130 610 141 610 l 130 607 q 162 602 149 602 l 168 602 q 252 678 236 602 l 252 680 q 236 713 243 712 l 233 713 q 184 629 233 672 q 168 623 175 623 q 219 697 219 666 q 233 843 229 697 l 287 1011 l 287 1028 q 265 1041 280 1041 q 184 960 223 1041 q 168 876 168 927 m 580 963 q 645 922 645 954 l 645 911 q 585 873 645 879 l 575 873 q 512 914 512 881 l 512 925 q 577 963 520 963 l 580 963 m 59 851 l 59 849 q 108 773 65 782 q 78 841 78 805 l 78 843 q 111 884 84 884 l 122 884 q 160 865 132 884 l 160 908 q 119 930 153 922 q 59 851 71 930 m 434 927 l 455 927 q 461 922 461 927 q 431 916 435 919 q 567 824 468 824 l 588 824 q 697 884 653 824 l 697 887 q 680 897 680 894 l 691 897 q 724 868 724 890 l 724 851 l 708 878 q 705 881 708 881 q 645 822 699 864 q 539 740 592 740 q 453 859 480 740 q 425 911 430 883 l 425 914 l 423 914 l 393 892 l 393 895 q 434 927 408 927 m 10 835 q 54 762 19 762 l 56 762 q 81 775 81 767 q 48 854 48 803 q 59 897 48 870 l 54 897 q 10 835 10 879 m 477 816 l 477 813 q 534 751 499 751 l 545 751 q 585 767 562 751 q 550 792 572 792 l 539 792 l 539 789 q 545 773 545 780 q 482 816 510 816 l 477 816 m 841 610 q 854 615 849 615 q 737 550 843 601 q 721 526 721 532 q 770 488 721 494 q 862 526 809 488 l 865 526 l 865 523 l 843 501 l 849 501 q 952 534 898 501 l 952 531 q 892 499 952 518 l 892 496 q 930 488 913 488 l 941 488 q 1006 504 963 488 q 1001 499 1006 499 q 1068 466 1023 466 l 1093 466 q 1142 501 1142 474 q 1098 529 1142 520 q 1052 569 1052 548 l 1033 569 l 1033 572 l 1131 604 q 1196 678 1196 647 l 1196 689 q 1180 705 1196 705 q 1039 640 1165 705 q 1014 637 1029 640 q 982 642 987 642 q 963 623 982 638 l 963 626 q 1052 724 967 648 q 1071 759 1068 742 q 1036 784 1071 779 q 900 678 972 784 l 841 610 m 694 727 l 694 724 l 705 716 l 705 718 l 694 727 m 705 713 l 705 710 l 710 708 l 710 710 l 705 713 m 512 599 l 515 575 q 480 398 515 469 q 545 363 498 363 q 642 404 642 378 q 670 461 661 452 l 670 458 l 667 444 l 670 444 q 718 472 714 472 q 661 431 702 452 l 645 382 l 664 382 q 781 436 728 382 q 762 480 766 479 q 713 529 713 486 q 737 564 713 543 q 702 629 709 564 l 702 648 q 713 667 702 663 l 721 667 q 751 594 751 639 l 751 585 q 746 569 751 578 l 748 569 q 762 575 757 575 q 716 678 739 678 q 653 694 694 694 q 512 599 569 694 m 797 591 q 878 670 816 591 l 873 670 q 797 594 836 670 l 797 591 m 618 670 q 659 585 646 670 q 632 545 659 545 l 626 545 q 588 618 588 556 q 618 670 588 670 m 613 661 q 599 629 599 647 l 599 621 q 626 553 599 570 q 648 577 648 553 l 648 591 q 613 661 640 661 m 710 653 l 710 623 q 732 572 721 572 l 740 572 l 743 585 q 718 659 743 635 l 716 659 q 710 653 710 658 m 770 588 l 770 580 q 778 583 775 583 q 773 588 778 588 l 770 588 m 526 263 q 545 233 545 249 l 545 211 q 567 233 567 225 q 610 279 567 255 l 642 374 l 640 374 q 629 377 635 377 q 561 352 612 366 l 526 263 m 697 265 q 637 230 692 230 q 602 263 602 230 q 577 230 577 247 l 577 227 q 637 192 585 192 q 713 244 698 192 q 699 265 713 259 l 697 265 m 387 222 q 458 179 387 187 q 537 227 537 186 l 537 233 q 518 255 530 251 q 474 217 509 217 l 453 217 q 417 241 417 217 q 425 260 417 246 l 420 260 q 387 222 387 244 m 103 154 q 222 27 103 74 q 330 8 273 8 q 515 67 432 8 q 550 130 550 103 l 550 143 q 531 195 550 179 q 458 170 502 170 l 455 170 q 379 211 397 170 q 377 227 377 225 l 382 238 l 233 257 q 108 189 134 257 l 103 154 m 721 238 q 651 184 700 184 l 629 184 q 572 214 585 184 l 567 214 l 545 195 q 561 138 561 164 l 561 130 q 550 89 561 122 l 550 86 q 794 27 667 27 q 987 132 948 27 l 990 157 q 889 244 990 221 q 857 246 875 246 l 854 246 q 721 238 829 246 m 322 225 l 325 225 q 431 143 395 201 l 431 138 q 322 222 369 198 l 322 225 m 786 222 l 786 219 q 651 157 767 219 q 770 222 695 201 l 786 222 "},"»":{"x_min":0,"x_max":0,"ha":640},"∆":{"x_min":0,"x_max":0,"ha":733},"©":{"x_min":0,"x_max":0,"ha":1135},"˘":{"x_min":0,"x_max":0,"ha":695},"≥":{"x_min":0,"x_max":0,"ha":688},"ò":{"x_min":0,"x_max":0,"ha":685},"^":{"x_min":0,"x_max":0,"ha":688},"«":{"x_min":0,"x_max":0,"ha":640},"D":{"x_min":0,"x_max":1625.015625,"ha":1663,"o":"m 303 1587 l 320 1587 q 553 1432 465 1587 q 583 1285 583 1362 q 550 1125 583 1211 l 553 1125 q 737 1220 651 1220 q 841 1147 803 1220 q 887 1136 870 1142 q 957 1169 914 1169 l 960 1169 q 1049 1128 999 1169 l 1049 1131 q 1047 1169 1049 1135 q 1239 1454 1047 1360 q 1340 1475 1297 1475 l 1370 1475 q 1608 1296 1525 1475 q 1625 1218 1625 1241 l 1625 1144 q 1543 957 1625 1062 q 1334 857 1445 857 q 1247 873 1295 857 q 1310 613 1310 745 l 1310 596 q 1264 390 1310 497 q 1025 116 1264 250 q 889 75 972 89 q 748 0 800 4 l 689 0 q 539 103 630 0 q 466 135 537 110 q 225 453 225 279 q 236 520 225 464 q 225 610 225 566 l 225 621 q 349 957 225 819 l 347 957 q 257 944 297 944 l 246 944 q 10 1128 69 944 q 0 1207 2 1163 q 84 1462 0 1330 q 303 1587 180 1587 m 444 710 q 466 607 444 662 l 423 607 q 255 501 301 607 q 246 450 246 463 q 453 168 246 301 q 526 130 485 147 l 526 132 q 512 165 512 158 l 512 168 l 515 168 q 718 16 612 16 q 927 135 809 16 l 930 135 l 930 132 q 906 94 925 122 l 908 94 q 1115 192 975 101 q 1245 387 1245 298 q 1131 526 1245 468 l 1131 529 q 1169 721 1169 634 q 1055 1049 1169 889 q 960 1104 1007 1104 l 957 1104 q 849 1033 906 1104 q 737 1155 794 1155 l 735 1155 q 537 995 652 1155 q 444 710 444 847 m 851 1117 l 851 1112 l 854 1112 l 854 1117 l 851 1117 m 865 1115 l 857 1101 l 859 1101 l 868 1115 l 865 1115 m 1082 1087 q 1123 1022 1119 1022 q 1082 1087 1104 1065 m 759 984 l 762 984 q 827 881 817 984 q 830 843 830 873 l 830 841 q 786 621 830 738 l 846 621 l 843 648 l 843 659 q 922 938 848 890 l 938 938 q 995 838 978 938 q 998 800 995 823 q 933 594 998 681 l 933 591 q 973 556 958 583 l 971 556 q 794 604 891 604 q 661 580 736 604 q 708 607 671 596 l 708 613 q 667 759 667 667 q 732 973 667 891 q 759 984 751 984 m 686 748 q 727 615 686 660 l 732 615 q 737 621 737 615 q 732 653 732 640 l 732 672 q 767 740 732 725 l 778 740 q 797 710 797 727 q 813 824 811 718 l 813 846 q 765 965 807 965 l 762 965 q 686 775 712 965 l 686 748 m 859 694 l 862 694 q 889 718 862 712 l 897 718 q 916 675 913 718 q 900 607 916 657 q 922 602 910 602 q 979 800 979 680 l 979 803 q 935 925 979 907 l 933 925 q 859 699 881 910 l 859 694 m 794 583 l 797 583 q 960 501 923 583 l 963 485 l 963 477 q 876 382 963 408 q 822 374 856 374 l 800 374 q 651 453 691 374 q 645 480 645 476 q 721 572 645 545 q 794 583 758 583 m 472 501 l 491 501 q 518 496 496 501 l 518 491 q 450 480 487 488 q 526 349 453 427 q 789 252 641 252 l 803 252 q 1093 401 989 252 l 1093 404 q 1047 425 1056 425 q 1052 431 1047 431 l 1066 431 q 1150 355 1150 409 l 1150 341 l 1147 322 l 1144 322 q 1109 393 1144 356 l 1104 396 q 1003 287 1085 349 q 938 217 968 267 q 724 59 818 59 l 713 59 q 520 295 575 59 q 491 358 504 350 q 436 472 458 389 q 368 423 419 472 l 363 423 q 472 501 398 501 m 558 233 q 718 78 609 78 q 822 119 764 78 l 822 122 q 716 181 790 181 q 708 179 710 179 q 721 135 721 151 q 572 241 635 241 q 558 233 558 238 "},"∙":{"x_min":0,"x_max":0,"ha":345},"ÿ":{"x_min":0,"x_max":0,"ha":589},"í":{"x_min":0,"x_max":0,"ha":349},"ˆ":{"x_min":0,"x_max":0,"ha":695},"w":{"x_min":0,"x_max":2295.109375,"ha":2341,"o":"m 607 1139 l 659 1133 q 762 1139 735 1136 l 762 1136 q 743 1006 744 1049 q 746 1003 746 1006 q 705 1006 718 1006 l 686 1006 q 683 1009 683 1006 l 678 1006 l 667 1006 q 621 1003 653 1006 l 621 1020 q 607 1139 621 1086 m 1464 1136 q 1492 1033 1492 1066 l 1492 1014 q 1413 895 1492 950 q 1372 859 1413 892 q 1432 727 1406 727 q 1440 751 1437 733 q 1429 822 1437 777 q 1565 892 1532 877 l 1565 889 q 1584 784 1584 832 l 1584 751 q 1535 623 1584 671 q 1492 604 1512 604 l 1481 604 q 1326 819 1382 604 l 1307 803 l 1323 640 l 1321 640 q 1196 637 1245 637 l 1182 637 q 1193 960 1193 855 q 1190 1071 1190 1044 l 1269 1079 q 1261 925 1261 982 l 1261 914 q 1264 841 1261 891 q 1337 990 1337 895 l 1337 1011 q 1313 1115 1337 1058 l 1315 1115 l 1464 1136 m 187 1131 l 195 1131 q 295 971 248 1131 l 301 971 q 390 1101 335 1101 l 404 1101 q 515 911 463 1101 q 545 645 545 769 q 390 626 418 626 l 390 629 q 393 640 393 634 l 393 743 q 368 960 393 960 l 358 960 q 328 816 334 960 q 336 672 330 724 l 333 672 l 195 656 l 195 773 q 173 995 195 937 l 160 1009 l 157 1009 q 127 914 127 1009 q 124 870 124 914 q 143 626 124 803 l 141 626 l 0 613 l 0 615 q 24 960 24 775 l 24 1030 l 81 1036 l 89 982 l 92 982 q 187 1131 127 1131 m 1931 1112 q 1926 998 1926 1070 q 1928 949 1926 987 q 1760 960 1856 960 q 1728 957 1756 960 l 1728 911 q 1836 900 1728 900 q 1844 897 1842 897 l 1844 865 q 1730 851 1844 857 l 1728 846 l 1728 797 l 1755 797 q 1923 808 1852 797 l 1923 805 q 1920 727 1923 771 q 1923 645 1923 684 l 1920 645 q 1660 661 1679 661 q 1668 919 1665 778 q 1665 954 1665 937 l 1638 952 q 1641 998 1641 984 l 1641 1063 q 1638 1104 1641 1077 q 1736 1101 1642 1104 q 1931 1112 1863 1101 m 2107 1106 q 2232 889 2156 999 q 2243 876 2240 876 q 2246 935 2246 916 l 2246 1055 l 2243 1060 l 2295 1060 l 2295 1003 q 2126 615 2295 615 l 2107 615 q 1996 724 2042 615 q 1985 770 1985 756 l 1988 770 l 2126 781 l 2126 778 q 2175 670 2136 670 q 2213 724 2213 695 q 1974 1036 2181 794 l 1974 1041 l 2107 1106 m 971 1098 q 1136 906 1096 1098 l 1133 906 q 1125 903 1128 903 q 1006 897 1069 903 q 1003 906 1003 903 q 963 1055 994 1055 q 925 900 925 1003 l 925 878 q 971 691 936 707 l 976 691 q 998 784 993 697 l 998 824 q 1136 811 1020 824 q 987 642 1104 642 q 832 740 894 642 q 800 873 800 807 l 800 892 q 933 1093 800 1042 q 971 1098 953 1098 m 634 971 q 727 965 719 965 l 756 634 l 754 634 q 670 632 704 632 l 594 632 q 634 971 634 903 m 325 518 q 428 360 381 518 q 434 355 429 355 q 526 488 468 488 l 529 488 q 680 65 640 488 l 680 29 l 678 29 l 526 10 l 526 157 q 501 347 526 347 q 472 311 480 347 q 461 200 463 268 q 469 59 461 191 l 328 40 l 328 179 q 284 396 328 396 q 257 252 261 396 q 279 13 263 112 q 138 0 162 0 l 132 0 q 157 336 157 153 l 157 417 l 160 417 q 214 423 190 417 l 222 366 l 225 366 q 325 518 260 518 m 1652 496 l 1668 496 q 1806 363 1757 496 q 1814 317 1814 324 l 1687 293 l 1687 344 q 1663 442 1682 442 l 1660 442 q 1619 322 1638 442 q 1690 265 1619 265 q 1836 208 1809 265 q 1842 192 1842 200 l 1842 170 q 1804 92 1842 143 q 1682 16 1729 16 q 1516 160 1565 16 q 1508 208 1508 187 l 1646 192 l 1646 189 q 1676 54 1646 80 l 1679 54 q 1714 160 1714 80 q 1663 227 1706 227 q 1519 263 1541 242 q 1505 298 1505 283 l 1505 311 q 1592 474 1505 396 q 1652 496 1623 496 m 2164 496 q 2159 393 2159 418 q 2162 336 2162 358 q 2034 344 2090 344 l 1961 344 l 1961 341 q 1964 290 1964 298 l 1966 290 q 2078 284 1986 290 l 2078 244 q 1966 238 1975 238 q 1961 208 1961 227 l 1961 181 l 1964 181 q 2159 192 2038 181 l 2156 179 l 2156 32 q 1893 48 2117 32 q 1901 330 1901 180 l 1901 341 l 1896 339 l 1871 339 l 1877 415 l 1871 491 q 1912 488 1899 488 l 2012 488 q 2164 496 2091 488 m 1445 488 q 1443 339 1443 389 l 1443 271 q 1315 13 1443 77 q 1261 2 1284 2 q 1133 162 1161 2 q 1125 252 1125 202 l 1087 252 l 1087 306 q 1085 428 1087 345 l 1090 425 l 1112 425 q 1193 423 1139 425 q 1188 303 1188 329 q 1247 56 1199 72 l 1250 56 q 1291 203 1291 82 q 1277 480 1291 313 q 1445 488 1311 480 m 884 474 q 1036 317 994 474 q 1039 279 1039 294 l 1039 255 q 919 40 1039 113 q 865 29 888 29 q 718 165 763 29 q 710 222 710 193 l 710 255 q 808 450 710 372 q 884 474 847 474 m 835 317 l 835 279 q 881 75 845 95 l 887 75 q 911 200 911 96 q 868 425 911 359 l 859 425 q 835 317 835 402 "},"$":{"x_min":0,"x_max":0,"ha":688},"∫":{"x_min":0,"x_max":0,"ha":451},"\\":{"x_min":0,"x_max":0,"ha":386},"Ì":{"x_min":0,"x_max":0,"ha":446},"µ":{"x_min":0,"x_max":0,"ha":800},"Ç":{"x_min":0,"x_max":0,"ha":949},"’":{"x_min":0,"x_max":0,"ha":378},"-":{"x_min":0,"x_max":0,"ha":454},"Q":{"x_min":0,"x_max":1104.140625,"ha":1095,"o":"m 827 1429 q 968 1348 912 1429 q 984 1285 979 1329 q 908 1163 984 1207 q 865 1155 888 1155 l 859 1155 l 832 1158 q 862 1049 862 1104 l 862 1044 q 990 1115 914 1115 q 1101 1028 1069 1115 q 1104 998 1104 1009 l 1104 984 q 1006 838 1104 881 q 973 832 987 832 l 957 832 q 843 933 875 832 l 843 941 q 773 859 807 881 q 659 813 714 813 q 773 705 691 760 l 805 708 l 811 708 q 841 689 841 704 l 868 689 q 900 683 900 688 q 984 759 912 683 l 998 762 l 1003 762 q 1044 694 1037 762 q 968 613 1044 632 l 968 607 q 946 458 968 556 q 897 325 946 360 q 870 293 893 325 q 851 284 860 284 l 841 284 q 792 314 828 284 q 751 439 775 337 q 721 561 721 497 l 721 572 l 724 577 q 708 607 716 577 l 708 626 q 594 743 670 638 q 553 621 553 702 q 623 349 553 516 q 686 293 663 349 q 822 233 722 271 q 911 200 865 200 q 1066 284 1004 200 q 1087 347 1087 326 l 1090 347 l 1090 333 q 990 206 1090 259 q 906 187 950 187 l 887 187 q 916 116 916 145 q 816 10 916 44 q 751 0 784 0 l 710 0 q 488 135 582 0 q 474 173 474 168 q 333 138 414 138 q 103 230 190 138 q 75 290 75 265 l 75 314 q 160 398 75 371 q 198 401 183 401 l 206 401 q 333 371 242 401 q 344 393 337 383 q 322 480 328 466 q 255 545 269 508 q 290 629 266 554 l 287 634 l 287 653 q 311 748 287 707 l 311 751 l 309 751 q 276 732 290 751 q 244 689 258 727 q 151 596 228 655 q 73 504 82 505 l 56 504 q 2 585 25 504 q 0 683 2 612 q 46 784 0 703 q 108 887 61 845 q 122 960 113 887 q 195 1020 147 1020 q 238 976 238 1011 q 217 911 238 970 q 214 889 217 900 q 274 830 274 838 l 290 830 q 453 868 397 830 q 398 900 438 887 q 333 1009 333 950 q 336 1044 336 1043 q 317 1098 317 1064 l 317 1106 q 371 1163 328 1163 q 417 1101 411 1163 l 417 1085 l 428 1085 q 499 1204 428 1136 q 634 1256 562 1256 q 716 1239 667 1256 q 702 1296 702 1266 l 702 1299 q 805 1426 702 1395 q 827 1429 825 1429 m 545 1207 l 548 1212 l 548 1226 q 442 1104 471 1185 q 436 1079 436 1083 l 442 1077 q 491 1152 459 1152 q 496 1139 496 1144 q 466 1058 496 1111 q 480 1033 480 1047 q 417 1077 441 1077 q 377 1020 417 1026 l 371 1020 q 344 1028 368 1020 l 344 1003 q 447 892 344 942 q 504 881 481 881 l 523 881 q 667 957 603 881 l 661 960 l 634 960 q 656 968 636 968 l 667 968 q 727 935 720 968 q 686 954 697 954 q 642 846 670 942 q 577 808 614 808 q 496 862 549 808 q 455 878 486 873 q 482 851 455 876 l 488 854 q 556 800 549 800 q 594 792 577 792 q 670 854 630 792 q 659 822 670 849 l 661 822 q 775 878 723 832 q 794 927 794 910 l 794 938 q 727 1020 794 997 q 697 1022 708 1022 l 678 1022 q 599 1001 641 1022 l 599 1003 q 675 1196 675 1123 q 629 1245 675 1238 l 623 1245 q 548 1207 598 1245 l 545 1207 m 556 1166 q 567 1144 567 1162 q 520 1041 553 1077 l 510 1036 q 488 1060 488 1036 l 488 1063 q 542 1166 488 1123 l 556 1166 m 496 1055 q 499 1047 499 1049 l 504 1047 l 504 1058 q 526 1090 504 1074 l 537 1090 l 537 1085 l 539 1085 q 558 1144 558 1133 l 558 1152 q 553 1158 558 1158 q 496 1068 518 1158 l 496 1055 m 447 1074 l 453 1071 q 469 1096 459 1096 l 477 1096 q 488 1144 488 1127 l 482 1144 q 447 1074 468 1144 m 124 900 q 127 897 127 900 l 132 900 l 135 900 q 59 794 70 841 l 65 797 l 65 794 q 8 664 8 704 l 8 659 l 10 659 q 46 732 10 679 q 54 756 48 756 l 54 732 q 75 626 54 680 l 73 626 l 56 648 q 32 567 32 602 l 32 561 q 65 512 35 512 q 122 583 78 512 l 225 678 q 246 721 246 713 l 238 721 q 165 786 187 721 l 165 794 l 157 794 q 86 708 110 794 l 84 708 l 84 724 q 162 803 103 803 l 165 803 q 225 859 165 854 l 227 865 q 176 897 193 897 l 176 900 l 189 900 q 206 895 197 900 l 227 984 q 198 1009 214 1009 q 124 900 124 994 m 580 838 l 577 838 l 577 846 l 585 862 l 580 862 q 534 841 550 862 q 577 819 554 819 l 588 819 q 645 884 624 819 l 642 884 q 580 838 614 884 m 173 800 q 238 729 173 748 l 241 729 q 274 746 261 729 q 211 797 211 746 l 211 803 q 227 827 211 819 l 257 827 q 263 832 263 827 q 225 851 242 851 q 173 805 188 851 l 173 800 m 387 827 l 382 819 l 385 819 l 390 827 l 387 827 m 377 819 q 360 800 360 801 l 363 800 l 379 819 l 377 819 m 298 656 l 298 653 q 306 591 298 616 l 301 591 l 295 610 l 293 610 q 265 539 290 583 q 390 474 323 474 l 401 474 q 387 512 394 489 q 347 537 353 526 l 347 539 q 387 523 377 523 l 385 529 l 385 548 l 387 548 q 404 496 396 518 q 420 501 413 501 q 572 455 459 501 q 542 602 542 541 l 542 629 q 550 699 542 654 q 412 792 494 792 l 398 792 q 306 713 333 792 q 298 656 298 685 m 583 762 l 583 759 l 588 756 l 588 759 l 583 762 m 360 762 q 368 754 364 762 l 368 743 q 328 656 368 693 q 309 678 309 656 q 352 762 324 762 l 360 762 m 317 675 l 317 670 q 322 664 318 664 l 325 664 q 363 751 363 707 l 355 756 q 317 675 317 726 m 439 756 q 463 721 463 756 q 417 640 451 640 q 396 675 396 647 q 439 756 396 743 m 952 710 q 954 702 954 705 q 919 683 924 683 l 919 678 q 930 672 930 678 l 927 672 q 862 680 892 678 q 732 575 756 680 l 732 548 q 775 401 732 512 q 811 314 794 314 l 822 314 q 854 398 854 337 q 846 444 854 417 q 838 442 841 442 q 830 444 832 444 l 830 447 q 922 477 849 447 l 922 474 l 916 466 l 916 458 q 897 336 916 408 q 944 501 921 336 q 960 610 952 520 l 938 610 l 938 613 q 957 615 949 615 l 952 623 q 1033 699 1033 631 q 1001 751 1028 751 q 952 710 982 751 m 404 680 q 417 648 404 660 l 420 648 q 455 727 455 678 q 444 748 451 748 l 436 748 q 404 680 404 720 m 13 607 l 13 604 q 18 564 13 590 l 21 564 q 56 656 21 617 q 46 713 48 689 q 13 607 13 669 m 716 613 q 727 591 720 591 q 800 678 727 639 q 832 686 817 686 q 808 699 826 699 q 718 632 755 699 q 716 613 716 621 m 822 661 l 827 661 q 876 569 876 635 q 854 515 876 536 l 854 518 q 865 564 865 543 l 865 577 q 822 661 865 622 m 409 491 q 493 439 409 459 l 493 442 q 461 485 483 485 q 420 493 447 491 q 409 491 415 491 m 854 444 q 862 409 862 432 l 862 382 q 824 301 862 329 q 846 293 841 293 q 908 463 892 293 q 854 444 895 455 m 412 461 q 458 382 434 382 q 493 339 479 373 l 504 333 q 529 349 516 349 q 496 428 518 369 q 412 461 459 428 m 86 301 q 249 160 86 219 q 328 151 300 151 q 469 187 416 151 q 466 227 469 193 q 501 301 466 280 l 499 306 l 499 317 l 501 322 l 488 330 q 434 295 488 301 l 428 295 q 333 352 363 295 q 295 371 333 367 q 198 390 259 385 q 89 314 111 390 l 86 301 m 344 366 l 344 360 q 428 306 344 319 l 442 306 q 482 336 472 306 q 444 377 482 354 l 444 374 l 450 360 q 415 339 450 342 q 352 382 352 350 q 344 366 344 379 m 301 355 l 306 355 q 390 265 390 298 q 306 347 358 303 l 301 355 m 507 311 q 599 260 529 260 q 670 301 670 265 q 626 339 670 326 q 632 317 632 328 l 632 314 q 607 301 632 306 l 599 301 q 531 341 550 301 q 507 311 507 328 m 501 293 q 477 230 477 265 q 618 37 477 112 q 729 13 668 13 q 900 97 876 23 q 903 119 903 108 q 729 257 903 199 l 675 287 q 602 249 658 249 q 501 293 542 249 m 694 246 q 756 238 735 243 l 756 236 l 718 238 q 542 203 630 238 l 542 206 q 694 246 596 246 "},"M":{"x_min":0,"x_max":911.53125,"ha":945,"o":"m 469 1386 l 496 1386 q 629 1288 592 1386 q 632 1261 632 1274 l 632 1256 q 556 1155 632 1186 l 556 1152 q 664 1074 587 1152 q 751 1190 664 1148 q 800 1201 764 1199 q 908 1112 872 1201 q 911 1098 911 1107 l 911 1030 q 851 927 911 989 q 784 906 811 906 q 699 944 746 906 q 629 797 699 864 l 621 792 q 629 765 629 776 q 518 537 629 702 q 499 434 509 461 q 485 406 485 417 l 485 404 l 507 374 l 507 371 q 474 349 507 365 q 585 309 516 309 l 588 309 q 621 366 591 309 q 735 436 682 436 q 827 493 775 493 q 849 485 849 491 l 846 485 l 835 488 q 751 442 792 488 l 751 439 l 754 439 q 870 344 837 439 q 878 284 878 311 q 683 13 878 132 q 629 0 648 0 l 591 0 q 526 51 562 0 q 512 111 512 79 l 512 127 q 493 181 493 148 q 496 184 496 181 q 393 330 417 270 l 349 330 q 382 274 376 274 q 436 241 422 263 q 463 203 436 214 q 491 143 491 166 q 290 24 491 54 q 255 21 255 24 q 244 24 250 24 l 236 24 q 27 119 111 24 q 0 195 0 153 q 70 274 0 252 q 124 282 79 279 q 252 257 148 282 l 257 257 q 279 279 257 265 l 279 282 l 241 374 q 146 442 190 395 l 146 444 q 179 510 146 449 q 203 610 189 575 q 284 694 235 670 q 320 710 315 710 q 274 729 320 714 q 198 816 218 758 q 143 887 143 845 l 143 897 q 192 944 143 936 q 252 887 227 944 l 268 892 q 257 946 257 919 l 257 954 q 368 1142 257 1073 q 423 1161 385 1152 l 423 1163 q 360 1258 360 1197 l 360 1280 q 444 1383 360 1353 q 469 1386 459 1386 m 306 1039 l 303 1063 l 298 1063 q 265 946 265 999 q 276 892 265 921 l 282 892 q 271 941 271 911 q 282 976 273 976 l 287 976 q 314 889 297 976 q 344 873 344 879 l 339 873 q 287 884 317 884 q 257 878 271 884 q 263 851 263 858 q 214 808 263 808 l 211 808 q 371 718 264 718 q 534 813 472 718 q 548 873 548 846 l 548 881 q 512 868 543 881 q 569 895 531 895 l 583 895 q 599 887 599 893 l 585 887 q 575 889 579 887 q 556 881 561 887 q 569 805 569 815 l 569 794 q 501 716 569 728 l 488 716 q 447 724 469 716 q 409 713 423 713 l 409 710 l 431 710 q 455 713 440 710 q 507 705 480 705 q 588 800 577 705 l 588 811 l 594 811 l 594 803 l 599 803 l 618 800 q 670 884 670 845 q 607 960 670 935 q 583 963 592 963 l 577 963 q 466 895 523 963 q 474 973 472 929 q 396 1136 463 1136 q 309 1039 348 1136 l 306 1039 m 339 1025 l 347 1025 q 374 919 374 1007 q 352 887 374 887 q 311 976 320 887 q 339 1025 311 1025 m 320 979 q 349 895 330 895 l 352 895 q 347 916 347 905 l 347 925 q 358 949 347 946 l 360 949 l 366 946 l 366 949 q 339 1020 357 1020 q 320 979 325 1020 m 282 971 q 276 941 276 948 q 290 892 282 892 l 295 892 q 290 916 290 905 q 298 933 298 929 q 284 971 292 971 l 282 971 m 529 754 l 529 751 l 523 751 l 523 762 l 518 762 q 496 724 496 748 l 499 724 q 564 792 548 724 q 561 813 564 813 q 529 754 529 797 m 246 653 q 257 659 257 655 q 268 651 268 655 l 268 642 q 211 558 252 587 l 208 558 q 200 567 200 558 l 198 567 q 157 447 198 507 l 157 442 q 287 368 222 383 q 263 425 281 425 q 208 485 208 469 q 301 415 267 427 l 301 412 l 290 412 q 301 355 297 360 q 385 341 350 341 q 496 377 456 341 q 480 390 481 390 l 477 390 q 466 377 477 382 l 466 379 l 477 401 l 474 401 q 458 387 474 397 l 453 387 q 485 431 468 406 l 472 428 q 420 539 430 428 l 420 550 q 436 618 423 613 l 436 615 l 434 599 l 434 596 l 436 596 q 461 615 455 604 q 415 670 448 649 q 330 694 370 694 l 317 694 q 246 653 282 694 m 507 670 l 504 664 l 507 664 l 510 670 l 507 670 m 501 661 l 493 651 l 496 651 l 504 661 l 501 661 m 349 661 l 360 661 q 377 637 377 651 q 317 542 377 589 q 290 534 305 534 q 271 558 271 542 l 271 567 q 336 659 271 610 l 349 661 m 279 569 l 279 553 q 293 542 280 548 q 366 626 330 542 q 368 637 366 632 q 358 653 363 653 l 352 653 q 284 585 321 653 q 279 569 279 577 m 203 575 q 208 567 206 567 q 263 648 240 583 l 263 651 l 260 651 q 203 575 231 651 m 491 648 l 482 637 l 485 637 l 493 648 l 491 648 m 396 604 q 366 580 396 601 l 363 580 q 396 604 377 604 m 436 585 l 436 583 q 488 531 462 583 q 496 493 496 501 l 499 493 q 507 523 507 514 l 507 534 q 453 594 495 594 q 436 585 436 591 m 431 577 q 428 542 428 543 q 469 436 428 468 q 488 488 488 459 q 431 577 488 554 m 341 558 l 347 558 q 320 469 320 512 q 368 379 320 411 l 366 379 q 314 455 326 379 l 314 482 q 341 558 314 515 m 458 556 l 458 553 q 431 534 441 534 l 431 537 q 458 556 440 550 m 466 539 l 469 539 q 436 504 450 504 l 436 507 q 466 539 462 539 m 477 520 l 480 520 l 480 515 q 458 477 470 482 l 455 477 l 455 482 q 477 520 477 516 m 496 482 q 480 434 496 460 l 488 434 q 501 482 501 465 l 496 482 m 585 206 l 583 206 l 580 225 q 567 187 573 225 l 564 187 l 561 200 l 564 206 l 561 206 q 523 119 523 162 l 523 111 q 575 18 523 46 l 575 21 q 648 146 575 46 q 843 330 758 330 q 859 325 851 330 l 859 328 q 803 415 859 367 q 765 425 775 425 l 746 425 q 599 301 661 425 q 585 206 585 260 m 607 70 q 659 62 628 62 q 808 135 763 62 q 865 284 865 206 q 841 322 865 322 q 661 149 769 322 q 607 70 630 98 m 507 309 l 548 265 q 583 282 583 274 q 588 298 583 286 l 569 298 q 507 309 548 298 m 13 200 l 13 181 q 111 67 13 128 q 263 35 183 35 q 425 73 339 35 q 480 143 480 107 q 436 208 480 176 l 434 208 q 377 181 434 187 l 374 181 q 311 195 343 181 l 311 192 q 339 168 319 192 l 339 165 q 208 246 255 229 l 208 249 l 217 249 q 260 230 246 240 q 225 252 257 252 q 127 271 154 271 q 13 200 13 261 m 265 246 l 265 241 q 333 198 277 219 q 368 192 345 192 l 379 192 q 431 225 431 192 q 382 265 431 246 q 393 249 388 249 q 396 252 393 252 l 396 246 q 366 233 396 237 l 352 233 q 284 268 311 233 q 265 246 265 261 m 504 168 q 515 141 507 141 q 561 217 531 195 q 580 265 580 236 l 577 265 q 504 181 535 265 l 504 168 m 653 54 l 651 54 q 602 62 631 54 q 583 18 583 39 l 583 16 q 604 8 585 8 l 613 8 q 732 65 664 8 q 653 54 691 54 "},"C":{"x_min":0,"x_max":1703.703125,"ha":1718,"o":"m 697 1649 q 990 1478 897 1649 q 1011 1378 1011 1423 l 1011 1367 q 841 1098 1011 1208 l 841 1096 q 1101 987 1005 1065 q 1139 946 1139 953 l 1142 946 l 1142 954 q 1139 963 1142 963 l 1142 976 l 1142 984 q 1275 1245 1142 1136 q 1435 1296 1348 1296 q 1652 1174 1572 1296 q 1703 1014 1703 1089 l 1703 935 q 1595 718 1703 831 q 1410 651 1505 651 l 1405 651 q 1272 691 1336 651 l 1269 691 q 1280 594 1280 644 l 1280 569 q 1139 198 1280 370 q 1077 135 1077 140 q 1017 32 1060 62 q 919 0 965 0 l 862 0 q 754 21 809 0 q 689 5 720 5 l 664 5 q 613 16 637 5 q 526 0 566 0 l 447 0 q 225 86 339 0 q 160 179 173 141 q 37 260 114 179 q 0 363 0 316 l 0 366 q 111 491 0 451 l 127 491 q 255 393 191 491 l 257 393 q 274 406 274 403 q 230 577 230 487 l 230 607 q 415 976 230 815 q 607 1068 535 1057 l 607 1071 q 439 1150 491 1095 q 366 1318 366 1224 l 366 1340 q 504 1592 366 1484 q 697 1649 588 1649 m 336 759 l 333 759 q 298 797 333 777 q 249 594 249 701 q 290 412 249 497 q 309 423 309 419 q 265 548 265 474 l 265 556 q 293 621 265 602 l 309 621 q 371 510 329 621 q 406 425 402 429 q 461 401 432 425 l 461 398 q 377 412 425 412 q 268 374 310 412 q 311 274 311 328 q 200 168 311 183 l 192 168 q 333 51 227 93 q 496 21 411 21 q 908 268 743 21 q 982 501 982 395 q 900 461 965 501 l 900 463 q 998 520 938 520 l 1017 520 q 1060 499 1040 520 l 1060 496 q 1009 504 1026 504 l 998 504 l 987 393 q 1020 219 987 383 q 1022 189 1022 219 l 1022 176 q 919 46 1022 79 q 873 40 897 40 l 857 40 q 740 70 807 40 q 648 29 661 29 l 648 27 l 661 24 l 708 24 q 743 29 718 24 l 743 32 l 740 37 l 743 37 q 873 16 833 16 l 884 16 q 1049 122 1002 16 q 1079 290 1060 164 q 1090 303 1086 303 l 1090 301 q 1079 165 1085 193 q 1204 339 1172 258 q 1250 482 1250 444 q 1161 642 1250 571 q 1066 670 1112 670 l 1036 670 q 770 518 883 670 l 770 512 l 765 512 l 767 526 q 613 973 767 834 q 531 1001 571 1001 l 529 1001 q 374 881 453 1001 q 336 759 346 832 m 434 773 q 531 564 485 773 q 539 482 539 504 q 515 425 539 441 l 496 425 q 385 596 424 425 q 379 659 379 626 l 379 670 q 434 773 387 773 m 398 672 l 398 640 q 488 439 398 507 l 491 439 l 491 442 q 466 512 476 442 q 488 567 466 548 l 491 567 q 515 556 501 567 q 428 756 474 756 q 398 672 403 756 m 295 607 q 279 558 279 590 q 325 423 279 486 l 344 425 l 352 425 l 352 428 q 341 472 341 448 l 341 485 q 360 496 341 494 q 295 607 321 607 m 982 290 q 927 157 927 248 l 930 138 q 911 181 918 138 q 865 154 894 181 q 835 92 835 119 l 835 67 q 876 56 835 56 q 1001 141 965 56 q 1006 181 1006 166 l 1006 189 q 984 290 1006 233 l 982 290 "},"!":{"x_min":0,"x_max":0,"ha":456},"ç":{"x_min":0,"x_max":0,"ha":614},"È":{"x_min":0,"x_max":0,"ha":781},"ﬁ":{"x_min":0,"x_max":0,"ha":728},"{":{"x_min":0,"x_max":0,"ha":688},"X":{"x_min":0,"x_max":4061.203125,"ha":4105,"o":"m 542 835 l 556 835 q 567 824 558 835 q 523 805 567 811 l 518 797 q 520 390 520 497 q 531 268 520 268 q 561 257 561 268 l 561 252 q 377 230 561 240 q 363 238 363 233 l 363 241 q 406 255 363 250 q 417 284 414 262 q 415 287 417 287 q 417 406 417 375 q 415 735 417 491 l 415 740 l 412 740 q 279 230 295 262 l 268 230 q 105 718 157 559 l 103 718 q 100 680 100 685 l 92 265 q 116 252 92 252 l 143 252 q 151 244 147 252 l 151 238 q 24 222 151 222 q 0 230 0 225 l 0 236 q 51 252 0 243 q 65 268 65 263 q 75 770 75 674 q 18 789 75 789 l 18 797 q 146 813 18 813 q 203 775 203 813 q 303 463 227 683 l 306 463 l 401 816 q 542 835 401 827 m 2737 835 q 2753 827 2753 834 l 2753 819 q 2710 803 2753 813 l 2707 797 q 2710 358 2710 427 q 2723 268 2710 268 q 2750 257 2750 266 l 2750 252 q 2563 230 2750 240 q 2552 238 2552 234 l 2552 241 q 2596 255 2552 250 q 2604 263 2596 259 q 2607 404 2604 306 q 2604 732 2604 647 l 2604 740 l 2601 740 q 2468 230 2485 264 l 2457 230 l 2295 716 l 2292 716 q 2289 699 2289 701 l 2281 265 q 2305 252 2281 252 l 2333 252 q 2341 241 2341 252 q 2213 222 2341 222 q 2189 230 2189 225 l 2189 236 q 2240 252 2189 243 q 2254 268 2254 263 q 2265 765 2265 692 q 2227 786 2265 786 q 2208 789 2219 786 l 2208 797 q 2335 813 2208 813 q 2398 767 2387 813 q 2493 466 2421 657 l 2493 463 l 2495 463 q 2585 808 2571 733 q 2726 835 2585 829 l 2737 835 m 1180 762 q 1193 705 1190 762 l 1182 406 l 1188 404 l 1313 556 l 1313 564 q 1304 567 1310 564 q 1272 564 1285 564 q 1256 572 1256 567 l 1256 577 q 1380 594 1256 590 q 1402 596 1380 596 q 1429 585 1429 594 l 1429 583 q 1370 569 1429 572 q 1294 488 1347 569 q 1291 477 1291 483 q 1405 268 1304 406 q 1462 252 1410 260 l 1464 246 l 1464 241 q 1272 225 1464 229 l 1266 225 q 1261 230 1261 225 l 1261 238 q 1302 252 1261 247 l 1302 255 q 1218 382 1262 302 l 1207 387 q 1180 325 1180 362 q 1182 252 1182 275 q 1199 246 1191 246 l 1228 246 q 1245 238 1245 245 l 1245 236 q 1066 214 1245 221 q 1030 211 1066 211 l 1028 217 l 1028 222 q 1077 238 1028 233 q 1093 265 1093 250 q 1098 458 1096 437 q 1096 569 1096 510 l 1096 675 q 1085 727 1096 727 l 1079 727 q 1041 724 1064 727 q 1028 735 1029 727 q 1155 762 1028 754 l 1180 762 m 659 716 q 743 661 743 716 q 683 621 743 627 l 672 621 q 615 661 615 621 q 659 716 626 716 m 1581 613 q 1709 520 1677 613 q 1714 480 1709 514 q 1684 428 1714 428 q 1521 393 1521 418 q 1519 371 1519 378 q 1584 290 1519 312 l 1611 290 q 1692 347 1648 290 l 1700 347 l 1700 336 q 1625 257 1700 303 q 1559 241 1608 246 q 1432 336 1470 241 q 1426 377 1426 362 l 1426 406 q 1519 602 1426 537 q 1581 613 1549 613 m 3930 613 q 4058 523 4027 613 q 4061 499 4061 508 l 4061 455 q 4028 428 4061 428 q 3871 393 3871 417 q 3868 374 3871 385 q 3936 290 3868 311 l 3955 290 q 4042 347 4002 290 l 4047 347 q 4053 339 4053 347 q 3971 255 4053 304 q 3911 241 3930 241 q 3781 339 3819 241 q 3776 393 3776 366 q 3865 599 3776 537 q 3930 613 3892 613 m 2897 607 q 3041 548 2974 607 q 3076 436 3076 495 l 3076 423 q 2992 252 3076 317 q 2900 233 2959 233 q 2759 347 2792 233 q 2750 398 2753 360 q 2848 594 2750 531 q 2897 607 2868 604 m 925 599 q 1044 537 1015 599 q 1047 515 1044 535 q 979 455 1047 455 q 927 485 936 455 q 925 496 925 490 l 925 518 q 987 556 925 556 l 1001 553 q 960 569 992 569 q 887 501 921 569 q 868 401 868 451 l 868 377 q 925 282 868 307 q 946 279 940 279 q 1028 339 981 279 q 1047 355 1037 355 l 1049 349 l 1049 344 q 971 252 1049 306 q 897 236 930 236 q 770 344 807 236 q 765 390 765 366 q 884 594 765 532 q 925 599 910 599 m 3651 594 q 3743 539 3743 594 l 3743 529 q 3689 477 3743 489 l 3678 477 q 3629 515 3629 485 l 3629 526 q 3667 561 3629 554 q 3643 569 3667 566 q 3559 515 3559 562 q 3686 450 3559 486 q 3746 377 3746 415 l 3746 363 q 3651 236 3746 293 q 3589 225 3619 227 q 3467 290 3484 225 l 3467 298 q 3507 347 3467 339 l 3534 347 q 3578 311 3578 341 l 3578 290 q 3548 263 3578 268 l 3548 260 q 3583 249 3548 251 l 3586 249 q 3656 290 3637 249 l 3659 306 l 3659 317 q 3548 374 3659 348 q 3477 466 3477 401 q 3597 588 3477 554 q 3651 594 3640 594 m 3396 588 l 3407 583 q 3401 276 3401 389 q 3456 257 3401 257 l 3456 244 q 3328 233 3357 233 q 3315 274 3315 236 q 3247 227 3277 227 l 3228 227 q 3138 347 3160 227 q 3136 396 3136 373 q 3144 542 3136 434 l 3138 545 l 3106 545 l 3092 548 l 3092 564 q 3220 580 3092 574 q 3239 567 3235 580 q 3231 423 3231 521 l 3231 390 q 3271 268 3235 268 q 3315 379 3315 288 l 3315 450 q 3296 556 3315 556 q 3252 567 3252 556 l 3252 572 q 3396 588 3252 579 m 1521 439 q 1524 431 1524 434 q 1627 474 1627 442 l 1627 501 q 1592 580 1627 580 q 1521 439 1542 580 m 2067 583 q 2086 575 2086 580 l 2086 569 q 2045 558 2086 561 q 1972 379 2026 537 q 1801 37 1858 67 q 1717 0 1764 0 l 1684 0 q 1635 48 1635 6 q 1714 97 1635 97 q 1752 65 1752 93 q 1744 32 1749 43 l 1747 32 q 1814 89 1776 40 q 1871 203 1871 180 l 1871 206 q 1812 363 1871 214 q 1747 534 1766 493 q 1714 545 1747 539 l 1714 550 q 1839 567 1714 567 q 1874 556 1874 565 l 1874 553 q 1844 542 1874 546 l 1844 539 l 1920 336 l 1926 336 q 2007 553 1983 474 l 2002 556 q 1945 553 1966 553 q 1939 564 1939 560 q 2067 583 1939 583 m 3874 447 l 3874 436 l 3876 431 q 3977 474 3977 442 q 3979 491 3977 476 q 3949 580 3979 564 l 3941 580 q 3874 447 3895 580 m 721 580 q 775 577 740 577 l 778 577 q 784 572 784 577 l 784 564 q 732 550 784 557 q 708 271 715 524 q 718 257 713 259 l 743 257 q 759 249 759 256 l 759 244 q 572 219 759 232 l 569 219 q 561 233 563 219 q 610 252 571 244 q 618 276 618 262 l 618 434 q 607 545 618 545 l 569 550 l 569 561 q 721 580 569 573 m 2853 390 l 2853 358 q 2908 260 2853 260 q 2976 371 2955 260 q 2981 428 2981 414 q 2927 575 2981 545 q 2853 390 2868 575 "},"ô":{"x_min":0,"x_max":0,"ha":685},"¼":{"x_min":0,"x_max":0,"ha":1158},"#":{"x_min":0,"x_max":0,"ha":906},"Ê":{"x_min":0,"x_max":0,"ha":781},")":{"x_min":0,"x_max":0,"ha":514},"Å":{"x_min":0,"x_max":0,"ha":1044},"ø":{"x_min":0,"x_max":0,"ha":685},"â":{"x_min":0,"x_max":0,"ha":625},"}":{"x_min":0,"x_max":0,"ha":688},"Ä":{"x_min":0,"x_max":0,"ha":1044},"¸":{"x_min":0,"x_max":0,"ha":695},"a":{"x_min":0,"x_max":1684.703125,"ha":1725,"o":"m 1150 1725 q 1473 1530 1336 1725 q 1505 1389 1505 1458 q 1299 1101 1505 1198 l 1299 1098 q 1540 873 1443 1041 q 1603 661 1603 766 l 1603 659 q 1673 604 1634 659 q 1684 569 1684 583 l 1684 512 q 1559 284 1684 427 q 1359 135 1433 163 q 1266 81 1267 95 q 1117 0 1178 0 l 1079 0 q 952 89 1020 0 l 949 89 q 689 208 784 89 q 656 282 672 236 q 531 613 531 423 l 531 632 l 534 651 q 320 575 426 575 q 51 740 161 575 q 0 922 0 827 l 0 927 q 203 1275 0 1183 l 271 1285 q 542 1096 427 1285 q 596 868 596 984 q 900 1120 719 1059 q 1022 1142 973 1142 l 1025 1142 q 857 1421 857 1274 l 857 1429 q 1009 1687 857 1580 q 1150 1725 1072 1725 m 822 822 q 971 485 822 600 q 990 472 988 478 q 911 480 951 480 q 705 393 781 480 q 678 320 678 355 l 678 314 q 841 132 678 200 q 935 111 896 111 q 922 138 922 128 l 922 141 l 925 141 q 1009 59 931 140 q 1087 24 1047 24 l 1106 24 q 1280 122 1181 24 q 1283 119 1283 122 q 1494 252 1377 152 q 1638 431 1608 362 q 1671 539 1669 497 q 1578 640 1671 622 q 1543 642 1544 642 q 1497 640 1511 640 q 1511 702 1511 673 l 1511 735 q 1402 1006 1511 869 q 1321 1049 1350 1049 l 1318 1049 q 1234 935 1263 1049 q 1228 892 1228 924 l 1228 887 q 1125 1022 1178 972 q 971 1098 1055 1098 q 832 922 868 1098 q 822 822 824 883 m 1120 854 q 1239 583 1209 854 l 1239 558 q 1234 499 1239 539 l 1237 499 q 1367 556 1314 556 l 1367 558 l 1361 558 l 1361 561 q 1418 626 1405 594 l 1424 626 l 1424 623 q 1372 561 1424 580 l 1372 558 q 1426 545 1426 556 l 1405 545 q 1185 423 1292 545 l 1185 434 q 1193 455 1185 442 q 1147 501 1177 455 q 1117 545 1147 505 q 1063 751 1063 650 q 1112 854 1063 839 l 1120 854 m 1082 746 q 1131 548 1082 650 l 1133 548 q 1158 602 1133 602 l 1161 602 q 1218 510 1193 602 l 1220 510 q 1223 556 1220 539 q 1155 816 1223 691 q 1120 838 1133 838 q 1082 773 1089 838 l 1082 746 m 1372 743 q 1397 718 1397 739 q 1375 732 1395 718 q 1313 634 1346 732 l 1310 634 l 1310 642 q 1372 743 1319 743 m 1389 667 l 1405 667 q 1424 648 1418 661 l 1424 645 l 1399 651 q 1315 564 1358 651 l 1310 564 q 1375 664 1310 610 l 1389 667 m 1576 531 l 1589 531 q 1625 512 1613 531 l 1625 510 q 1595 518 1620 510 q 1600 469 1600 477 q 1426 214 1600 330 q 1280 149 1363 173 q 1101 48 1184 48 q 971 165 1009 48 q 911 301 934 257 q 862 255 904 301 l 859 255 l 859 257 q 938 339 859 298 q 979 347 963 347 l 998 347 l 1011 344 q 963 330 1011 339 q 927 314 960 326 q 1204 162 1015 162 l 1212 162 q 1454 255 1339 162 q 1581 469 1581 358 q 1573 518 1581 492 l 1554 515 l 1546 515 l 1546 518 q 1576 531 1555 531 m 1440 504 q 1521 436 1521 493 l 1521 431 q 1386 282 1521 347 q 1307 263 1340 263 q 1223 336 1223 271 l 1223 341 q 1342 480 1223 414 q 1440 504 1389 504 m 982 195 l 982 192 q 1060 73 1020 87 q 1096 67 1085 67 l 1104 67 q 1204 105 1159 67 q 1125 146 1180 146 l 1120 146 q 1101 141 1101 145 q 1112 105 1112 120 l 1106 103 q 982 195 1046 195 "},"—":{"x_min":0,"x_max":0,"ha":1389},"=":{"x_min":0,"x_max":0,"ha":688},"N":{"x_min":0,"x_max":1223.515625,"ha":1269,"o":"m 1169 1519 l 1180 1519 q 1223 1492 1208 1519 l 1223 1473 q 1120 1380 1223 1443 l 1098 1361 q 1123 1291 1123 1338 l 1120 1277 q 1144 1220 1144 1255 q 1079 1109 1144 1162 q 1025 1082 1062 1096 q 987 1052 1007 1052 q 811 854 962 994 q 773 816 807 853 q 792 708 792 758 q 670 415 792 562 q 629 387 643 387 q 561 420 607 387 q 545 415 545 418 q 569 390 545 390 q 648 322 648 328 q 686 217 686 271 l 686 198 q 550 8 686 65 q 501 0 521 0 l 455 0 q 290 75 372 0 q 268 138 268 109 q 396 263 268 211 q 450 347 450 316 q 469 371 464 370 q 461 406 461 395 q 423 412 443 406 q 160 328 224 371 q 86 244 86 265 l 81 244 l 81 246 q 168 344 105 306 q 404 423 218 382 l 404 425 q 363 461 399 425 q 352 463 352 461 q 233 439 303 439 l 208 439 q 8 558 57 439 q 0 599 0 583 l 0 618 q 65 699 0 676 q 105 705 90 705 l 135 705 q 401 675 401 689 q 461 621 433 664 q 561 756 561 735 l 561 765 q 548 773 561 769 q 501 767 526 767 l 493 767 q 344 841 385 767 l 341 857 l 341 873 q 328 897 328 889 q 309 887 309 894 q 317 846 317 862 l 317 838 q 244 748 317 769 l 230 746 q 208 748 220 748 q 146 713 179 713 q 89 754 118 713 q 0 870 0 786 q 108 1001 0 970 q 132 1003 118 1003 l 149 1003 q 179 1001 160 1003 q 214 1009 192 1009 q 260 998 227 1009 l 295 998 l 309 995 l 317 1044 q 252 1030 277 1030 l 230 1030 q 103 1120 151 1030 q 97 1155 97 1144 l 97 1171 q 200 1283 97 1247 l 233 1285 q 374 1201 317 1285 q 385 1161 385 1184 l 385 1158 l 387 1158 q 510 1215 463 1215 l 510 1218 q 434 1340 434 1268 l 434 1342 q 534 1454 434 1425 l 572 1454 q 718 1375 658 1454 q 735 1313 735 1346 q 645 1193 735 1228 l 640 1193 l 640 1190 q 748 1085 709 1161 q 784 995 784 1005 l 784 982 q 778 944 784 967 q 881 1096 849 1019 q 862 1144 862 1121 q 870 1169 862 1147 q 857 1239 857 1199 l 857 1253 q 914 1359 857 1343 l 933 1359 q 960 1351 946 1359 q 1117 1508 1018 1465 q 1169 1519 1142 1519 m 968 1342 q 984 1326 970 1342 q 1055 1372 1022 1372 l 1066 1372 q 1087 1367 1077 1372 q 1201 1454 1112 1393 q 1212 1483 1212 1472 q 1174 1508 1202 1508 l 1161 1508 q 998 1397 1100 1508 l 968 1342 m 990 1315 q 1006 1261 1001 1293 q 1079 1296 1052 1296 q 1112 1285 1094 1296 l 1112 1288 q 1066 1361 1106 1361 l 1060 1361 q 990 1315 1029 1361 m 868 1242 q 916 1128 868 1160 l 916 1125 l 908 1125 q 878 1155 898 1125 l 876 1155 l 873 1142 q 973 1063 873 1087 l 979 1063 q 1014 1082 1003 1063 l 1011 1082 l 998 1079 q 916 1144 935 1079 l 916 1171 q 933 1215 916 1184 q 906 1256 912 1230 q 892 1277 892 1258 l 903 1266 l 903 1291 l 908 1291 q 957 1218 918 1218 l 960 1218 q 995 1247 986 1218 l 995 1250 q 944 1345 995 1315 l 927 1348 l 925 1348 q 868 1256 876 1348 l 868 1242 m 992 1215 l 992 1207 q 1030 1174 992 1180 q 1098 1212 1060 1174 l 1101 1212 l 1101 1209 l 1093 1193 l 1098 1193 l 1104 1196 l 1104 1193 q 1039 1166 1059 1166 l 1020 1166 q 982 1215 986 1166 q 938 1204 971 1207 q 925 1155 925 1182 q 987 1090 937 1090 l 998 1090 q 1125 1182 1073 1090 q 1133 1220 1133 1213 q 1090 1283 1120 1283 l 1077 1283 q 998 1231 1039 1283 q 992 1215 992 1222 m 431 1109 l 428 1109 q 390 1139 408 1139 q 336 1028 336 1100 q 387 914 336 969 q 349 862 349 895 q 461 781 349 809 q 485 778 471 778 l 520 778 l 534 781 l 531 786 l 537 786 q 629 765 596 765 q 718 857 697 765 l 718 881 l 721 881 l 724 865 l 727 865 q 773 990 773 935 q 708 1063 760 1063 l 697 1063 q 642 1033 673 1063 q 531 1196 642 1145 q 501 1201 505 1201 q 431 1109 431 1201 m 520 1066 q 526 1060 526 1065 q 491 1022 500 1060 l 488 1022 l 488 1030 q 515 1066 488 1060 l 520 1066 m 529 1049 l 537 1049 q 545 1041 541 1049 l 545 1036 l 539 1039 l 534 1039 q 501 1009 501 1031 l 496 1009 q 529 1049 501 1049 m 548 1030 l 553 1030 q 531 1006 549 1006 l 531 1003 l 550 1006 l 564 1006 q 515 990 564 1002 q 444 927 483 980 l 444 933 q 510 998 444 964 l 526 1001 l 526 1003 l 520 1003 l 520 1009 q 548 1030 537 1009 m 436 1022 q 455 1011 451 1022 l 455 1009 l 453 1009 q 436 1014 444 1014 l 431 1014 q 420 998 420 1009 l 417 998 l 417 1006 q 436 1022 417 1022 m 670 1006 l 697 1006 q 721 992 721 1001 l 721 990 q 694 998 702 998 l 694 995 q 686 944 694 960 q 702 857 702 891 q 623 778 688 778 q 501 830 581 778 q 423 846 453 830 q 417 824 417 832 l 412 824 l 412 841 q 442 876 419 876 l 447 876 q 428 851 428 861 l 431 851 q 496 841 463 841 l 501 841 q 661 922 600 841 q 683 984 683 953 l 683 998 q 648 992 672 998 l 648 995 q 670 1006 648 1002 m 450 1003 q 469 992 469 999 q 434 976 434 992 l 434 971 q 428 976 428 971 l 428 990 q 450 1003 436 1003 m 189 992 q 301 900 259 969 l 301 897 l 303 897 l 303 908 q 222 998 303 971 l 195 998 q 189 992 189 997 m 13 868 q 92 762 13 794 q 108 805 94 805 l 108 803 q 103 781 103 792 l 103 773 q 151 724 109 724 q 241 808 182 724 q 255 813 250 813 l 233 784 l 246 792 l 246 789 q 219 767 246 785 q 214 756 219 763 q 222 754 217 756 q 306 843 294 754 q 192 984 306 920 q 162 992 174 992 l 160 992 q 89 954 96 954 q 141 990 111 982 l 143 990 l 143 992 l 135 992 q 16 903 54 992 q 13 868 13 880 m 548 990 q 588 949 588 986 q 529 889 588 919 q 488 884 509 884 q 455 922 455 891 q 485 968 455 941 q 548 990 520 990 m 192 982 l 195 982 l 195 979 q 132 935 189 979 l 127 935 l 127 938 q 192 982 162 977 m 461 982 l 466 982 q 431 954 466 958 l 428 960 q 461 982 461 965 m 214 971 l 214 968 q 184 906 189 908 l 181 906 l 181 911 q 214 971 198 971 m 309 968 l 309 957 l 311 957 l 311 968 l 309 968 m 311 949 l 311 941 l 314 941 l 314 949 l 311 949 m 314 938 l 314 933 l 317 933 l 317 938 l 314 938 m 642 824 l 640 824 l 640 838 q 602 803 619 838 q 599 792 599 798 l 604 789 l 626 789 q 694 862 678 789 l 694 873 q 689 881 691 881 q 642 824 657 881 m 567 746 q 463 607 567 720 q 436 537 436 569 q 482 501 451 501 l 482 510 q 469 545 469 529 l 469 553 l 472 553 q 501 512 482 512 q 602 501 586 501 q 575 493 602 493 l 510 501 q 588 412 562 434 l 629 396 q 716 501 684 432 q 756 588 736 528 q 778 702 778 651 l 778 732 l 775 732 q 683 675 744 675 l 672 675 q 567 746 612 675 m 13 613 q 78 491 13 543 q 230 450 143 450 q 336 466 275 450 l 336 469 q 298 523 298 485 q 366 596 298 573 l 379 596 q 434 575 411 596 q 450 610 450 605 q 406 659 436 644 q 233 683 368 683 q 119 694 171 694 q 16 637 37 694 q 13 613 13 622 m 621 683 q 642 659 642 678 l 642 656 q 594 567 642 604 q 577 561 585 561 l 575 561 q 548 588 548 564 l 548 604 q 591 672 548 635 q 621 683 611 683 m 556 591 q 569 569 556 576 l 572 569 q 634 653 611 569 l 634 664 q 621 675 633 670 q 556 602 586 675 l 556 591 m 727 664 q 740 637 740 658 q 675 548 720 548 q 653 580 653 548 q 705 664 653 624 l 727 664 m 661 572 q 672 558 667 560 l 678 558 q 732 640 711 558 q 721 656 727 656 l 716 656 q 661 575 681 656 l 661 572 m 244 596 l 246 596 q 279 477 246 534 q 241 572 241 511 l 241 577 l 244 596 m 309 531 l 309 520 q 355 469 309 486 l 358 469 l 358 472 q 339 512 339 501 l 339 515 q 387 564 346 564 l 396 564 q 425 545 425 560 l 428 545 q 431 558 428 554 q 387 585 417 585 l 374 585 q 309 531 309 570 m 556 382 q 567 355 567 363 q 515 311 567 321 q 472 360 487 311 l 469 360 q 455 325 455 341 q 510 279 455 290 l 523 279 q 596 330 583 279 l 596 336 q 556 385 596 370 l 556 382 m 604 347 l 604 325 q 520 268 588 268 q 450 309 468 268 q 423 274 448 309 l 428 276 l 431 276 q 330 217 417 261 q 279 135 279 179 q 401 24 279 71 q 472 13 440 13 l 488 13 q 664 149 620 13 q 675 206 672 167 q 607 347 675 289 l 604 347 m 436 233 l 466 233 q 556 206 531 233 l 591 195 l 591 192 l 585 192 q 406 219 474 219 l 393 219 l 393 225 l 412 227 l 436 227 l 436 233 m 447 227 l 447 225 q 537 211 476 225 l 539 211 l 539 214 q 466 227 488 227 l 447 227 m 542 211 l 542 208 l 548 208 l 548 211 l 542 211 "},"˚":{"x_min":0,"x_max":0,"ha":695},"ú":{"x_min":0,"x_max":0,"ha":718},"⁄":{"x_min":0,"x_max":0,"ha":232},"2":{"x_min":0,"x_max":0,"ha":688},"ü":{"x_min":0,"x_max":0,"ha":718},"¯":{"x_min":0,"x_max":0,"ha":454},"Z":{"x_min":0,"x_max":1684.703125,"ha":1725,"o":"m 534 1725 q 675 1687 612 1725 q 827 1429 827 1580 l 827 1421 q 659 1142 827 1274 l 661 1142 q 784 1120 711 1142 q 1087 868 965 1059 q 1142 1096 1087 984 q 1413 1285 1256 1285 l 1481 1275 q 1684 927 1684 1183 l 1684 922 q 1633 740 1684 827 q 1364 575 1523 575 q 1150 651 1258 575 l 1152 632 l 1152 613 q 1028 282 1152 423 q 995 208 1013 236 q 735 89 900 89 l 732 89 q 604 0 663 0 l 567 0 q 417 81 506 0 q 325 135 417 95 q 124 284 250 163 q 0 512 0 427 l 0 569 q 10 604 0 583 q 81 659 50 659 l 81 661 q 143 873 81 766 q 385 1098 241 1041 l 385 1101 q 179 1389 179 1198 q 211 1530 179 1458 q 534 1725 349 1725 m 862 822 q 851 922 859 883 q 713 1098 815 1098 q 558 1022 629 1098 q 455 887 506 972 l 455 892 q 450 935 455 924 q 366 1049 421 1049 l 363 1049 q 282 1006 334 1049 q 173 735 173 869 l 173 702 q 187 640 173 673 q 141 642 172 640 q 105 640 139 642 q 13 539 13 622 q 46 431 15 497 q 189 252 76 362 q 401 119 307 152 q 404 122 401 122 q 577 24 503 24 l 596 24 q 675 59 637 24 q 759 141 752 140 l 762 141 l 762 138 q 748 111 762 128 q 843 132 788 111 q 1006 314 1006 200 l 1006 320 q 979 393 1006 355 q 773 480 903 480 q 694 472 733 480 q 713 485 695 478 q 862 822 862 600 m 572 854 q 621 751 621 839 q 567 545 621 650 q 537 501 537 505 q 491 455 507 455 q 499 434 499 442 l 499 423 q 279 545 392 545 l 257 545 q 311 558 257 556 l 311 561 q 260 623 260 580 l 260 626 l 265 626 q 322 561 279 594 l 322 558 l 317 558 l 317 556 q 447 499 370 556 l 450 499 q 444 558 444 539 l 444 583 q 564 854 474 854 l 572 854 m 602 773 q 564 838 595 838 q 529 816 550 838 q 461 556 461 691 q 463 510 463 539 l 466 510 q 523 602 491 602 l 526 602 q 550 548 550 602 l 553 548 q 602 746 602 650 l 602 773 m 311 743 q 374 642 364 743 l 374 634 l 371 634 q 309 732 338 732 q 287 718 288 718 q 311 743 287 739 m 309 664 q 374 564 374 610 l 368 564 q 284 651 326 651 l 260 645 l 260 648 q 279 667 266 661 l 295 667 l 309 664 m 108 531 q 138 518 128 531 l 138 515 l 130 515 l 111 518 q 103 469 103 492 q 230 255 103 358 q 472 162 345 162 l 480 162 q 756 314 669 162 q 721 330 724 326 q 672 344 672 339 l 686 347 l 705 347 q 746 339 721 347 q 824 257 824 298 l 824 255 l 822 255 q 773 301 779 301 q 713 165 750 257 q 583 48 675 48 q 404 149 500 48 q 257 214 320 173 q 84 469 84 330 q 89 518 84 477 q 59 510 63 510 l 59 512 q 94 531 71 531 l 108 531 m 244 504 q 341 480 295 504 q 461 341 461 414 l 461 336 q 377 263 461 271 q 298 282 343 263 q 162 431 162 347 l 162 436 q 244 504 162 493 m 702 195 q 577 103 638 195 l 572 105 q 583 141 572 120 q 564 146 583 145 l 558 146 q 480 105 504 146 q 580 67 525 67 l 588 67 q 623 73 599 67 q 702 192 663 87 l 702 195 "},"u":{"x_min":0,"x_max":3792.625,"ha":3869,"o":"m 1161 1060 q 1215 1044 1215 1057 q 1220 1020 1220 1026 l 1220 984 q 1223 954 1220 973 q 1090 567 1147 631 q 1077 501 1077 543 l 1077 499 l 1079 499 q 1109 553 1095 553 q 1196 642 1138 619 q 1245 656 1216 653 q 1299 610 1284 656 l 1299 577 q 1215 409 1299 506 q 1182 390 1194 404 q 1264 339 1230 339 l 1272 339 q 1332 374 1298 339 l 1329 393 l 1329 396 q 1424 667 1329 548 q 1473 694 1452 691 q 1538 645 1538 684 l 1538 629 q 1426 379 1538 501 q 1397 358 1412 373 q 1454 330 1407 333 l 1459 330 q 1568 442 1526 330 q 1589 680 1574 680 q 1603 694 1589 684 l 1608 694 q 1633 664 1625 682 q 1606 396 1606 468 q 1619 328 1609 329 q 1668 425 1629 328 q 1722 621 1700 499 q 1768 716 1722 659 l 1782 716 q 1798 691 1798 708 l 1798 689 q 1790 637 1798 679 q 1793 591 1793 609 q 1768 412 1783 591 q 1747 157 1755 355 l 1749 151 l 1747 135 l 1747 111 q 1755 43 1747 56 q 1744 0 1752 0 l 1722 0 q 1709 59 1711 0 l 1709 132 q 1738 507 1709 231 l 1738 510 l 1736 510 q 1638 268 1670 268 q 1614 260 1638 262 l 1597 260 q 1568 349 1568 284 l 1565 349 q 1435 268 1519 268 q 1353 317 1378 268 l 1351 317 q 1280 265 1333 283 l 1264 265 q 1101 415 1176 265 l 1098 415 q 1082 333 1087 383 q 1090 306 1085 306 q 1071 255 1090 263 l 1055 255 q 1033 311 1047 255 q 1028 317 1028 311 q 1033 336 1030 336 l 1028 374 q 895 282 954 282 l 884 282 q 800 347 827 282 l 797 347 q 721 265 776 297 l 689 260 q 585 317 636 260 q 493 206 556 206 q 387 664 387 206 q 390 792 390 730 l 390 797 l 387 797 q 293 358 322 567 q 260 246 280 246 l 246 246 q 214 488 223 246 q 208 501 211 488 q 211 510 208 504 q 198 773 203 749 q 105 431 160 718 q 92 301 92 338 l 92 290 q 65 268 78 268 l 59 268 q 40 423 40 268 q 32 621 37 548 q 35 659 32 625 q 8 678 8 666 q 10 759 8 690 l 0 887 q 29 914 0 914 q 67 884 67 906 q 70 859 70 874 l 70 803 q 75 523 70 617 l 78 523 q 157 813 113 695 q 208 870 179 870 q 241 816 236 870 l 241 699 q 255 425 241 599 l 257 425 q 371 878 320 758 q 404 925 377 925 q 428 892 428 916 q 431 870 428 885 l 425 621 q 474 282 425 387 q 496 271 486 271 q 553 349 523 271 l 561 377 q 542 482 548 408 q 585 661 550 661 q 607 640 600 657 q 588 510 607 592 q 585 469 585 476 q 699 328 617 328 q 784 398 746 328 q 778 458 778 421 q 873 713 778 618 q 916 729 889 725 l 927 727 q 949 729 942 729 q 1001 642 969 729 l 1001 640 q 982 583 1001 611 l 968 583 q 949 637 957 583 q 914 667 929 667 q 827 550 865 667 q 819 510 824 545 l 824 442 q 822 434 822 436 q 895 344 838 344 q 1017 439 954 344 q 1025 455 1020 455 l 1022 480 q 1106 968 1022 720 q 1161 1060 1133 1027 m 1068 626 l 1068 623 l 1071 623 q 1147 811 1117 710 q 1180 984 1180 940 l 1177 998 q 1090 778 1150 998 q 1068 626 1082 733 m 2390 906 q 2417 873 2417 895 q 2414 591 2417 812 q 2466 257 2414 348 q 2476 252 2470 257 l 2482 252 q 2550 368 2522 252 l 2550 371 q 2531 474 2531 418 q 2636 661 2531 634 q 2666 664 2655 664 q 2702 656 2674 664 q 2753 672 2729 672 q 2862 515 2844 672 l 2862 472 l 2864 472 q 2900 512 2900 509 l 2900 520 q 2924 661 2902 661 l 2935 661 q 2959 632 2952 650 q 2935 393 2935 448 l 2935 390 q 2951 322 2938 328 q 3027 482 2982 345 q 3068 645 3060 590 q 3095 670 3079 670 q 3114 642 3114 663 q 3089 425 3089 540 q 3149 314 3089 314 q 3241 415 3210 339 l 3244 425 l 3252 425 q 3255 415 3252 419 l 3252 387 q 3255 355 3252 383 q 3252 352 3252 355 q 3288 333 3277 352 l 3288 306 q 3317 301 3307 301 q 3439 347 3393 307 q 3456 379 3456 367 l 3456 382 q 3296 436 3456 422 q 3195 507 3195 459 l 3195 510 q 3358 632 3195 573 q 3475 651 3417 651 l 3488 651 q 3548 610 3548 646 l 3548 591 q 3515 561 3548 569 l 3507 561 q 3483 580 3491 561 l 3486 596 q 3469 604 3483 604 l 3437 604 q 3271 548 3351 604 q 3258 526 3259 534 q 3439 463 3258 491 q 3518 396 3518 444 l 3521 396 q 3600 629 3521 513 q 3665 672 3637 672 q 3727 621 3727 664 l 3727 599 q 3684 447 3727 533 q 3589 339 3661 396 l 3589 333 q 3646 309 3605 309 q 3781 472 3725 309 l 3792 472 l 3792 458 q 3754 322 3792 413 q 3627 246 3699 246 q 3524 336 3551 246 l 3518 377 l 3515 377 q 3429 293 3515 339 q 3290 255 3351 255 l 3279 255 q 3217 287 3239 255 q 3133 249 3175 249 q 3049 417 3049 249 l 3046 417 q 2946 255 2998 255 l 2943 255 q 2897 341 2897 265 l 2897 371 q 2900 431 2897 390 q 2848 385 2891 419 q 2693 252 2808 252 q 2579 314 2632 252 l 2579 317 l 2577 317 q 2528 206 2577 271 q 2474 187 2499 187 q 2400 306 2430 187 q 2376 653 2376 400 l 2376 773 l 2373 773 q 2278 314 2278 409 q 2240 225 2265 225 q 2211 311 2217 225 l 2200 455 l 2202 461 q 2197 477 2197 470 l 2197 496 q 2200 499 2197 499 l 2197 504 q 2186 751 2192 704 l 2183 751 q 2099 447 2154 713 q 2078 265 2078 325 l 2059 249 l 2053 249 q 2029 320 2029 249 q 2018 583 2026 567 q 2021 607 2021 598 l 2021 642 q 1996 661 1996 642 l 1996 708 q 1999 743 1996 725 q 1988 876 1988 828 q 2012 895 1996 895 q 2056 865 2056 888 l 2056 862 q 2061 507 2056 767 l 2061 504 l 2064 504 q 2151 811 2099 673 q 2194 851 2172 851 q 2230 759 2230 851 l 2230 634 q 2243 409 2230 548 l 2246 409 q 2352 849 2292 669 l 2368 892 q 2390 906 2381 906 m 572 781 q 613 746 613 775 l 613 740 q 583 702 609 702 l 575 702 q 548 737 551 702 l 548 743 q 572 781 548 771 m 1386 518 q 1402 499 1399 518 l 1397 428 q 1489 561 1457 462 q 1494 591 1494 572 l 1494 610 q 1470 637 1491 637 q 1402 558 1445 637 q 1386 518 1402 554 m 2685 510 q 2761 436 2685 456 l 2783 436 q 2824 461 2824 436 l 2824 504 q 2769 615 2824 582 l 2756 615 q 2726 591 2740 615 q 2685 510 2685 567 m 3567 423 l 3567 401 q 3572 396 3568 396 q 3678 534 3643 436 l 3686 577 q 3667 615 3686 604 l 3665 615 q 3575 491 3619 615 q 3567 423 3567 472 m 2571 474 l 2571 469 q 2661 320 2571 377 q 2691 311 2682 311 l 2712 311 q 2794 374 2756 311 l 2794 377 l 2778 377 q 2748 374 2766 377 q 2639 526 2639 404 q 2664 594 2639 548 l 2664 596 q 2653 599 2657 596 q 2585 542 2608 599 q 2571 474 2571 517 m 1120 482 q 1163 455 1146 455 q 1258 567 1207 455 l 1258 572 q 1231 585 1252 585 q 1133 504 1161 558 l 1120 482 m 1074 496 l 1074 491 l 1077 491 l 1077 496 l 1074 496 "},"":{"x_min":0,"x_max":0,"ha":733},"˜":{"x_min":0,"x_max":0,"ha":695},"Ó":{"x_min":0,"x_max":0,"ha":1095},"k":{"x_min":0,"x_max":1158.40625,"ha":1209,"o":"m 577 1272 q 642 1177 621 1272 q 689 1147 642 1159 q 754 1169 720 1169 l 765 1169 q 797 1155 781 1169 q 822 1161 815 1161 l 838 1161 q 881 1139 858 1161 q 984 1174 928 1174 q 1125 1087 1084 1174 q 1128 1063 1128 1072 l 1128 1044 q 1036 941 1128 986 q 992 933 1007 933 l 971 933 q 925 944 950 933 l 925 941 q 944 854 944 899 l 944 822 q 1044 859 989 859 q 1152 794 1118 859 q 1158 773 1158 784 l 1158 740 q 1052 613 1158 667 q 995 602 1019 602 l 973 602 q 992 507 986 578 l 990 493 q 1006 444 998 482 q 1077 358 1077 379 l 1077 349 q 1033 311 1077 316 q 933 366 994 311 l 930 366 q 919 263 922 314 q 987 198 987 236 l 987 189 q 884 130 967 130 q 930 143 884 133 q 979 195 979 169 q 914 246 959 246 q 873 208 898 208 l 868 208 q 816 271 829 208 l 816 274 l 713 279 q 743 203 743 248 l 743 200 q 572 10 743 88 q 501 0 529 0 l 472 0 q 287 97 358 0 q 279 127 279 118 q 187 116 240 116 q 2 195 40 116 l 0 222 l 0 230 q 184 371 0 333 q 230 453 184 407 l 230 455 q 217 493 217 480 l 217 501 q 293 556 217 524 q 374 637 308 564 q 507 699 467 699 l 507 721 q 477 832 507 760 q 469 906 469 882 q 491 1003 469 952 q 485 1060 485 1037 l 485 1098 q 558 1272 485 1237 l 577 1272 m 539 1182 l 539 1161 l 542 1161 l 542 1182 l 539 1182 m 629 1112 q 642 1082 640 1096 q 632 1041 637 1049 l 634 1041 q 705 1068 667 1068 l 713 1068 l 713 1098 q 718 1104 714 1104 q 784 998 718 1028 l 792 998 q 808 1022 808 1007 q 778 1155 793 1155 q 762 1161 769 1161 l 759 1161 q 632 1112 735 1161 l 629 1112 m 542 1158 l 542 1147 l 545 1147 l 545 1158 l 542 1158 m 800 1147 l 819 1025 q 800 995 811 995 q 851 954 815 954 q 873 1049 873 954 q 881 1106 877 1049 q 819 1152 881 1146 l 800 1147 m 569 1120 q 594 1125 582 1125 q 618 1117 618 1122 q 675 1144 666 1135 q 634 1150 649 1150 q 569 1120 597 1150 m 892 1117 l 892 1090 l 876 960 l 878 960 q 914 1006 906 960 q 938 1071 938 1056 l 938 1077 q 892 1117 938 1104 m 531 1085 l 529 1079 l 531 1079 l 534 1085 l 531 1085 m 526 1077 l 526 1071 l 529 1071 l 529 1077 l 526 1077 m 634 1033 l 634 1028 q 640 1022 635 1022 q 678 1044 640 1035 l 697 1044 q 699 1039 697 1039 q 659 1003 695 1024 l 653 1003 q 691 1036 654 1007 l 691 1039 l 689 1039 q 645 1025 678 1039 q 653 1011 653 1016 q 648 995 653 1007 q 651 971 651 980 l 651 963 l 648 944 l 645 944 q 626 1022 645 976 q 569 968 592 968 l 564 968 q 518 1017 526 968 l 515 1017 q 482 914 482 972 l 482 878 q 553 699 482 814 q 542 672 542 680 l 542 670 q 602 632 542 649 q 634 618 613 618 q 661 648 643 619 l 661 640 l 664 640 q 727 691 678 691 q 748 689 737 689 q 751 718 751 707 q 710 846 751 772 q 884 927 736 871 q 906 954 906 941 q 903 957 903 954 q 881 952 893 952 l 873 952 l 868 954 q 851 946 865 946 l 838 946 q 792 990 812 946 l 786 990 l 770 992 q 737 979 746 979 l 737 984 q 759 998 747 984 q 732 1025 756 998 q 678 1001 714 1020 l 678 1003 q 727 1030 690 1018 l 727 1033 q 716 1060 716 1053 l 708 1060 q 634 1033 677 1060 m 642 1014 l 642 1009 l 645 1009 l 645 1014 l 642 1014 m 675 995 q 718 984 696 995 l 718 971 q 713 965 718 965 l 710 965 q 667 987 710 987 l 661 987 l 661 992 l 675 995 m 661 971 l 664 971 q 691 957 680 957 l 708 957 l 708 952 l 694 949 q 661 965 674 949 l 661 971 m 561 775 l 564 775 q 642 659 600 775 l 642 648 q 626 634 642 634 q 564 664 621 634 l 558 664 l 558 670 q 567 694 567 680 q 553 765 567 701 q 561 775 557 775 m 846 667 l 887 656 l 887 659 q 881 697 881 668 q 846 667 846 669 m 585 664 q 634 642 619 642 q 621 686 634 674 q 585 664 585 675 m 301 510 l 298 510 l 298 518 q 311 558 299 535 l 309 558 q 236 515 247 515 q 358 385 301 420 l 363 385 l 368 404 q 314 474 314 446 q 371 412 344 434 l 377 412 l 382 415 l 382 412 q 368 368 368 382 q 453 363 440 366 q 499 366 474 366 l 539 366 q 561 360 551 366 l 558 387 l 558 393 q 615 523 558 437 q 539 648 615 585 q 461 672 504 672 q 317 548 373 642 q 301 510 301 517 m 447 659 l 461 659 q 466 653 466 658 l 466 648 q 390 572 466 615 l 374 572 q 368 577 368 572 l 368 583 q 447 659 368 626 m 377 580 l 382 580 q 458 642 418 590 l 458 651 l 453 651 q 377 594 425 650 l 377 580 m 927 640 l 927 637 l 933 634 l 933 637 l 927 640 m 941 632 l 941 629 l 946 626 l 946 629 l 941 632 m 949 626 l 949 623 l 957 618 l 957 621 l 949 626 m 531 626 q 548 613 543 623 l 548 596 q 480 523 548 562 l 463 520 q 442 542 442 522 q 510 623 442 581 q 531 626 524 626 m 450 545 q 463 529 450 534 q 539 596 496 529 q 542 604 539 599 q 534 615 538 615 l 526 615 q 450 545 483 615 m 697 599 l 697 596 l 702 596 l 702 599 l 697 599 m 705 591 l 705 588 q 775 561 761 561 l 778 561 q 843 575 837 561 q 729 596 777 596 q 705 591 722 596 m 648 564 l 648 558 q 713 493 648 516 q 732 491 716 491 l 737 491 l 759 510 l 759 507 q 648 387 759 488 q 637 366 638 366 q 667 344 637 347 q 773 393 691 344 q 797 401 786 393 q 830 295 826 401 q 870 217 830 225 l 873 217 q 906 257 906 232 q 922 379 914 335 l 933 379 q 1028 325 1003 325 l 1041 325 q 1068 355 1064 325 q 995 442 1068 369 l 984 461 l 987 461 l 992 458 l 992 461 q 938 531 986 490 l 938 529 q 946 477 946 512 l 946 466 l 944 466 q 933 531 938 466 q 935 534 935 531 q 857 558 895 558 l 851 558 q 784 550 830 558 q 689 585 758 550 l 670 585 q 648 564 648 585 m 862 572 l 862 569 q 976 512 920 569 q 979 510 976 510 l 979 520 q 897 575 963 575 l 881 575 l 862 572 m 873 545 l 876 545 l 876 542 q 838 507 847 507 l 838 510 q 873 545 838 524 m 903 545 l 908 542 q 889 474 901 474 l 887 474 l 887 477 q 903 545 903 539 m 569 382 q 575 339 575 352 q 548 325 554 325 q 656 306 548 309 q 811 287 687 287 q 816 284 811 284 q 803 390 816 364 q 705 344 789 390 q 659 333 685 333 q 626 366 626 341 q 724 477 626 392 l 727 482 q 642 534 662 482 q 569 382 569 451 m 225 507 l 225 499 q 241 461 225 478 q 255 472 255 468 q 227 507 239 501 l 225 507 m 352 377 q 298 322 352 347 q 257 317 272 317 l 244 317 q 295 298 260 298 l 303 298 q 382 339 352 298 q 355 377 355 361 l 352 377 m 371 360 q 415 339 371 354 q 423 358 423 352 l 420 358 q 371 360 382 360 m 13 236 l 13 225 q 132 132 13 149 l 187 127 q 279 146 279 132 q 347 222 279 188 q 417 241 379 236 l 417 244 q 401 276 401 265 l 401 295 q 412 330 401 309 l 393 336 l 390 336 q 295 287 364 287 q 284 290 289 287 l 282 290 l 282 287 q 320 263 305 280 l 320 260 q 162 320 199 320 l 162 322 l 181 322 q 241 306 193 322 q 195 341 241 311 q 184 358 195 349 q 40 293 83 338 q 13 236 13 257 m 518 358 q 510 330 518 356 l 512 330 q 567 347 567 335 q 548 358 562 358 l 518 358 m 507 317 l 507 314 q 526 309 515 314 q 534 311 531 311 q 526 320 534 316 q 507 317 515 317 m 556 306 l 553 301 q 572 276 572 301 l 572 263 q 472 227 559 227 l 472 225 q 529 214 513 214 q 615 260 602 214 l 615 263 q 558 306 615 299 l 556 306 m 607 301 q 626 263 626 282 l 626 257 q 539 206 626 214 l 526 206 l 526 203 q 591 170 551 203 l 585 170 q 423 219 535 198 l 420 219 l 420 222 l 444 222 l 461 219 l 463 219 l 463 222 l 434 238 q 293 149 293 200 l 293 130 q 398 27 293 75 q 485 10 430 16 q 713 141 623 10 q 729 206 729 177 l 729 208 q 667 290 729 266 q 607 301 634 298 "},"ˇ":{"x_min":0,"x_max":0,"ha":695},"Ù":{"x_min":0,"x_max":0,"ha":1018},"€":{"x_min":0,"x_max":0,"ha":688},"¢":{"x_min":0,"x_max":0,"ha":773},"ß":{"x_min":0,"x_max":0,"ha":848},"é":{"x_min":0,"x_max":0,"ha":617},"s":{"x_min":0,"x_max":1212.65625,"ha":1245,"o":"m 927 1310 q 1039 1215 1009 1310 l 1044 1180 q 1039 1142 1041 1145 q 1147 1058 1108 1120 q 1171 960 1171 1007 l 1171 930 q 1169 906 1171 921 q 1180 873 1180 887 l 1180 851 l 1177 838 q 1212 789 1212 792 l 1212 754 q 992 629 1212 713 q 876 556 921 594 l 876 553 q 819 374 876 470 l 822 374 q 884 317 868 349 q 903 284 897 317 l 903 282 q 887 246 903 265 q 1009 238 887 242 q 1115 119 1115 203 q 960 0 1115 32 l 903 0 q 675 81 816 0 q 623 146 626 124 q 415 86 508 86 q 195 187 262 86 q 187 225 187 210 q 192 255 187 231 l 179 255 q 5 290 50 255 q 0 306 0 299 q 75 339 0 339 l 84 339 l 84 333 l 78 333 q 10 309 26 333 l 10 301 q 146 268 38 268 l 203 268 q 336 333 248 333 l 344 333 q 401 328 367 333 l 401 341 q 455 387 401 368 q 472 406 455 406 q 626 523 564 436 q 659 583 657 565 l 656 583 q 496 545 594 583 l 496 531 q 561 488 550 531 l 561 474 q 488 428 544 428 l 466 428 q 412 444 440 428 q 311 428 379 428 q 295 425 311 425 l 276 425 q 168 349 200 349 q 146 341 168 344 q 105 401 105 350 l 105 412 l 108 444 q 65 425 84 425 l 56 425 q 29 458 35 425 q 141 569 29 522 q 293 591 201 591 l 330 591 q 412 613 347 606 q 642 667 570 667 q 618 724 638 695 q 596 835 596 768 l 596 859 l 599 865 q 534 846 562 846 q 428 979 449 846 l 428 1017 q 534 1152 428 1117 l 553 1152 q 648 1074 619 1152 q 656 1020 653 1048 q 653 1009 653 1015 l 653 984 l 651 979 l 653 979 q 800 1060 727 1060 q 819 1079 813 1065 q 830 1085 826 1085 q 813 1163 813 1127 l 813 1177 q 900 1307 813 1266 l 927 1310 m 857 1047 q 900 1011 857 1022 q 995 1066 940 1011 l 995 1060 q 992 1047 992 1057 q 1001 1044 998 1044 q 1014 1068 1014 1065 l 1020 1068 l 968 957 q 963 927 963 943 q 984 897 963 908 q 1074 979 1015 950 q 1006 914 1074 975 q 992 881 992 899 l 992 876 q 1033 832 992 849 l 1041 832 l 1041 835 l 1025 838 l 1025 841 q 1090 854 1056 841 l 1090 851 q 1055 835 1090 843 l 1055 832 q 1090 827 1079 827 l 1098 827 q 1161 925 1146 827 q 1163 949 1161 939 q 1006 1144 1163 1096 q 979 1155 993 1155 q 914 1098 956 1155 q 857 1047 872 1071 m 800 987 q 748 1017 774 1017 l 743 1017 q 678 925 696 1017 q 672 876 672 911 l 672 849 q 691 754 672 795 q 648 686 648 719 q 756 607 648 638 q 781 604 767 604 l 781 610 l 786 610 q 808 591 786 595 q 878 623 834 592 l 881 623 l 878 618 l 878 615 q 1006 713 971 648 q 1011 743 1011 741 q 963 800 1011 779 q 965 803 963 803 q 906 1001 965 935 q 854 1030 854 1013 q 846 1052 853 1030 q 803 987 830 1052 l 800 987 m 982 1041 q 949 1017 969 1026 q 971 995 949 1013 l 995 1039 l 982 1041 m 843 963 l 854 963 q 887 884 887 938 l 887 857 q 878 808 887 837 q 908 797 908 804 l 876 800 l 868 800 q 762 762 819 800 l 762 765 q 784 784 774 784 q 754 865 754 819 l 754 889 q 781 938 754 933 q 822 832 810 938 l 822 808 l 819 803 l 822 803 l 841 805 q 824 889 824 851 l 824 908 q 843 963 824 952 m 832 903 l 832 859 l 835 859 q 838 884 835 874 l 846 884 q 859 854 855 884 l 859 841 l 857 827 l 849 827 l 841 832 l 841 830 q 854 808 850 808 l 868 808 q 878 865 876 808 l 878 868 q 849 957 878 935 q 832 903 832 944 m 762 884 l 762 870 q 792 789 762 821 q 813 816 813 794 l 813 830 l 811 830 q 803 816 811 816 l 800 816 q 789 841 789 819 l 789 857 q 797 873 791 873 l 803 873 q 808 862 808 873 l 811 862 l 811 868 q 781 930 797 921 q 762 884 762 921 m 1163 887 q 1106 819 1163 847 l 1079 819 q 1049 827 1068 819 l 1049 824 q 1087 794 1049 798 l 1104 794 q 1171 857 1171 808 l 1171 859 l 1169 887 l 1163 887 m 811 859 l 811 849 l 813 849 l 813 859 l 811 859 m 1028 824 l 1028 800 q 1020 759 1028 781 q 1022 748 1022 754 l 1022 740 l 1025 740 q 1085 775 1060 756 q 1055 794 1085 785 q 1039 822 1044 806 q 1028 824 1034 824 m 865 792 q 911 756 911 787 q 824 699 911 709 l 816 699 q 775 729 775 704 l 775 740 q 862 792 775 777 l 865 792 m 1096 756 l 1096 754 l 1101 751 l 1101 754 l 1096 756 m 849 637 l 854 629 q 824 607 843 607 l 811 607 l 811 618 q 849 637 811 630 m 349 591 l 349 588 q 455 534 455 560 l 461 531 l 488 531 q 398 599 488 583 l 390 599 q 349 591 379 599 m 870 594 l 870 575 l 873 575 l 873 594 l 870 594 m 670 585 l 670 583 l 691 583 l 691 585 l 670 585 m 244 558 l 244 561 q 274 577 259 577 l 274 580 l 263 580 q 51 491 124 580 q 40 453 40 464 q 51 436 46 436 l 62 436 q 132 501 109 436 q 181 542 167 542 q 116 404 116 482 q 138 352 116 365 l 160 352 l 160 355 q 141 387 141 375 l 141 404 q 241 526 141 488 l 257 529 l 260 529 l 260 526 q 184 482 229 524 q 149 393 149 438 q 173 363 151 363 q 284 447 194 363 q 317 461 309 461 l 287 434 l 298 434 l 311 436 l 311 439 q 303 444 303 439 q 344 439 337 439 q 401 450 358 439 l 401 453 q 393 469 393 463 q 463 439 430 439 l 480 439 q 553 485 553 448 q 447 523 553 523 q 431 531 446 529 l 431 537 l 450 534 q 371 572 407 572 q 298 556 356 572 q 352 577 298 567 l 352 580 q 322 583 346 580 q 244 558 302 583 m 659 558 q 477 396 612 451 l 466 396 l 466 393 q 548 311 466 354 q 594 301 573 301 l 602 301 q 623 309 622 301 q 567 322 616 309 l 567 325 l 572 325 q 642 317 615 317 l 672 317 q 729 325 701 317 q 697 311 729 316 l 697 306 l 702 306 l 702 303 l 691 303 q 651 306 685 303 q 680 287 666 287 q 838 336 714 287 q 854 344 854 339 q 808 366 817 366 q 794 352 808 362 l 792 352 q 865 531 857 449 l 862 531 q 770 499 816 499 l 767 499 q 667 550 702 499 q 664 558 664 556 l 659 558 m 702 501 q 724 469 724 491 q 667 382 707 382 l 664 382 q 637 420 637 382 q 683 499 637 461 q 702 501 694 501 m 645 412 q 667 390 649 390 l 670 390 q 713 474 713 422 l 713 482 q 702 493 713 486 q 645 412 664 493 m 819 491 q 830 480 823 491 l 830 466 q 778 385 817 385 q 759 409 759 391 q 808 491 759 465 l 819 491 m 767 412 l 767 404 q 781 393 773 393 q 822 463 822 423 q 824 466 824 463 q 816 482 821 482 q 767 412 785 482 m 857 336 l 857 333 q 865 330 859 333 l 865 333 l 859 336 l 857 336 m 198 222 q 349 105 198 147 q 417 100 390 100 q 623 162 520 100 q 664 214 623 186 l 664 217 q 604 284 664 250 q 537 249 586 249 l 523 249 q 472 257 488 249 l 469 257 l 469 255 q 507 219 477 255 l 507 217 q 387 298 474 244 l 393 298 q 444 274 406 293 q 404 314 444 291 q 349 325 395 320 q 206 255 257 325 q 198 222 198 232 m 613 290 q 667 244 643 280 l 675 225 q 713 257 682 225 q 781 284 781 274 q 751 293 771 284 q 691 279 712 279 l 678 279 q 640 306 655 279 l 632 306 q 613 290 613 293 m 567 295 q 515 276 554 276 q 444 290 486 276 q 526 257 444 263 q 599 293 587 257 q 567 295 575 293 m 699 230 l 699 225 q 773 189 699 196 l 789 189 q 859 225 834 189 l 857 225 q 794 208 828 208 l 789 208 q 737 230 752 208 l 737 244 l 751 260 q 699 230 699 245 m 876 238 q 781 179 848 179 q 689 219 717 179 q 634 157 634 187 q 830 24 634 92 q 908 10 876 10 l 935 10 q 1096 92 1043 10 q 1104 122 1100 105 q 1003 227 1104 190 q 876 238 912 233 m 933 217 l 935 217 l 935 214 q 786 143 845 190 l 784 143 q 892 211 796 173 q 933 217 918 217 "},"B":{"x_min":0,"x_max":1950.5625,"ha":2014,"o":"m 862 1633 q 1152 1492 1031 1633 q 1220 1291 1220 1403 l 1220 1280 q 1158 1096 1220 1182 l 1163 1096 q 1519 927 1342 1096 q 1660 610 1660 763 l 1660 569 l 1657 537 l 1679 537 q 1700 613 1684 537 q 1825 718 1741 718 q 1939 651 1901 718 q 1950 604 1950 623 l 1950 553 q 1850 374 1950 463 q 1809 244 1839 300 q 1578 40 1735 103 q 1435 16 1497 16 l 1397 16 q 1315 24 1348 16 q 1250 0 1288 0 l 1201 0 q 1093 37 1162 0 q 914 73 994 48 q 751 181 780 128 q 648 406 685 247 l 645 406 q 401 255 537 255 l 374 255 q 67 447 210 255 q 0 667 0 560 q 154 935 0 845 q 301 968 225 968 q 556 830 423 968 q 634 702 617 752 l 637 702 q 721 881 647 758 q 859 1014 809 996 l 859 1017 q 632 1133 746 1017 q 564 1299 564 1225 q 561 1332 561 1299 l 561 1348 q 713 1597 561 1507 q 862 1633 780 1633 m 1071 800 q 1161 472 1071 654 l 1185 434 l 1182 434 q 914 539 1030 539 q 729 409 784 539 q 716 336 716 372 q 987 67 716 156 q 1082 51 1065 51 q 1055 92 1055 78 l 1055 94 q 1228 10 1137 10 q 1294 24 1262 10 l 1294 27 q 1082 119 1155 52 q 987 314 987 213 l 987 320 l 990 347 q 887 322 967 347 l 887 325 q 1022 368 923 368 q 1125 336 1095 368 l 1123 336 q 1003 347 1055 347 l 1003 317 q 1185 75 1003 166 q 1426 32 1289 32 q 1757 192 1616 32 q 1823 349 1823 289 l 1823 360 q 1774 347 1804 351 q 1673 431 1699 347 l 1673 472 q 1679 515 1673 484 l 1676 515 q 1521 455 1628 514 l 1521 458 q 1543 482 1534 482 q 1535 653 1538 531 q 1559 708 1547 708 l 1568 708 q 1622 564 1614 708 q 1619 526 1619 541 l 1622 526 q 1638 550 1638 526 q 1641 588 1641 573 q 1549 859 1641 726 q 1502 908 1507 908 q 1483 832 1490 834 q 1291 1049 1414 995 q 1247 1055 1260 1055 q 1085 897 1135 1055 q 1071 800 1074 857 m 1399 786 q 1502 602 1474 786 q 1505 558 1502 579 q 1462 439 1505 465 l 1443 439 q 1361 613 1384 439 q 1356 705 1356 692 q 1399 786 1363 786 m 1421 759 q 1432 705 1432 732 l 1432 702 q 1399 642 1432 642 l 1397 642 q 1378 651 1388 642 l 1378 645 q 1451 453 1395 453 q 1486 556 1482 453 l 1486 558 q 1426 759 1486 689 l 1421 759 m 1587 670 q 1554 615 1587 615 l 1554 583 q 1557 496 1554 554 q 1603 529 1603 516 q 1606 577 1606 554 l 1606 580 q 1589 670 1606 623 l 1587 670 "},"…":{"x_min":0,"x_max":0,"ha":1389},"?":{"x_min":0,"x_max":0,"ha":507},"H":{"x_min":0,"x_max":1581.609375,"ha":1611,"o":"m 1166 1644 l 1190 1644 q 1524 1445 1361 1644 q 1581 1291 1581 1351 l 1581 1228 q 1473 1030 1581 1131 q 1291 968 1381 968 l 1242 973 q 1394 596 1394 800 q 1391 548 1391 564 q 1405 477 1401 522 q 1218 187 1405 328 q 1144 146 1185 163 q 1022 21 1108 65 q 944 0 980 0 l 903 0 q 675 122 808 0 q 415 236 550 139 q 287 447 287 347 q 311 526 287 487 q 301 615 301 571 l 301 637 q 412 930 301 799 l 374 930 q 46 1112 166 930 q 0 1280 0 1197 q 165 1530 0 1449 q 303 1557 244 1557 q 542 1456 433 1557 q 667 1182 667 1329 q 653 1109 667 1153 q 878 1147 755 1147 q 998 1131 942 1147 l 998 1133 q 903 1370 903 1248 q 1085 1630 903 1557 q 1166 1644 1126 1644 m 710 968 l 705 968 q 637 1071 693 1071 q 482 963 579 1068 q 406 737 406 855 q 444 577 406 661 l 442 577 q 309 455 309 548 q 491 211 309 337 q 661 146 568 167 l 661 149 q 648 162 658 149 l 648 165 q 735 100 663 165 q 919 18 830 18 q 1147 198 1070 18 q 1155 217 1149 217 l 1155 211 q 1147 168 1155 200 l 1150 168 q 1380 477 1380 320 q 1258 637 1380 592 q 1215 642 1227 642 q 1115 613 1176 642 q 1147 773 1147 687 q 995 1087 1147 961 q 878 1125 932 1125 q 710 968 784 1125 m 846 800 q 878 778 878 794 l 876 778 q 841 784 851 784 q 767 724 809 784 l 767 727 q 803 784 767 750 q 846 800 815 794 m 623 773 l 632 773 q 680 727 680 765 l 675 727 q 634 759 655 759 l 626 759 q 591 737 613 759 l 588 737 l 588 740 q 623 773 600 773 m 849 751 l 857 751 q 906 710 906 751 l 903 710 q 849 729 877 729 q 778 686 809 729 l 773 686 l 773 689 q 849 751 800 751 m 629 716 l 651 716 q 694 678 678 716 l 691 678 q 637 699 657 699 q 599 664 613 699 l 594 664 l 594 683 q 629 716 594 706 m 908 689 l 911 689 q 851 653 898 653 l 838 653 l 824 656 l 824 661 l 830 661 q 908 689 878 661 m 672 656 l 672 648 q 613 621 652 621 l 607 621 q 577 634 587 621 l 577 640 q 613 632 591 632 q 672 656 643 632 m 797 648 q 914 623 853 648 l 914 618 q 797 632 857 629 q 585 553 672 632 l 585 558 q 797 648 645 648 m 781 613 l 792 613 q 919 553 885 613 q 927 526 927 539 l 927 504 q 803 406 927 438 q 751 401 781 401 l 732 401 q 599 485 617 401 l 599 504 q 729 607 599 575 q 781 613 751 613 m 1117 531 l 1128 531 q 1247 472 1199 531 l 1250 458 l 1250 455 q 1196 496 1226 479 q 1131 374 1190 453 q 1087 165 1115 202 q 916 56 1026 56 q 632 290 778 56 q 491 366 577 301 l 466 393 q 425 352 461 393 l 425 358 q 507 442 425 410 q 523 444 521 444 l 539 442 l 539 436 q 477 404 488 421 q 811 274 630 274 q 1117 396 994 274 q 1180 501 1164 451 q 1093 520 1128 520 q 1117 531 1096 531 m 933 154 l 927 154 q 938 189 927 157 l 922 189 q 827 146 878 189 q 808 113 808 130 q 914 78 862 78 q 1085 200 1026 78 q 1093 233 1085 206 q 1055 241 1075 241 q 933 154 994 241 "},"î":{"x_min":0,"x_max":0,"ha":349},"c":{"x_min":0,"x_max":1703.703125,"ha":1718,"o":"m 697 1649 q 990 1478 897 1649 q 1011 1378 1011 1423 l 1011 1367 q 841 1098 1011 1208 l 841 1096 q 1101 987 1005 1065 q 1139 946 1139 953 l 1142 946 l 1142 954 q 1139 963 1142 963 l 1142 976 l 1142 984 q 1275 1245 1142 1136 q 1435 1296 1348 1296 q 1652 1174 1572 1296 q 1703 1014 1703 1089 l 1703 935 q 1595 718 1703 831 q 1410 651 1505 651 l 1405 651 q 1272 691 1336 651 l 1269 691 q 1280 594 1280 644 l 1280 569 q 1139 198 1280 370 q 1077 135 1077 140 q 1017 32 1060 62 q 919 0 965 0 l 862 0 q 754 21 809 0 q 689 5 720 5 l 664 5 q 613 16 637 5 q 526 0 566 0 l 447 0 q 225 86 339 0 q 160 179 173 141 q 37 260 114 179 q 0 363 0 316 l 0 366 q 111 491 0 451 l 127 491 q 255 393 191 491 l 257 393 q 274 406 274 403 q 230 577 230 487 l 230 607 q 415 976 230 815 q 607 1068 535 1057 l 607 1071 q 439 1150 491 1095 q 366 1318 366 1224 l 366 1340 q 504 1592 366 1484 q 697 1649 588 1649 m 336 759 l 333 759 q 298 797 333 777 q 249 594 249 701 q 290 412 249 497 q 309 423 309 419 q 265 548 265 474 l 265 556 q 293 621 265 602 l 309 621 q 371 510 329 621 q 406 425 402 429 q 461 401 432 425 l 461 398 q 377 412 425 412 q 268 374 310 412 q 311 274 311 328 q 200 168 311 183 l 192 168 q 333 51 227 93 q 496 21 411 21 q 908 268 743 21 q 982 501 982 395 q 900 461 965 501 l 900 463 q 998 520 938 520 l 1017 520 q 1060 499 1040 520 l 1060 496 q 1009 504 1026 504 l 998 504 l 987 393 q 1020 219 987 383 q 1022 189 1022 219 l 1022 176 q 919 46 1022 79 q 873 40 897 40 l 857 40 q 740 70 807 40 q 648 29 661 29 l 648 27 l 661 24 l 708 24 q 743 29 718 24 l 743 32 l 740 37 l 743 37 q 873 16 833 16 l 884 16 q 1049 122 1002 16 q 1079 290 1060 164 q 1090 303 1086 303 l 1090 301 q 1079 165 1085 193 q 1204 339 1172 258 q 1250 482 1250 444 q 1161 642 1250 571 q 1066 670 1112 670 l 1036 670 q 770 518 883 670 l 770 512 l 765 512 l 767 526 q 613 973 767 834 q 531 1001 571 1001 l 529 1001 q 374 881 453 1001 q 336 759 346 832 m 434 773 q 531 564 485 773 q 539 482 539 504 q 515 425 539 441 l 496 425 q 385 596 424 425 q 379 659 379 626 l 379 670 q 434 773 387 773 m 398 672 l 398 640 q 488 439 398 507 l 491 439 l 491 442 q 466 512 476 442 q 488 567 466 548 l 491 567 q 515 556 501 567 q 428 756 474 756 q 398 672 403 756 m 295 607 q 279 558 279 590 q 325 423 279 486 l 344 425 l 352 425 l 352 428 q 341 472 341 448 l 341 485 q 360 496 341 494 q 295 607 321 607 m 982 290 q 927 157 927 248 l 930 138 q 911 181 918 138 q 865 154 894 181 q 835 92 835 119 l 835 67 q 876 56 835 56 q 1001 141 965 56 q 1006 181 1006 166 l 1006 189 q 984 290 1006 233 l 982 290 "},"¶":{"x_min":0,"x_max":0,"ha":695},"−":{"x_min":0,"x_max":0,"ha":688},"•":{"x_min":0,"x_max":0,"ha":695},"¥":{"x_min":0,"x_max":0,"ha":856},"(":{"x_min":0,"x_max":0,"ha":514},"U":{"x_min":0,"x_max":3792.625,"ha":3869,"o":"m 1161 1060 q 1215 1044 1215 1057 q 1220 1020 1220 1026 l 1220 984 q 1223 954 1220 973 q 1090 567 1147 631 q 1077 501 1077 543 l 1077 499 l 1079 499 q 1109 553 1095 553 q 1196 642 1138 619 q 1245 656 1216 653 q 1299 610 1284 656 l 1299 577 q 1215 409 1299 506 q 1182 390 1194 404 q 1264 339 1230 339 l 1272 339 q 1332 374 1298 339 l 1329 393 l 1329 396 q 1424 667 1329 548 q 1473 694 1452 691 q 1538 645 1538 684 l 1538 629 q 1426 379 1538 501 q 1397 358 1412 373 q 1454 330 1407 333 l 1459 330 q 1568 442 1526 330 q 1589 680 1574 680 q 1603 694 1589 684 l 1608 694 q 1633 664 1625 682 q 1606 396 1606 468 q 1619 328 1609 329 q 1668 425 1629 328 q 1722 621 1700 499 q 1768 716 1722 659 l 1782 716 q 1798 691 1798 708 l 1798 689 q 1790 637 1798 679 q 1793 591 1793 609 q 1768 412 1783 591 q 1747 157 1755 355 l 1749 151 l 1747 135 l 1747 111 q 1755 43 1747 56 q 1744 0 1752 0 l 1722 0 q 1709 59 1711 0 l 1709 132 q 1738 507 1709 231 l 1738 510 l 1736 510 q 1638 268 1670 268 q 1614 260 1638 262 l 1597 260 q 1568 349 1568 284 l 1565 349 q 1435 268 1519 268 q 1353 317 1378 268 l 1351 317 q 1280 265 1333 283 l 1264 265 q 1101 415 1176 265 l 1098 415 q 1082 333 1087 383 q 1090 306 1085 306 q 1071 255 1090 263 l 1055 255 q 1033 311 1047 255 q 1028 317 1028 311 q 1033 336 1030 336 l 1028 374 q 895 282 954 282 l 884 282 q 800 347 827 282 l 797 347 q 721 265 776 297 l 689 260 q 585 317 636 260 q 493 206 556 206 q 387 664 387 206 q 390 792 390 730 l 390 797 l 387 797 q 293 358 322 567 q 260 246 280 246 l 246 246 q 214 488 223 246 q 208 501 211 488 q 211 510 208 504 q 198 773 203 749 q 105 431 160 718 q 92 301 92 338 l 92 290 q 65 268 78 268 l 59 268 q 40 423 40 268 q 32 621 37 548 q 35 659 32 625 q 8 678 8 666 q 10 759 8 690 l 0 887 q 29 914 0 914 q 67 884 67 906 q 70 859 70 874 l 70 803 q 75 523 70 617 l 78 523 q 157 813 113 695 q 208 870 179 870 q 241 816 236 870 l 241 699 q 255 425 241 599 l 257 425 q 371 878 320 758 q 404 925 377 925 q 428 892 428 916 q 431 870 428 885 l 425 621 q 474 282 425 387 q 496 271 486 271 q 553 349 523 271 l 561 377 q 542 482 548 408 q 585 661 550 661 q 607 640 600 657 q 588 510 607 592 q 585 469 585 476 q 699 328 617 328 q 784 398 746 328 q 778 458 778 421 q 873 713 778 618 q 916 729 889 725 l 927 727 q 949 729 942 729 q 1001 642 969 729 l 1001 640 q 982 583 1001 611 l 968 583 q 949 637 957 583 q 914 667 929 667 q 827 550 865 667 q 819 510 824 545 l 824 442 q 822 434 822 436 q 895 344 838 344 q 1017 439 954 344 q 1025 455 1020 455 l 1022 480 q 1106 968 1022 720 q 1161 1060 1133 1027 m 1068 626 l 1068 623 l 1071 623 q 1147 811 1117 710 q 1180 984 1180 940 l 1177 998 q 1090 778 1150 998 q 1068 626 1082 733 m 2390 906 q 2417 873 2417 895 q 2414 591 2417 812 q 2466 257 2414 348 q 2476 252 2470 257 l 2482 252 q 2550 368 2522 252 l 2550 371 q 2531 474 2531 418 q 2636 661 2531 634 q 2666 664 2655 664 q 2702 656 2674 664 q 2753 672 2729 672 q 2862 515 2844 672 l 2862 472 l 2864 472 q 2900 512 2900 509 l 2900 520 q 2924 661 2902 661 l 2935 661 q 2959 632 2952 650 q 2935 393 2935 448 l 2935 390 q 2951 322 2938 328 q 3027 482 2982 345 q 3068 645 3060 590 q 3095 670 3079 670 q 3114 642 3114 663 q 3089 425 3089 540 q 3149 314 3089 314 q 3241 415 3210 339 l 3244 425 l 3252 425 q 3255 415 3252 419 l 3252 387 q 3255 355 3252 383 q 3252 352 3252 355 q 3288 333 3277 352 l 3288 306 q 3317 301 3307 301 q 3439 347 3393 307 q 3456 379 3456 367 l 3456 382 q 3296 436 3456 422 q 3195 507 3195 459 l 3195 510 q 3358 632 3195 573 q 3475 651 3417 651 l 3488 651 q 3548 610 3548 646 l 3548 591 q 3515 561 3548 569 l 3507 561 q 3483 580 3491 561 l 3486 596 q 3469 604 3483 604 l 3437 604 q 3271 548 3351 604 q 3258 526 3259 534 q 3439 463 3258 491 q 3518 396 3518 444 l 3521 396 q 3600 629 3521 513 q 3665 672 3637 672 q 3727 621 3727 664 l 3727 599 q 3684 447 3727 533 q 3589 339 3661 396 l 3589 333 q 3646 309 3605 309 q 3781 472 3725 309 l 3792 472 l 3792 458 q 3754 322 3792 413 q 3627 246 3699 246 q 3524 336 3551 246 l 3518 377 l 3515 377 q 3429 293 3515 339 q 3290 255 3351 255 l 3279 255 q 3217 287 3239 255 q 3133 249 3175 249 q 3049 417 3049 249 l 3046 417 q 2946 255 2998 255 l 2943 255 q 2897 341 2897 265 l 2897 371 q 2900 431 2897 390 q 2848 385 2891 419 q 2693 252 2808 252 q 2579 314 2632 252 l 2579 317 l 2577 317 q 2528 206 2577 271 q 2474 187 2499 187 q 2400 306 2430 187 q 2376 653 2376 400 l 2376 773 l 2373 773 q 2278 314 2278 409 q 2240 225 2265 225 q 2211 311 2217 225 l 2200 455 l 2202 461 q 2197 477 2197 470 l 2197 496 q 2200 499 2197 499 l 2197 504 q 2186 751 2192 704 l 2183 751 q 2099 447 2154 713 q 2078 265 2078 325 l 2059 249 l 2053 249 q 2029 320 2029 249 q 2018 583 2026 567 q 2021 607 2021 598 l 2021 642 q 1996 661 1996 642 l 1996 708 q 1999 743 1996 725 q 1988 876 1988 828 q 2012 895 1996 895 q 2056 865 2056 888 l 2056 862 q 2061 507 2056 767 l 2061 504 l 2064 504 q 2151 811 2099 673 q 2194 851 2172 851 q 2230 759 2230 851 l 2230 634 q 2243 409 2230 548 l 2246 409 q 2352 849 2292 669 l 2368 892 q 2390 906 2381 906 m 572 781 q 613 746 613 775 l 613 740 q 583 702 609 702 l 575 702 q 548 737 551 702 l 548 743 q 572 781 548 771 m 1386 518 q 1402 499 1399 518 l 1397 428 q 1489 561 1457 462 q 1494 591 1494 572 l 1494 610 q 1470 637 1491 637 q 1402 558 1445 637 q 1386 518 1402 554 m 2685 510 q 2761 436 2685 456 l 2783 436 q 2824 461 2824 436 l 2824 504 q 2769 615 2824 582 l 2756 615 q 2726 591 2740 615 q 2685 510 2685 567 m 3567 423 l 3567 401 q 3572 396 3568 396 q 3678 534 3643 436 l 3686 577 q 3667 615 3686 604 l 3665 615 q 3575 491 3619 615 q 3567 423 3567 472 m 2571 474 l 2571 469 q 2661 320 2571 377 q 2691 311 2682 311 l 2712 311 q 2794 374 2756 311 l 2794 377 l 2778 377 q 2748 374 2766 377 q 2639 526 2639 404 q 2664 594 2639 548 l 2664 596 q 2653 599 2657 596 q 2585 542 2608 599 q 2571 474 2571 517 m 1120 482 q 1163 455 1146 455 q 1258 567 1207 455 l 1258 572 q 1231 585 1252 585 q 1133 504 1161 558 l 1120 482 m 1074 496 l 1074 491 l 1077 491 l 1077 496 l 1074 496 "},"Ñ":{"x_min":0,"x_max":0,"ha":1054},"F":{"x_min":0,"x_max":1652.15625,"ha":1702,"o":"m 1315 1568 q 1630 1337 1509 1568 q 1652 1245 1652 1279 l 1652 1190 q 1516 941 1652 1063 q 1342 878 1429 878 q 1283 889 1310 878 q 1389 556 1389 731 q 1291 271 1389 392 q 1253 208 1253 238 q 1150 111 1219 151 q 1090 84 1104 84 l 1093 70 l 1093 59 q 979 2 1093 2 q 870 13 938 2 q 803 0 829 0 l 713 0 q 417 70 579 0 q 314 195 314 128 l 314 206 q 347 287 314 239 q 274 510 274 402 l 274 523 q 271 534 274 529 q 274 545 274 539 l 274 553 q 358 816 274 677 l 355 816 q 260 797 298 797 l 225 797 q 43 911 122 797 q 0 1085 0 988 q 138 1389 0 1249 q 309 1454 224 1454 q 529 1296 458 1454 q 548 1193 548 1240 l 548 1163 q 515 998 548 1088 l 518 998 q 765 1087 583 1056 q 846 1093 825 1093 q 887 1090 880 1090 q 930 1106 912 1106 l 935 1106 q 1003 1082 963 1106 q 1049 1068 1036 1071 q 1003 1245 1003 1153 q 1093 1470 1003 1372 q 1315 1568 1188 1568 m 859 1063 q 827 1014 836 1039 l 830 1014 q 862 1063 835 1028 l 859 1063 m 1014 1063 l 1014 1060 q 1044 1014 1037 1039 l 1047 1014 l 1047 1017 q 1014 1063 1041 1041 m 789 794 q 851 629 851 740 q 857 569 857 629 q 824 398 857 478 l 827 398 q 873 368 861 387 l 870 368 q 702 401 784 401 q 526 366 619 401 q 585 404 526 381 q 529 599 529 477 q 548 716 529 659 q 499 914 499 824 l 499 916 q 390 634 390 793 l 390 626 q 461 339 390 510 q 339 211 339 286 q 569 35 339 111 q 743 10 668 10 l 778 10 q 854 16 807 10 l 854 18 q 835 29 835 24 l 838 29 q 954 18 904 18 l 976 18 q 1071 70 1071 18 q 1052 122 1071 81 q 1082 97 1070 114 q 1250 274 1250 177 l 1250 282 q 1096 382 1250 354 q 1017 387 1059 387 l 1009 387 l 990 385 l 990 387 q 1063 683 1063 526 q 960 1001 1063 871 q 927 1017 935 1017 q 822 887 892 1017 q 789 794 803 843 m 558 694 q 548 610 548 657 l 548 596 q 604 409 548 469 l 607 409 q 651 431 651 409 q 656 493 656 477 l 656 507 q 653 553 656 521 l 640 550 l 637 550 q 583 651 598 550 q 561 694 572 668 l 558 694 m 756 691 q 727 569 737 592 q 770 412 736 412 q 808 404 782 412 q 841 580 841 492 q 838 613 838 594 l 838 626 l 819 623 q 767 675 792 623 q 756 691 761 691 m 653 656 l 651 629 q 656 599 651 626 l 659 599 q 656 656 656 608 l 653 656 m 667 567 q 672 501 672 532 l 672 474 q 664 417 672 442 l 735 417 q 710 537 710 484 l 710 553 l 702 553 q 667 567 686 553 m 672 366 q 838 284 811 358 q 841 271 841 280 l 841 263 q 710 170 841 196 q 675 168 697 168 l 667 168 q 520 219 575 168 q 501 268 501 239 l 501 271 q 613 358 501 330 q 672 366 625 362 m 914 92 l 922 92 q 992 56 992 86 l 992 54 q 954 40 992 43 q 868 73 868 46 q 914 92 878 92 "},"­":{"x_min":0,"x_max":0,"ha":454},":":{"x_min":0,"x_max":0,"ha":378},"Û":{"x_min":0,"x_max":0,"ha":1018},"*":{"x_min":0,"x_max":0,"ha":695},"†":{"x_min":0,"x_max":0,"ha":688},"∕":{"x_min":0,"x_max":0,"ha":232},"°":{"x_min":0,"x_max":0,"ha":457},"V":{"x_min":0,"x_max":2132.328125,"ha":2167,"o":"m 1136 1247 l 1139 1247 q 1256 1237 1256 1239 q 1231 1033 1256 1207 l 1234 1033 q 1315 1125 1254 1059 l 1318 1125 q 1383 1079 1383 1082 l 1383 1077 l 1285 954 l 1285 952 q 1399 919 1399 925 q 1410 721 1407 747 l 1407 721 q 1321 737 1321 735 q 1294 868 1296 862 q 1226 884 1266 876 q 1223 767 1223 792 q 1207 743 1223 743 l 1112 721 q 1136 1247 1136 1219 m 198 1239 l 284 1049 q 401 1234 294 1056 l 526 1218 l 537 832 l 588 832 q 594 732 588 786 l 371 708 q 360 816 371 717 q 423 822 404 822 l 423 1052 l 420 1052 l 320 876 l 317 876 q 181 1047 306 884 l 168 1060 l 168 1058 q 195 868 189 916 l 198 868 q 246 862 204 868 l 246 759 q 211 756 245 759 q 40 754 181 756 q 35 849 37 840 q 92 862 42 849 l 70 1098 q 18 1087 23 1090 l 0 1193 l 198 1239 m 1047 1177 q 1052 1006 1052 1032 l 976 995 l 976 998 q 968 1047 976 1047 l 925 1047 q 919 878 925 992 l 949 878 l 954 876 l 954 927 q 1052 944 954 933 q 1058 797 1055 927 q 868 737 916 751 l 868 740 q 830 1131 830 1101 l 1047 1177 m 1483 1169 q 1492 1166 1489 1166 q 1725 1161 1661 1166 q 1793 938 1793 946 l 1790 938 q 1608 908 1661 919 l 1608 906 q 1619 846 1612 846 q 1673 857 1673 850 l 1673 889 l 1771 906 l 1771 903 l 1785 816 l 1782 816 q 1573 721 1600 732 l 1573 724 q 1470 946 1475 931 l 1481 1161 q 1483 1169 1483 1166 m 746 1163 l 746 1161 q 748 1087 746 1138 l 675 1093 l 651 1158 l 653 1158 q 746 1163 715 1163 m 1595 1101 q 1584 1058 1595 1095 l 1597 971 q 1660 982 1604 971 l 1660 1098 l 1646 1101 l 1595 1101 m 670 1041 q 754 998 754 1001 q 729 748 754 978 l 651 767 q 664 1039 664 1007 l 670 1041 m 2004 1036 q 2132 1020 2012 1033 q 2097 659 2132 959 l 1847 580 l 1790 683 l 2029 740 l 2029 794 q 1836 813 2009 794 l 1847 984 q 1947 1003 1939 1003 q 1931 887 1945 993 l 2015 868 q 2004 1036 2012 887 m 282 548 q 371 355 371 361 l 374 355 q 488 542 386 378 l 613 526 q 623 141 621 198 l 670 141 q 675 132 675 141 l 675 40 q 458 16 473 16 l 458 18 q 447 124 455 31 l 510 130 l 510 360 l 507 360 l 406 184 l 398 184 q 252 371 398 190 q 284 176 279 198 q 333 170 320 170 l 333 65 l 330 65 q 127 62 158 62 l 127 65 l 122 154 l 179 170 q 157 406 165 294 l 154 406 q 103 396 149 404 l 86 501 q 282 548 95 501 m 827 523 q 946 507 921 515 l 1022 330 l 965 119 q 849 105 864 105 l 748 192 l 748 469 l 827 523 m 1719 474 q 1947 472 1900 472 q 1969 436 1969 470 q 2029 246 2029 261 q 1844 217 1989 241 q 1855 154 1849 154 q 1909 160 1901 160 l 1909 198 q 2007 214 1924 198 l 2021 124 q 1809 29 1814 29 l 1809 32 q 1706 255 1711 239 q 1719 474 1709 334 m 1058 469 l 1177 455 l 1177 453 q 1169 162 1169 208 q 1166 141 1166 147 l 1169 141 q 1215 154 1171 141 q 1231 363 1228 349 q 1334 382 1327 382 l 1334 379 q 1329 5 1334 301 l 1326 5 q 1250 35 1250 27 l 1245 70 q 1087 24 1223 62 l 1058 469 m 1448 461 l 1540 461 q 1641 401 1550 461 l 1641 398 l 1622 271 q 1554 279 1554 274 q 1557 374 1554 299 q 1511 377 1542 374 l 1511 263 l 1646 214 q 1635 67 1639 68 q 1538 21 1540 21 q 1399 86 1407 86 q 1424 181 1424 173 l 1481 181 q 1494 122 1487 181 l 1549 122 l 1549 181 q 1429 252 1538 191 q 1416 390 1429 265 q 1448 461 1443 459 m 849 420 l 854 181 l 857 181 q 903 203 898 203 l 900 214 q 892 428 900 245 l 889 428 q 849 420 883 428 m 1831 409 q 1820 363 1831 405 q 1833 279 1833 289 q 1896 293 1896 285 l 1896 406 l 1871 406 q 1831 409 1858 406 m 765 56 q 963 43 934 48 l 979 0 l 805 0 q 765 54 800 1 l 765 56 "},"å":{"x_min":0,"x_max":0,"ha":625}," ":{"x_min":0,"x_max":0,"ha":345},"0":{"x_min":0,"x_max":0,"ha":688},"”":{"x_min":0,"x_max":0,"ha":617},"¾":{"x_min":0,"x_max":0,"ha":1158},"@":{"x_min":0,"x_max":0,"ha":1369},"ö":{"x_min":0,"x_max":0,"ha":685},"i":{"x_min":0,"x_max":1380.859375,"ha":1422,"o":"m 374 1494 q 387 1475 387 1490 l 387 1473 q 374 1418 387 1452 q 322 1473 322 1444 l 322 1475 q 336 1486 324 1481 q 355 1478 343 1486 q 374 1494 361 1494 m 355 1467 q 339 1481 355 1472 l 328 1473 q 371 1426 328 1454 q 382 1478 382 1464 q 379 1486 379 1483 l 371 1486 q 355 1467 368 1486 m 564 1432 l 588 1432 q 727 1332 668 1432 q 740 1269 740 1297 l 740 1258 q 656 1158 740 1178 l 656 1152 q 740 1079 676 1152 q 775 987 775 1042 l 775 954 q 770 906 770 913 q 876 803 805 906 l 887 792 q 949 908 949 887 q 984 941 949 941 q 1006 944 995 944 q 1044 868 1044 933 q 1049 786 1044 830 q 1044 670 1044 719 q 1087 588 1087 643 q 1052 537 1087 553 l 1044 526 q 1085 523 1044 523 q 1112 558 1085 542 q 1066 689 1112 565 q 1060 727 1060 709 l 1060 732 q 1155 851 1060 819 q 1190 857 1167 857 l 1201 857 q 1367 718 1298 857 q 1380 659 1380 678 l 1380 575 q 1304 396 1380 493 q 1250 371 1268 371 l 1239 371 q 1166 398 1211 371 q 1163 396 1163 398 q 1104 428 1121 396 q 1014 444 1084 428 l 1014 431 q 1009 366 1014 400 q 1039 227 1039 326 q 897 5 1039 50 q 865 0 878 0 l 797 0 q 675 62 739 0 q 651 124 651 94 l 651 130 q 773 282 651 194 q 838 349 773 289 q 908 385 867 377 q 930 398 930 396 l 930 409 l 916 406 l 889 406 q 822 450 862 406 q 781 385 814 442 q 705 339 750 356 q 596 249 649 249 l 572 249 q 537 284 543 249 q 591 341 537 305 q 613 374 613 364 l 610 374 q 523 360 576 363 q 417 423 438 360 l 417 436 q 472 472 417 469 l 474 472 l 474 485 q 336 553 336 501 q 455 634 336 605 q 398 610 455 631 q 344 553 344 577 q 385 515 349 533 q 474 499 438 499 l 480 499 q 648 531 493 524 q 678 556 678 531 q 686 567 680 556 q 523 672 594 643 q 482 716 482 694 l 477 716 q 401 754 422 716 q 371 805 396 781 q 341 897 341 858 l 339 897 q 282 862 317 862 l 257 862 q 165 919 215 862 q 124 1033 124 975 q 200 1171 124 1143 q 214 1174 205 1174 l 225 1174 q 355 1058 307 1174 l 355 1055 l 360 1055 q 374 1123 365 1072 q 404 1136 389 1136 l 417 1133 l 417 1144 q 453 1177 417 1171 q 488 1169 488 1172 q 542 1180 509 1180 q 474 1307 474 1235 l 474 1315 q 564 1432 474 1412 m 274 1394 q 309 1299 309 1382 l 309 1239 l 306 1212 q 195 1310 195 1256 q 217 1332 195 1332 l 225 1332 l 238 1329 l 238 1345 q 274 1394 238 1394 m 246 1348 l 246 1315 q 217 1326 227 1326 q 203 1307 203 1322 q 301 1223 203 1270 l 301 1280 q 268 1386 297 1386 q 246 1348 246 1376 m 835 1256 l 838 1256 q 862 1228 859 1256 l 862 1199 q 859 1144 862 1181 l 854 1144 q 794 1212 794 1181 q 805 1223 794 1216 l 816 1223 l 822 1220 q 835 1256 822 1252 m 827 1212 q 805 1218 817 1218 l 803 1218 l 800 1207 q 854 1152 800 1193 l 854 1215 q 841 1250 854 1246 l 838 1250 q 827 1212 827 1250 m 510 1166 l 510 1163 l 529 1163 l 529 1166 l 510 1166 m 447 1144 q 442 1112 442 1125 l 442 1079 l 444 1074 l 442 1074 q 398 1106 414 1106 q 382 982 385 1106 q 450 849 382 874 q 401 784 401 818 q 485 721 401 732 q 512 743 485 738 l 529 743 q 585 735 557 743 l 580 746 l 583 746 q 634 721 617 721 l 648 721 q 680 786 680 742 q 683 797 683 786 l 689 797 l 689 789 q 735 846 707 807 l 732 865 q 756 906 732 891 q 767 965 767 935 q 699 1090 767 1074 l 689 1090 q 629 1030 657 1090 q 626 1028 629 1028 q 550 1142 626 1079 q 520 1139 526 1139 q 447 1144 505 1139 m 466 1098 q 539 1047 505 1098 l 539 1039 q 482 1087 489 1087 l 480 1068 q 482 1028 480 1062 l 482 1022 l 480 1022 l 472 1063 q 477 1090 474 1083 l 466 1093 l 466 1098 m 689 1085 l 694 1085 q 724 1074 699 1085 q 721 1071 724 1071 l 735 1033 q 713 1017 735 1017 q 675 1022 684 1022 q 667 1060 667 1059 l 667 1063 q 683 1082 683 1074 l 689 1085 m 689 1082 q 686 1063 686 1079 l 680 1066 l 678 1066 q 672 1060 672 1065 q 699 1025 678 1025 q 721 1022 710 1022 l 727 1030 q 710 1074 719 1074 q 689 1082 694 1082 m 705 1058 l 705 1047 l 694 1047 l 694 1055 l 705 1058 m 363 1041 l 363 1030 l 366 1030 l 366 1041 l 363 1041 m 417 1044 q 423 1036 423 1044 l 431 1036 q 469 1014 455 1036 l 463 1014 q 428 1028 444 1028 l 425 1028 l 425 1025 q 442 946 425 1005 l 436 946 q 417 1030 417 984 l 417 1044 m 347 1033 l 347 1028 l 349 1028 l 349 1033 l 347 1033 m 504 1011 l 520 1011 q 567 998 527 1011 l 564 992 l 564 982 q 596 987 585 987 l 596 982 q 504 916 558 982 q 485 873 485 887 l 480 876 q 485 906 485 902 q 458 925 458 912 q 455 973 458 941 q 469 1003 460 1003 l 480 1003 q 510 944 497 994 q 529 960 529 955 q 496 998 496 975 l 496 1003 q 504 1011 496 1007 m 54 1009 l 65 1009 q 94 919 94 987 l 94 911 q 5 968 59 922 q 0 984 0 977 q 18 1003 0 1003 l 43 995 q 54 1009 48 1007 m 54 1003 q 48 982 48 995 q 16 995 24 995 l 13 995 q 8 990 8 994 l 8 979 q 89 919 34 947 l 89 922 q 54 1003 81 1003 m 526 1003 l 529 998 l 529 992 q 512 984 529 984 l 512 982 q 534 963 512 979 q 558 976 555 976 l 558 990 q 526 1003 558 996 m 694 998 l 716 998 q 721 992 721 997 q 691 990 706 992 q 699 944 699 967 q 672 838 699 912 l 672 789 q 629 740 664 740 l 621 740 q 561 778 609 740 q 458 794 462 794 l 458 792 q 447 770 451 770 l 447 784 q 485 819 447 811 l 488 813 q 466 805 483 813 l 466 800 l 469 800 q 561 789 548 789 q 689 919 650 789 q 691 949 689 934 l 686 987 l 659 968 l 659 971 q 694 998 674 998 m 485 984 q 472 965 485 965 q 463 968 466 968 l 463 927 q 491 911 474 911 l 504 935 q 488 984 504 944 l 485 984 m 588 971 l 591 971 q 618 938 613 971 q 561 859 618 896 q 545 854 552 854 l 534 854 q 507 881 507 859 l 507 895 q 572 968 507 931 l 588 971 m 995 935 q 1033 873 1030 898 l 1036 873 l 1036 881 q 995 935 1036 924 m 960 914 l 960 835 q 946 767 957 767 q 952 851 952 808 l 952 854 l 949 854 q 911 786 949 835 l 908 786 l 908 789 q 944 859 919 806 l 944 862 l 941 862 l 892 781 q 1003 637 988 700 q 1063 604 1016 627 l 1066 588 q 1058 550 1063 564 q 1079 591 1079 561 q 1017 670 1064 670 q 1033 675 1017 675 q 1036 762 1036 733 l 1036 797 q 984 930 1036 883 q 973 933 980 933 l 971 933 q 960 914 960 929 m 1074 735 l 1074 732 q 1123 569 1074 684 q 1150 439 1136 439 q 1234 382 1192 382 l 1245 382 q 1272 393 1272 385 q 1215 534 1241 393 q 1155 735 1155 685 q 1234 830 1155 805 l 1247 832 l 1247 835 q 1188 846 1215 846 q 1077 759 1112 846 q 1074 735 1074 744 m 754 835 l 754 832 l 762 832 l 762 835 l 754 835 m 765 832 l 765 830 q 789 822 774 830 l 792 822 l 792 824 l 767 832 l 765 832 m 1166 732 q 1231 504 1166 689 l 1231 501 l 1234 501 q 1372 583 1301 501 l 1372 626 q 1272 819 1372 745 q 1256 824 1263 824 l 1247 824 q 1174 770 1208 824 q 1166 732 1166 757 m 794 822 l 794 819 q 808 813 799 819 l 811 813 l 811 816 q 797 822 806 816 l 794 822 m 618 789 q 634 778 629 789 q 602 784 615 784 l 596 784 q 580 775 580 782 q 623 748 611 748 l 637 748 q 664 792 664 763 l 664 794 q 640 805 664 801 q 618 789 630 805 m 716 686 q 737 651 718 651 l 773 621 q 816 653 773 647 l 830 651 q 775 721 775 697 l 775 732 q 792 743 775 737 q 887 661 836 743 l 887 648 q 870 637 881 637 q 846 642 866 637 q 870 585 870 614 q 851 534 870 556 l 854 529 l 854 518 q 830 458 854 486 q 868 423 861 423 l 870 423 q 992 523 870 465 q 922 553 992 527 q 892 572 922 558 l 892 577 q 916 567 914 567 l 916 569 q 897 585 897 583 l 897 588 l 900 588 q 935 558 917 579 q 949 553 944 553 q 979 629 968 573 l 982 629 l 982 623 q 957 548 982 583 q 1033 529 1018 529 q 1058 591 1058 561 q 1020 615 1058 603 q 1009 623 1020 618 l 1009 610 l 1006 610 q 887 773 970 715 q 838 792 851 792 q 721 710 756 792 q 716 686 718 705 m 868 773 l 870 773 q 944 705 904 773 l 944 691 l 933 689 q 868 743 908 689 q 862 765 862 753 l 862 767 q 868 773 863 773 m 868 767 l 868 765 q 935 697 897 706 l 938 697 l 938 699 q 868 767 893 767 m 784 729 l 784 727 q 854 648 784 695 l 870 645 l 873 645 q 878 651 878 645 l 878 653 q 800 735 878 684 l 789 735 q 784 729 784 734 m 664 699 l 664 697 l 670 694 l 670 697 l 664 699 m 678 691 l 678 689 l 683 686 l 683 689 l 678 691 m 686 686 l 686 683 l 691 680 l 691 683 l 686 686 m 746 537 l 746 539 l 754 561 q 575 515 676 515 q 482 480 499 515 l 482 477 q 567 428 482 442 l 594 428 q 659 436 624 428 q 594 417 638 417 l 585 417 q 480 458 512 417 l 480 461 l 463 461 q 425 431 433 461 q 529 371 446 371 q 629 385 567 374 q 613 349 620 374 q 548 284 548 299 l 548 282 q 585 257 556 257 q 691 339 643 257 l 678 336 l 672 336 q 667 341 667 336 q 767 390 706 341 q 792 425 792 416 q 748 415 772 415 l 735 415 q 718 423 720 415 q 740 420 733 420 q 838 488 796 420 q 846 515 846 502 l 846 526 q 808 504 823 504 l 803 504 l 803 507 q 859 580 859 538 l 859 596 q 816 645 843 645 q 767 569 780 645 q 746 537 758 548 m 683 539 q 759 580 759 569 l 762 591 q 683 539 683 571 m 1367 567 q 1234 493 1303 493 l 1234 491 q 1283 396 1253 396 q 1364 537 1334 435 q 1370 567 1367 562 l 1367 567 m 1112 550 q 1093 499 1093 527 q 1161 404 1104 404 l 1163 404 q 1117 548 1117 450 l 1112 550 m 925 477 q 878 420 878 440 l 878 417 l 906 417 q 992 450 939 417 l 992 453 q 925 477 984 453 m 881 320 q 933 268 890 268 q 1009 339 1009 286 l 1009 347 q 1003 352 1009 352 q 963 301 990 301 l 946 301 q 914 330 914 308 l 914 333 q 925 382 914 350 l 922 382 q 881 320 881 362 m 789 287 q 808 295 803 295 l 811 295 l 811 293 q 661 130 661 194 q 778 16 661 56 q 816 10 798 10 l 835 10 q 979 73 920 10 q 1028 238 1028 137 q 1017 333 1025 282 l 1014 333 q 949 263 1014 284 q 927 260 939 260 q 873 317 883 260 l 873 320 q 887 366 873 346 l 887 368 l 884 368 q 789 287 853 354 m 843 252 l 870 252 q 984 208 953 252 l 979 208 q 841 244 932 244 q 805 241 817 241 q 843 252 805 249 "},"≤":{"x_min":0,"x_max":0,"ha":688},"Õ":{"x_min":0,"x_max":0,"ha":1095},"№":{"x_min":0,"x_max":0,"ha":1540},"þ":{"x_min":0,"x_max":0,"ha":685},"]":{"x_min":0,"x_max":0,"ha":514},"m":{"x_min":0,"x_max":911.53125,"ha":945,"o":"m 469 1386 l 496 1386 q 629 1288 592 1386 q 632 1261 632 1274 l 632 1256 q 556 1155 632 1186 l 556 1152 q 664 1074 587 1152 q 751 1190 664 1148 q 800 1201 764 1199 q 908 1112 872 1201 q 911 1098 911 1107 l 911 1030 q 851 927 911 989 q 784 906 811 906 q 699 944 746 906 q 629 797 699 864 l 621 792 q 629 765 629 776 q 518 537 629 702 q 499 434 509 461 q 485 406 485 417 l 485 404 l 507 374 l 507 371 q 474 349 507 365 q 585 309 516 309 l 588 309 q 621 366 591 309 q 735 436 682 436 q 827 493 775 493 q 849 485 849 491 l 846 485 l 835 488 q 751 442 792 488 l 751 439 l 754 439 q 870 344 837 439 q 878 284 878 311 q 683 13 878 132 q 629 0 648 0 l 591 0 q 526 51 562 0 q 512 111 512 79 l 512 127 q 493 181 493 148 q 496 184 496 181 q 393 330 417 270 l 349 330 q 382 274 376 274 q 436 241 422 263 q 463 203 436 214 q 491 143 491 166 q 290 24 491 54 q 255 21 255 24 q 244 24 250 24 l 236 24 q 27 119 111 24 q 0 195 0 153 q 70 274 0 252 q 124 282 79 279 q 252 257 148 282 l 257 257 q 279 279 257 265 l 279 282 l 241 374 q 146 442 190 395 l 146 444 q 179 510 146 449 q 203 610 189 575 q 284 694 235 670 q 320 710 315 710 q 274 729 320 714 q 198 816 218 758 q 143 887 143 845 l 143 897 q 192 944 143 936 q 252 887 227 944 l 268 892 q 257 946 257 919 l 257 954 q 368 1142 257 1073 q 423 1161 385 1152 l 423 1163 q 360 1258 360 1197 l 360 1280 q 444 1383 360 1353 q 469 1386 459 1386 m 306 1039 l 303 1063 l 298 1063 q 265 946 265 999 q 276 892 265 921 l 282 892 q 271 941 271 911 q 282 976 273 976 l 287 976 q 314 889 297 976 q 344 873 344 879 l 339 873 q 287 884 317 884 q 257 878 271 884 q 263 851 263 858 q 214 808 263 808 l 211 808 q 371 718 264 718 q 534 813 472 718 q 548 873 548 846 l 548 881 q 512 868 543 881 q 569 895 531 895 l 583 895 q 599 887 599 893 l 585 887 q 575 889 579 887 q 556 881 561 887 q 569 805 569 815 l 569 794 q 501 716 569 728 l 488 716 q 447 724 469 716 q 409 713 423 713 l 409 710 l 431 710 q 455 713 440 710 q 507 705 480 705 q 588 800 577 705 l 588 811 l 594 811 l 594 803 l 599 803 l 618 800 q 670 884 670 845 q 607 960 670 935 q 583 963 592 963 l 577 963 q 466 895 523 963 q 474 973 472 929 q 396 1136 463 1136 q 309 1039 348 1136 l 306 1039 m 339 1025 l 347 1025 q 374 919 374 1007 q 352 887 374 887 q 311 976 320 887 q 339 1025 311 1025 m 320 979 q 349 895 330 895 l 352 895 q 347 916 347 905 l 347 925 q 358 949 347 946 l 360 949 l 366 946 l 366 949 q 339 1020 357 1020 q 320 979 325 1020 m 282 971 q 276 941 276 948 q 290 892 282 892 l 295 892 q 290 916 290 905 q 298 933 298 929 q 284 971 292 971 l 282 971 m 529 754 l 529 751 l 523 751 l 523 762 l 518 762 q 496 724 496 748 l 499 724 q 564 792 548 724 q 561 813 564 813 q 529 754 529 797 m 246 653 q 257 659 257 655 q 268 651 268 655 l 268 642 q 211 558 252 587 l 208 558 q 200 567 200 558 l 198 567 q 157 447 198 507 l 157 442 q 287 368 222 383 q 263 425 281 425 q 208 485 208 469 q 301 415 267 427 l 301 412 l 290 412 q 301 355 297 360 q 385 341 350 341 q 496 377 456 341 q 480 390 481 390 l 477 390 q 466 377 477 382 l 466 379 l 477 401 l 474 401 q 458 387 474 397 l 453 387 q 485 431 468 406 l 472 428 q 420 539 430 428 l 420 550 q 436 618 423 613 l 436 615 l 434 599 l 434 596 l 436 596 q 461 615 455 604 q 415 670 448 649 q 330 694 370 694 l 317 694 q 246 653 282 694 m 507 670 l 504 664 l 507 664 l 510 670 l 507 670 m 501 661 l 493 651 l 496 651 l 504 661 l 501 661 m 349 661 l 360 661 q 377 637 377 651 q 317 542 377 589 q 290 534 305 534 q 271 558 271 542 l 271 567 q 336 659 271 610 l 349 661 m 279 569 l 279 553 q 293 542 280 548 q 366 626 330 542 q 368 637 366 632 q 358 653 363 653 l 352 653 q 284 585 321 653 q 279 569 279 577 m 203 575 q 208 567 206 567 q 263 648 240 583 l 263 651 l 260 651 q 203 575 231 651 m 491 648 l 482 637 l 485 637 l 493 648 l 491 648 m 396 604 q 366 580 396 601 l 363 580 q 396 604 377 604 m 436 585 l 436 583 q 488 531 462 583 q 496 493 496 501 l 499 493 q 507 523 507 514 l 507 534 q 453 594 495 594 q 436 585 436 591 m 431 577 q 428 542 428 543 q 469 436 428 468 q 488 488 488 459 q 431 577 488 554 m 341 558 l 347 558 q 320 469 320 512 q 368 379 320 411 l 366 379 q 314 455 326 379 l 314 482 q 341 558 314 515 m 458 556 l 458 553 q 431 534 441 534 l 431 537 q 458 556 440 550 m 466 539 l 469 539 q 436 504 450 504 l 436 507 q 466 539 462 539 m 477 520 l 480 520 l 480 515 q 458 477 470 482 l 455 477 l 455 482 q 477 520 477 516 m 496 482 q 480 434 496 460 l 488 434 q 501 482 501 465 l 496 482 m 585 206 l 583 206 l 580 225 q 567 187 573 225 l 564 187 l 561 200 l 564 206 l 561 206 q 523 119 523 162 l 523 111 q 575 18 523 46 l 575 21 q 648 146 575 46 q 843 330 758 330 q 859 325 851 330 l 859 328 q 803 415 859 367 q 765 425 775 425 l 746 425 q 599 301 661 425 q 585 206 585 260 m 607 70 q 659 62 628 62 q 808 135 763 62 q 865 284 865 206 q 841 322 865 322 q 661 149 769 322 q 607 70 630 98 m 507 309 l 548 265 q 583 282 583 274 q 588 298 583 286 l 569 298 q 507 309 548 298 m 13 200 l 13 181 q 111 67 13 128 q 263 35 183 35 q 425 73 339 35 q 480 143 480 107 q 436 208 480 176 l 434 208 q 377 181 434 187 l 374 181 q 311 195 343 181 l 311 192 q 339 168 319 192 l 339 165 q 208 246 255 229 l 208 249 l 217 249 q 260 230 246 240 q 225 252 257 252 q 127 271 154 271 q 13 200 13 261 m 265 246 l 265 241 q 333 198 277 219 q 368 192 345 192 l 379 192 q 431 225 431 192 q 382 265 431 246 q 393 249 388 249 q 396 252 393 252 l 396 246 q 366 233 396 237 l 352 233 q 284 268 311 233 q 265 246 265 261 m 504 168 q 515 141 507 141 q 561 217 531 195 q 580 265 580 236 l 577 265 q 504 181 535 265 l 504 168 m 653 54 l 651 54 q 602 62 631 54 q 583 18 583 39 l 583 16 q 604 8 585 8 l 613 8 q 732 65 664 8 q 653 54 691 54 "},"8":{"x_min":0,"x_max":0,"ha":688},"R":{"x_min":0,"x_max":954.9375,"ha":993,"o":"m 493 1337 l 499 1337 q 637 1253 583 1337 q 651 1190 651 1221 q 572 1063 651 1105 q 545 1058 563 1058 l 545 1055 q 640 919 605 1022 q 645 873 645 885 q 629 797 645 838 q 683 672 661 751 q 705 539 697 611 q 721 510 721 524 l 721 499 q 680 363 702 395 q 642 328 667 348 q 618 274 618 277 l 621 274 q 664 238 639 269 q 887 206 699 220 q 954 165 945 189 l 954 149 q 897 108 954 120 l 897 113 q 949 154 931 113 q 849 200 938 191 q 710 208 752 203 q 743 143 743 167 l 743 130 q 632 16 743 71 q 556 0 582 0 l 482 0 q 309 70 382 0 l 276 70 q 100 149 171 70 q 89 195 89 176 q 255 301 89 285 q 284 303 269 301 q 255 352 255 326 q 309 431 255 385 l 309 444 q 339 523 309 474 q 377 583 339 551 l 385 607 q 363 604 370 604 q 257 651 284 604 l 257 680 l 260 686 q 181 846 181 742 q 187 892 181 857 q 124 865 147 865 l 108 865 q 5 960 37 865 q 0 995 0 972 l 0 1017 q 81 1142 0 1104 l 97 1144 l 116 1144 q 225 1006 206 1144 l 225 995 q 352 1079 299 1070 l 377 1096 l 385 1096 l 409 1093 q 420 1096 414 1096 q 371 1204 371 1144 q 436 1321 371 1279 q 493 1337 465 1337 m 385 1058 q 360 971 360 1028 l 360 954 q 409 895 409 916 q 434 803 434 849 q 431 800 431 803 q 455 792 455 798 l 447 792 q 320 743 380 792 l 320 746 q 339 765 320 756 l 339 767 q 282 851 310 767 q 255 908 282 881 q 230 954 241 926 l 227 954 q 217 887 217 910 q 298 724 217 809 q 265 667 268 691 q 360 618 276 618 l 363 618 q 496 653 440 618 l 491 653 l 491 656 q 577 694 577 674 l 577 702 q 561 718 569 718 l 561 721 l 569 721 l 575 718 l 575 721 q 567 770 567 750 l 567 773 q 594 808 570 808 l 610 808 l 615 805 l 615 808 q 564 830 609 828 q 499 816 533 830 l 501 854 q 404 1052 501 975 l 385 1058 m 363 903 q 385 819 368 843 l 404 794 l 409 797 l 425 797 l 425 800 q 406 887 425 832 l 404 887 q 393 884 398 887 q 363 903 382 887 m 284 876 q 333 775 284 837 q 341 770 341 775 q 358 784 358 775 q 344 832 358 797 l 330 830 q 284 876 325 830 m 347 841 q 368 784 360 818 q 393 792 383 792 q 366 841 366 830 l 347 841 m 423 770 q 461 737 461 767 q 406 683 461 710 q 371 678 382 678 l 355 678 q 322 705 322 684 l 322 708 q 404 770 322 754 l 423 770 m 526 694 l 542 694 q 548 689 548 693 l 548 683 q 499 670 548 672 l 496 675 l 496 680 q 526 694 505 694 m 596 670 l 596 664 q 599 656 599 659 l 602 656 l 602 659 q 599 670 599 663 l 596 670 m 602 653 l 602 648 l 604 648 l 604 653 l 602 653 m 607 618 q 499 569 556 569 l 493 569 q 431 591 463 569 q 423 561 431 579 q 439 567 432 567 q 444 561 444 566 l 444 550 q 401 461 444 503 l 396 461 q 387 491 387 461 q 290 396 358 455 l 287 390 q 390 339 300 390 q 447 325 427 325 l 450 330 q 382 374 422 330 q 374 393 374 387 q 458 339 425 339 q 515 374 498 374 q 458 322 479 348 q 504 309 458 318 q 604 274 571 274 l 629 322 l 626 322 q 599 317 614 317 l 596 322 q 689 401 644 322 l 686 401 q 642 371 662 371 l 634 371 q 588 482 588 406 l 588 510 q 602 548 588 525 q 539 496 571 539 q 510 423 510 446 q 504 428 504 423 l 504 442 q 485 472 491 442 q 539 564 503 564 l 548 564 q 561 537 556 564 q 613 558 579 553 l 618 564 q 607 618 615 618 m 347 526 q 409 558 373 548 l 417 577 l 412 577 q 347 526 366 577 m 434 561 q 393 477 393 510 q 396 469 396 472 l 398 469 q 439 558 439 511 l 434 561 m 493 472 q 507 447 493 455 q 553 531 508 470 l 553 539 q 539 558 553 554 q 493 472 514 558 m 604 526 q 661 463 616 463 l 667 463 q 716 501 702 463 q 702 529 716 517 q 686 496 702 505 l 670 496 q 618 556 627 496 q 604 526 606 547 m 317 444 l 317 436 q 406 550 386 493 q 330 488 357 533 q 317 444 317 458 m 596 507 l 596 491 q 637 379 596 420 q 697 436 666 379 q 708 469 702 444 q 670 455 684 455 l 659 455 q 599 507 617 455 l 596 507 m 634 458 l 637 458 l 637 450 q 621 420 626 420 l 615 420 l 615 423 q 634 458 634 455 m 656 447 l 659 447 l 659 439 q 648 398 659 432 l 640 398 l 640 401 q 656 447 640 405 m 678 447 q 683 442 683 446 q 675 412 683 412 l 672 412 q 678 447 678 439 m 428 320 l 428 311 q 387 279 428 285 l 374 279 q 311 293 348 279 l 311 290 q 390 257 334 257 q 393 255 390 255 q 442 265 423 258 l 439 284 l 439 293 l 442 320 l 428 320 m 100 195 q 206 94 100 134 q 303 84 235 84 q 290 132 290 107 q 363 227 290 196 l 363 230 q 265 282 320 262 l 265 284 l 274 284 q 317 268 284 284 l 317 271 q 298 298 300 284 l 176 276 q 108 219 125 255 q 100 195 100 200 m 604 263 q 613 244 613 252 l 613 233 q 575 211 600 211 l 545 211 q 496 222 526 211 q 583 181 533 181 l 591 181 q 653 217 638 181 l 653 227 q 613 265 653 254 q 604 263 607 263 m 396 246 l 390 246 q 349 252 375 246 l 371 233 q 434 238 400 238 l 469 238 q 447 257 454 257 q 396 246 425 246 m 303 138 l 303 132 q 450 16 303 46 q 510 10 473 10 l 520 10 q 724 108 654 10 q 732 143 732 129 q 661 227 732 180 q 588 170 661 170 q 545 179 556 173 l 542 179 l 542 176 q 599 132 573 163 l 599 130 l 596 130 q 447 217 518 183 l 447 219 l 453 219 q 501 200 482 212 l 501 203 q 482 230 482 217 q 333 195 367 230 q 303 138 303 166 "},"á":{"x_min":0,"x_max":0,"ha":625},"×":{"x_min":0,"x_max":0,"ha":688},"o":{"x_min":0,"x_max":1576.1875,"ha":1647,"o":"m 615 1418 q 694 1383 657 1418 q 729 1296 729 1346 q 689 1199 729 1246 l 716 1201 l 729 1201 q 900 1128 829 1201 q 897 1136 897 1133 q 971 1258 897 1230 q 1006 1264 998 1264 q 1136 1155 1096 1264 q 1139 1125 1139 1137 l 1139 1112 q 1033 987 1139 1018 l 1020 987 q 946 1014 984 987 q 952 965 952 978 q 911 841 952 902 q 743 746 866 746 q 732 721 737 746 q 862 621 732 673 q 884 607 862 618 l 884 610 l 881 621 q 1011 775 881 718 q 1106 792 1059 792 l 1109 792 q 1323 675 1271 792 q 1337 640 1335 640 q 1576 561 1479 640 l 1576 558 l 1573 558 q 1361 626 1462 626 l 1337 626 l 1337 602 q 1245 491 1337 522 q 1201 485 1233 485 l 1188 485 q 1079 499 1140 485 q 1025 480 1060 480 l 1022 480 q 946 417 999 417 q 849 431 925 417 q 784 401 784 419 q 740 344 745 344 q 729 341 735 341 l 713 341 q 670 347 701 341 q 594 260 622 303 l 596 241 l 596 225 q 558 170 596 194 q 504 103 535 111 q 461 94 486 94 l 458 94 q 257 257 346 94 q 227 379 227 317 l 227 382 q 306 537 227 480 q 368 556 338 555 q 512 412 474 556 q 515 377 512 394 l 510 333 l 515 333 l 569 385 q 537 423 537 406 q 604 466 537 441 l 604 472 q 537 618 537 559 q 450 599 497 599 l 442 599 q 398 607 411 599 q 371 599 389 602 l 366 602 q 303 583 332 583 q 168 659 221 583 q 154 705 154 680 l 154 710 q 162 746 155 740 l 160 765 q 192 849 160 821 q 219 897 192 883 q 257 908 234 906 q 347 851 314 908 q 436 778 411 851 q 439 756 439 763 q 425 708 439 735 l 428 691 l 466 689 q 539 735 539 704 q 545 746 545 741 q 382 992 507 821 q 311 1052 337 1052 l 309 1058 q 298 1055 299 1055 q 43 1112 263 1055 q 0 1150 0 1116 q 29 1190 0 1167 q 255 1277 29 1238 q 344 1315 322 1298 l 341 1332 q 409 1405 358 1405 l 428 1405 q 461 1386 451 1405 l 461 1370 q 423 1285 461 1355 l 420 1258 l 420 1256 q 425 1204 425 1209 q 417 1163 423 1163 q 431 1098 431 1142 q 491 990 460 1038 l 496 990 q 515 1052 507 1009 q 591 1152 541 1108 q 480 1242 512 1152 q 477 1266 477 1257 l 477 1280 q 575 1413 477 1365 q 615 1418 594 1418 m 352 1334 l 352 1315 l 355 1302 l 349 1304 q 103 1231 280 1266 q 40 1196 40 1206 l 46 1196 q 203 1228 63 1209 q 219 1245 203 1237 l 219 1242 q 179 1142 179 1181 l 173 1142 l 173 1166 l 141 1169 l 119 1169 q 48 1133 48 1164 q 160 1098 48 1115 q 293 1068 249 1068 l 301 1068 q 382 1112 343 1068 l 385 1112 q 320 1060 352 1060 l 320 1058 q 344 1052 337 1052 l 349 1052 q 417 1120 397 1052 l 420 1131 q 415 1150 415 1144 l 409 1150 q 396 1131 402 1131 l 393 1131 q 415 1209 415 1171 q 401 1264 415 1241 l 404 1264 l 412 1258 q 450 1359 412 1304 l 453 1375 q 417 1397 453 1397 q 352 1334 352 1383 m 317 1231 q 390 1169 390 1217 l 390 1152 l 387 1133 l 382 1133 l 385 1147 q 330 1220 385 1203 q 274 1223 312 1223 l 274 1226 q 317 1231 298 1231 m 10 1144 q 43 1120 10 1128 l 43 1123 q 40 1133 40 1127 l 40 1139 q 124 1180 40 1173 q 173 1171 157 1177 l 192 1218 l 189 1218 q 10 1144 10 1199 m 596 1055 q 604 1006 596 1050 q 558 1020 578 1019 q 499 965 499 1009 l 499 954 q 580 811 499 878 l 577 816 l 577 827 l 580 827 q 661 743 612 743 q 743 773 687 743 l 743 770 q 729 756 743 768 l 756 756 q 897 835 842 756 l 900 854 l 900 865 q 838 927 886 927 l 838 933 q 906 1049 906 969 l 906 1058 q 846 1155 906 1127 q 830 1158 844 1155 q 792 1139 813 1158 l 789 1139 q 732 1193 789 1190 q 602 1087 643 1193 q 596 1055 598 1060 m 737 1125 q 754 1098 751 1125 q 718 992 754 1054 l 718 987 q 740 982 730 987 q 813 1098 775 1098 q 830 1085 826 1096 l 830 1055 q 775 960 830 1013 q 789 935 789 946 l 784 935 q 718 979 784 953 q 678 984 684 982 l 661 982 l 645 982 q 678 992 645 988 l 675 998 l 675 1025 q 721 1120 675 1079 q 737 1125 732 1125 m 683 992 l 689 992 l 689 1006 q 710 1039 697 1039 l 718 1039 q 724 1022 724 1039 l 727 1022 q 746 1101 746 1074 q 737 1117 743 1117 q 683 1025 703 1117 l 683 992 m 756 1011 q 773 1017 765 1017 l 775 1017 q 781 1011 781 1016 l 781 998 q 767 965 781 992 q 822 1066 822 1009 l 822 1082 q 813 1090 822 1086 q 756 1011 785 1078 m 580 976 q 591 973 585 973 l 591 968 q 564 963 564 967 q 640 854 564 907 q 732 830 681 830 q 849 870 795 830 q 824 892 824 889 l 827 892 q 870 843 870 880 q 865 838 870 838 q 854 862 865 845 q 759 808 766 815 q 664 756 706 756 l 659 756 q 580 895 597 756 q 556 960 562 915 q 529 946 533 946 l 529 949 q 580 976 543 976 m 689 973 q 770 922 770 961 l 770 906 q 724 881 760 881 q 721 878 724 878 q 642 916 678 878 l 640 935 l 640 938 q 689 973 640 973 m 200 846 l 211 792 q 192 830 204 792 l 189 830 q 170 759 170 795 q 179 710 170 748 q 165 724 177 710 l 165 702 q 260 602 165 646 q 303 594 293 594 q 352 607 349 598 q 314 670 324 607 l 314 680 q 366 740 328 740 l 379 740 q 420 718 400 740 l 423 718 q 428 759 428 744 q 336 843 428 828 l 349 830 l 344 830 q 303 868 332 830 l 306 868 q 330 849 310 868 l 336 849 l 336 851 q 268 895 306 895 l 252 895 q 200 846 200 885 m 610 813 q 664 765 610 777 l 667 765 q 713 781 684 765 l 713 784 q 678 794 688 794 q 645 786 668 794 q 664 800 653 800 q 629 819 653 819 q 610 813 628 819 m 567 784 l 561 775 l 564 775 l 569 784 l 567 784 m 895 621 l 895 599 q 925 577 905 583 q 952 599 952 577 q 1020 640 973 640 q 1106 575 1106 623 l 1106 569 q 1101 556 1106 556 l 1104 537 q 1093 507 1104 523 q 1188 496 1138 499 q 1313 561 1277 496 q 1323 615 1323 584 q 1196 767 1323 717 q 1117 778 1151 778 l 1106 778 q 911 678 979 778 q 895 621 895 647 m 255 775 l 257 775 l 309 713 l 309 710 l 306 710 q 255 767 278 728 l 255 775 m 577 743 l 575 737 l 577 737 l 580 743 l 577 743 m 569 737 l 567 732 l 569 732 l 572 737 l 569 737 m 322 678 l 322 667 q 368 610 335 610 l 385 610 l 385 613 q 355 659 355 628 l 355 661 q 382 697 355 691 l 385 697 q 420 694 419 694 q 374 732 408 732 q 322 678 332 732 m 211 718 l 217 718 q 303 678 280 678 l 303 675 l 298 675 q 211 713 254 675 l 211 718 m 1104 694 l 1106 694 q 1125 596 1125 647 l 1125 569 q 1117 548 1125 550 l 1117 591 q 1104 691 1117 640 l 1104 694 m 642 689 l 640 683 l 642 683 l 645 689 l 642 689 m 732 683 q 596 577 666 577 l 594 577 q 553 594 575 577 l 553 591 q 577 529 553 579 l 580 529 q 588 542 580 542 q 645 469 645 505 l 645 463 q 637 461 642 463 q 626 463 632 463 l 642 444 l 640 444 l 613 461 q 553 428 553 434 q 740 360 573 428 l 746 360 q 775 412 756 385 q 727 401 735 401 q 813 434 733 410 l 824 434 l 824 436 l 811 439 l 811 442 l 830 442 l 954 428 q 1014 501 1014 452 l 1014 515 q 957 575 1005 575 l 941 575 l 941 572 q 954 564 954 570 l 952 564 q 916 572 937 564 l 916 561 q 784 645 896 594 q 735 683 764 655 l 732 683 m 629 680 l 626 675 l 629 675 l 632 680 l 629 680 m 599 656 l 602 656 q 634 667 602 667 l 634 670 q 623 675 623 670 q 599 656 600 661 m 640 672 l 640 670 l 648 670 l 648 672 l 640 672 m 227 661 l 230 661 q 301 645 266 645 l 301 642 l 287 640 l 274 640 q 227 661 227 640 m 594 656 l 591 651 l 594 651 l 596 656 l 594 656 m 585 651 l 583 645 l 585 645 l 588 651 l 585 651 m 960 583 q 982 577 968 583 q 1020 602 994 602 l 1028 602 q 1098 564 1060 601 l 1098 569 q 1030 629 1098 616 l 1011 629 q 957 583 957 619 l 960 583 m 680 572 l 683 572 q 767 499 727 572 q 770 482 770 484 q 756 463 765 465 l 740 463 q 670 518 711 463 q 659 550 659 534 q 680 572 661 572 m 667 548 q 740 472 667 513 l 754 472 q 759 477 759 472 l 759 488 q 702 558 759 514 q 686 564 693 564 l 675 564 q 667 548 667 561 m 279 493 q 306 501 293 501 l 325 501 q 409 417 382 501 q 480 192 439 284 q 499 141 493 174 q 485 108 497 124 l 488 108 q 534 143 522 118 q 558 208 558 189 q 515 290 558 252 q 507 279 511 279 l 507 311 l 504 311 q 493 293 501 293 q 504 366 504 335 q 398 539 504 495 q 366 542 379 542 q 279 493 313 542 m 585 537 q 634 469 585 495 l 640 469 l 640 472 q 588 537 630 502 l 585 537 m 241 374 q 279 244 241 313 q 409 206 346 206 l 415 206 q 461 214 436 206 q 393 436 436 266 q 314 493 364 493 l 309 493 q 241 406 255 493 l 241 374 m 548 423 q 545 420 548 420 q 583 390 545 408 l 602 406 q 548 423 558 423 m 691 368 q 680 355 680 356 q 729 349 708 349 l 737 349 l 737 352 l 691 368 m 512 322 q 531 287 512 295 q 567 200 567 247 l 564 187 q 585 225 585 200 l 585 230 q 515 322 585 296 l 512 322 m 290 225 q 450 108 373 108 l 458 108 q 488 138 488 113 l 488 146 q 461 208 488 166 q 417 198 441 198 l 409 198 q 290 225 357 198 m 675 43 q 1077 16 1068 43 l 1077 13 q 1022 0 1077 0 l 721 0 q 623 10 623 0 l 623 16 l 607 16 q 539 24 562 16 l 539 27 q 675 43 539 41 m 548 29 l 548 27 q 629 21 580 21 l 642 21 l 632 10 q 735 5 668 5 l 995 5 q 1068 16 1068 5 q 770 35 1026 35 l 645 35 q 548 29 588 35 "},"5":{"x_min":0,"x_max":0,"ha":688},"õ":{"x_min":0,"x_max":0,"ha":685},"7":{"x_min":0,"x_max":0,"ha":688},"K":{"x_min":0,"x_max":1158.40625,"ha":1209,"o":"m 577 1272 q 642 1177 621 1272 q 689 1147 642 1159 q 754 1169 720 1169 l 765 1169 q 797 1155 781 1169 q 822 1161 815 1161 l 838 1161 q 881 1139 858 1161 q 984 1174 928 1174 q 1125 1087 1084 1174 q 1128 1063 1128 1072 l 1128 1044 q 1036 941 1128 986 q 992 933 1007 933 l 971 933 q 925 944 950 933 l 925 941 q 944 854 944 899 l 944 822 q 1044 859 989 859 q 1152 794 1118 859 q 1158 773 1158 784 l 1158 740 q 1052 613 1158 667 q 995 602 1019 602 l 973 602 q 992 507 986 578 l 990 493 q 1006 444 998 482 q 1077 358 1077 379 l 1077 349 q 1033 311 1077 316 q 933 366 994 311 l 930 366 q 919 263 922 314 q 987 198 987 236 l 987 189 q 884 130 967 130 q 930 143 884 133 q 979 195 979 169 q 914 246 959 246 q 873 208 898 208 l 868 208 q 816 271 829 208 l 816 274 l 713 279 q 743 203 743 248 l 743 200 q 572 10 743 88 q 501 0 529 0 l 472 0 q 287 97 358 0 q 279 127 279 118 q 187 116 240 116 q 2 195 40 116 l 0 222 l 0 230 q 184 371 0 333 q 230 453 184 407 l 230 455 q 217 493 217 480 l 217 501 q 293 556 217 524 q 374 637 308 564 q 507 699 467 699 l 507 721 q 477 832 507 760 q 469 906 469 882 q 491 1003 469 952 q 485 1060 485 1037 l 485 1098 q 558 1272 485 1237 l 577 1272 m 539 1182 l 539 1161 l 542 1161 l 542 1182 l 539 1182 m 629 1112 q 642 1082 640 1096 q 632 1041 637 1049 l 634 1041 q 705 1068 667 1068 l 713 1068 l 713 1098 q 718 1104 714 1104 q 784 998 718 1028 l 792 998 q 808 1022 808 1007 q 778 1155 793 1155 q 762 1161 769 1161 l 759 1161 q 632 1112 735 1161 l 629 1112 m 542 1158 l 542 1147 l 545 1147 l 545 1158 l 542 1158 m 800 1147 l 819 1025 q 800 995 811 995 q 851 954 815 954 q 873 1049 873 954 q 881 1106 877 1049 q 819 1152 881 1146 l 800 1147 m 569 1120 q 594 1125 582 1125 q 618 1117 618 1122 q 675 1144 666 1135 q 634 1150 649 1150 q 569 1120 597 1150 m 892 1117 l 892 1090 l 876 960 l 878 960 q 914 1006 906 960 q 938 1071 938 1056 l 938 1077 q 892 1117 938 1104 m 531 1085 l 529 1079 l 531 1079 l 534 1085 l 531 1085 m 526 1077 l 526 1071 l 529 1071 l 529 1077 l 526 1077 m 634 1033 l 634 1028 q 640 1022 635 1022 q 678 1044 640 1035 l 697 1044 q 699 1039 697 1039 q 659 1003 695 1024 l 653 1003 q 691 1036 654 1007 l 691 1039 l 689 1039 q 645 1025 678 1039 q 653 1011 653 1016 q 648 995 653 1007 q 651 971 651 980 l 651 963 l 648 944 l 645 944 q 626 1022 645 976 q 569 968 592 968 l 564 968 q 518 1017 526 968 l 515 1017 q 482 914 482 972 l 482 878 q 553 699 482 814 q 542 672 542 680 l 542 670 q 602 632 542 649 q 634 618 613 618 q 661 648 643 619 l 661 640 l 664 640 q 727 691 678 691 q 748 689 737 689 q 751 718 751 707 q 710 846 751 772 q 884 927 736 871 q 906 954 906 941 q 903 957 903 954 q 881 952 893 952 l 873 952 l 868 954 q 851 946 865 946 l 838 946 q 792 990 812 946 l 786 990 l 770 992 q 737 979 746 979 l 737 984 q 759 998 747 984 q 732 1025 756 998 q 678 1001 714 1020 l 678 1003 q 727 1030 690 1018 l 727 1033 q 716 1060 716 1053 l 708 1060 q 634 1033 677 1060 m 642 1014 l 642 1009 l 645 1009 l 645 1014 l 642 1014 m 675 995 q 718 984 696 995 l 718 971 q 713 965 718 965 l 710 965 q 667 987 710 987 l 661 987 l 661 992 l 675 995 m 661 971 l 664 971 q 691 957 680 957 l 708 957 l 708 952 l 694 949 q 661 965 674 949 l 661 971 m 561 775 l 564 775 q 642 659 600 775 l 642 648 q 626 634 642 634 q 564 664 621 634 l 558 664 l 558 670 q 567 694 567 680 q 553 765 567 701 q 561 775 557 775 m 846 667 l 887 656 l 887 659 q 881 697 881 668 q 846 667 846 669 m 585 664 q 634 642 619 642 q 621 686 634 674 q 585 664 585 675 m 301 510 l 298 510 l 298 518 q 311 558 299 535 l 309 558 q 236 515 247 515 q 358 385 301 420 l 363 385 l 368 404 q 314 474 314 446 q 371 412 344 434 l 377 412 l 382 415 l 382 412 q 368 368 368 382 q 453 363 440 366 q 499 366 474 366 l 539 366 q 561 360 551 366 l 558 387 l 558 393 q 615 523 558 437 q 539 648 615 585 q 461 672 504 672 q 317 548 373 642 q 301 510 301 517 m 447 659 l 461 659 q 466 653 466 658 l 466 648 q 390 572 466 615 l 374 572 q 368 577 368 572 l 368 583 q 447 659 368 626 m 377 580 l 382 580 q 458 642 418 590 l 458 651 l 453 651 q 377 594 425 650 l 377 580 m 927 640 l 927 637 l 933 634 l 933 637 l 927 640 m 941 632 l 941 629 l 946 626 l 946 629 l 941 632 m 949 626 l 949 623 l 957 618 l 957 621 l 949 626 m 531 626 q 548 613 543 623 l 548 596 q 480 523 548 562 l 463 520 q 442 542 442 522 q 510 623 442 581 q 531 626 524 626 m 450 545 q 463 529 450 534 q 539 596 496 529 q 542 604 539 599 q 534 615 538 615 l 526 615 q 450 545 483 615 m 697 599 l 697 596 l 702 596 l 702 599 l 697 599 m 705 591 l 705 588 q 775 561 761 561 l 778 561 q 843 575 837 561 q 729 596 777 596 q 705 591 722 596 m 648 564 l 648 558 q 713 493 648 516 q 732 491 716 491 l 737 491 l 759 510 l 759 507 q 648 387 759 488 q 637 366 638 366 q 667 344 637 347 q 773 393 691 344 q 797 401 786 393 q 830 295 826 401 q 870 217 830 225 l 873 217 q 906 257 906 232 q 922 379 914 335 l 933 379 q 1028 325 1003 325 l 1041 325 q 1068 355 1064 325 q 995 442 1068 369 l 984 461 l 987 461 l 992 458 l 992 461 q 938 531 986 490 l 938 529 q 946 477 946 512 l 946 466 l 944 466 q 933 531 938 466 q 935 534 935 531 q 857 558 895 558 l 851 558 q 784 550 830 558 q 689 585 758 550 l 670 585 q 648 564 648 585 m 862 572 l 862 569 q 976 512 920 569 q 979 510 976 510 l 979 520 q 897 575 963 575 l 881 575 l 862 572 m 873 545 l 876 545 l 876 542 q 838 507 847 507 l 838 510 q 873 545 838 524 m 903 545 l 908 542 q 889 474 901 474 l 887 474 l 887 477 q 903 545 903 539 m 569 382 q 575 339 575 352 q 548 325 554 325 q 656 306 548 309 q 811 287 687 287 q 816 284 811 284 q 803 390 816 364 q 705 344 789 390 q 659 333 685 333 q 626 366 626 341 q 724 477 626 392 l 727 482 q 642 534 662 482 q 569 382 569 451 m 225 507 l 225 499 q 241 461 225 478 q 255 472 255 468 q 227 507 239 501 l 225 507 m 352 377 q 298 322 352 347 q 257 317 272 317 l 244 317 q 295 298 260 298 l 303 298 q 382 339 352 298 q 355 377 355 361 l 352 377 m 371 360 q 415 339 371 354 q 423 358 423 352 l 420 358 q 371 360 382 360 m 13 236 l 13 225 q 132 132 13 149 l 187 127 q 279 146 279 132 q 347 222 279 188 q 417 241 379 236 l 417 244 q 401 276 401 265 l 401 295 q 412 330 401 309 l 393 336 l 390 336 q 295 287 364 287 q 284 290 289 287 l 282 290 l 282 287 q 320 263 305 280 l 320 260 q 162 320 199 320 l 162 322 l 181 322 q 241 306 193 322 q 195 341 241 311 q 184 358 195 349 q 40 293 83 338 q 13 236 13 257 m 518 358 q 510 330 518 356 l 512 330 q 567 347 567 335 q 548 358 562 358 l 518 358 m 507 317 l 507 314 q 526 309 515 314 q 534 311 531 311 q 526 320 534 316 q 507 317 515 317 m 556 306 l 553 301 q 572 276 572 301 l 572 263 q 472 227 559 227 l 472 225 q 529 214 513 214 q 615 260 602 214 l 615 263 q 558 306 615 299 l 556 306 m 607 301 q 626 263 626 282 l 626 257 q 539 206 626 214 l 526 206 l 526 203 q 591 170 551 203 l 585 170 q 423 219 535 198 l 420 219 l 420 222 l 444 222 l 461 219 l 463 219 l 463 222 l 434 238 q 293 149 293 200 l 293 130 q 398 27 293 75 q 485 10 430 16 q 713 141 623 10 q 729 206 729 177 l 729 208 q 667 290 729 266 q 607 301 634 298 "},",":{"x_min":0,"x_max":0,"ha":378},"d":{"x_min":0,"x_max":1625.015625,"ha":1663,"o":"m 303 1587 l 320 1587 q 553 1432 465 1587 q 583 1285 583 1362 q 550 1125 583 1211 l 553 1125 q 737 1220 651 1220 q 841 1147 803 1220 q 887 1136 870 1142 q 957 1169 914 1169 l 960 1169 q 1049 1128 999 1169 l 1049 1131 q 1047 1169 1049 1135 q 1239 1454 1047 1360 q 1340 1475 1297 1475 l 1370 1475 q 1608 1296 1525 1475 q 1625 1218 1625 1241 l 1625 1144 q 1543 957 1625 1062 q 1334 857 1445 857 q 1247 873 1295 857 q 1310 613 1310 745 l 1310 596 q 1264 390 1310 497 q 1025 116 1264 250 q 889 75 972 89 q 748 0 800 4 l 689 0 q 539 103 630 0 q 466 135 537 110 q 225 453 225 279 q 236 520 225 464 q 225 610 225 566 l 225 621 q 349 957 225 819 l 347 957 q 257 944 297 944 l 246 944 q 10 1128 69 944 q 0 1207 2 1163 q 84 1462 0 1330 q 303 1587 180 1587 m 444 710 q 466 607 444 662 l 423 607 q 255 501 301 607 q 246 450 246 463 q 453 168 246 301 q 526 130 485 147 l 526 132 q 512 165 512 158 l 512 168 l 515 168 q 718 16 612 16 q 927 135 809 16 l 930 135 l 930 132 q 906 94 925 122 l 908 94 q 1115 192 975 101 q 1245 387 1245 298 q 1131 526 1245 468 l 1131 529 q 1169 721 1169 634 q 1055 1049 1169 889 q 960 1104 1007 1104 l 957 1104 q 849 1033 906 1104 q 737 1155 794 1155 l 735 1155 q 537 995 652 1155 q 444 710 444 847 m 851 1117 l 851 1112 l 854 1112 l 854 1117 l 851 1117 m 865 1115 l 857 1101 l 859 1101 l 868 1115 l 865 1115 m 1082 1087 q 1123 1022 1119 1022 q 1082 1087 1104 1065 m 759 984 l 762 984 q 827 881 817 984 q 830 843 830 873 l 830 841 q 786 621 830 738 l 846 621 l 843 648 l 843 659 q 922 938 848 890 l 938 938 q 995 838 978 938 q 998 800 995 823 q 933 594 998 681 l 933 591 q 973 556 958 583 l 971 556 q 794 604 891 604 q 661 580 736 604 q 708 607 671 596 l 708 613 q 667 759 667 667 q 732 973 667 891 q 759 984 751 984 m 686 748 q 727 615 686 660 l 732 615 q 737 621 737 615 q 732 653 732 640 l 732 672 q 767 740 732 725 l 778 740 q 797 710 797 727 q 813 824 811 718 l 813 846 q 765 965 807 965 l 762 965 q 686 775 712 965 l 686 748 m 859 694 l 862 694 q 889 718 862 712 l 897 718 q 916 675 913 718 q 900 607 916 657 q 922 602 910 602 q 979 800 979 680 l 979 803 q 935 925 979 907 l 933 925 q 859 699 881 910 l 859 694 m 794 583 l 797 583 q 960 501 923 583 l 963 485 l 963 477 q 876 382 963 408 q 822 374 856 374 l 800 374 q 651 453 691 374 q 645 480 645 476 q 721 572 645 545 q 794 583 758 583 m 472 501 l 491 501 q 518 496 496 501 l 518 491 q 450 480 487 488 q 526 349 453 427 q 789 252 641 252 l 803 252 q 1093 401 989 252 l 1093 404 q 1047 425 1056 425 q 1052 431 1047 431 l 1066 431 q 1150 355 1150 409 l 1150 341 l 1147 322 l 1144 322 q 1109 393 1144 356 l 1104 396 q 1003 287 1085 349 q 938 217 968 267 q 724 59 818 59 l 713 59 q 520 295 575 59 q 491 358 504 350 q 436 472 458 389 q 368 423 419 472 l 363 423 q 472 501 398 501 m 558 233 q 718 78 609 78 q 822 119 764 78 l 822 122 q 716 181 790 181 q 708 179 710 179 q 721 135 721 151 q 572 241 635 241 q 558 233 558 238 "},"¨":{"x_min":0,"x_max":0,"ha":695},"Ô":{"x_min":0,"x_max":0,"ha":1095},"E":{"x_min":0,"x_max":2128.9375,"ha":2175,"o":"m 1011 1698 l 1116 1698 q 1919 1361 1568 1698 q 2128 889 2128 1123 l 2128 808 q 1924 343 2128 577 q 1337 23 1745 129 q 1116 0 1209 0 l 1011 0 q 209 337 560 0 q 0 808 0 574 l 0 889 q 203 1355 0 1120 q 790 1675 383 1568 q 1011 1698 918 1698 m 203 843 q 564 267 203 502 q 1041 133 796 133 l 1087 133 q 1802 476 1509 133 q 1924 855 1924 667 q 1564 1431 1924 1195 q 1087 1564 1331 1564 l 1041 1564 q 325 1221 619 1564 q 203 843 203 1030 m 982 1343 l 1041 1343 q 1203 1239 1162 1343 q 1418 1343 1312 1343 l 1477 1343 q 1663 1122 1663 1343 l 1663 727 q 1517 610 1663 610 l 1361 610 l 1355 639 l 1355 1047 q 1291 1116 1351 1116 q 1221 1052 1221 1100 l 1221 622 q 1209 610 1221 610 l 930 610 q 918 622 918 610 l 918 1041 q 849 1116 918 1116 q 785 1070 807 1104 l 785 622 q 773 610 785 610 l 482 610 l 476 639 l 476 1140 q 587 1314 476 1314 q 628 1320 587 1320 l 767 1320 q 779 1308 779 1318 l 779 1250 q 982 1343 878 1343 m 488 569 l 494 569 l 593 494 q 686 569 639 541 l 691 569 l 704 366 l 634 366 l 628 436 q 575 406 598 406 q 546 436 575 415 l 546 366 l 482 366 l 482 482 q 488 569 482 512 m 930 569 l 953 569 q 1034 499 1034 562 q 971 482 995 482 q 953 499 971 491 l 930 499 q 907 459 907 491 q 948 430 915 430 q 971 453 971 436 q 1041 436 1028 436 q 948 360 1041 377 l 936 360 q 837 453 837 371 l 837 476 q 930 569 849 569 m 732 564 l 808 564 l 808 366 l 732 366 l 732 564 m 1064 564 l 1133 564 l 1133 505 l 1140 505 q 1180 564 1140 519 l 1256 564 l 1256 558 l 1198 482 l 1198 476 l 1262 377 l 1262 366 l 1174 366 q 1145 418 1159 418 l 1133 401 l 1133 366 l 1064 366 l 1064 564 m 1279 564 l 1436 564 l 1436 517 l 1348 517 l 1348 494 l 1431 494 l 1431 436 l 1348 436 l 1348 418 l 1436 418 l 1436 366 l 1279 366 l 1279 564 m 1442 564 l 1523 564 q 1553 505 1534 564 l 1564 505 l 1581 564 l 1663 564 q 1593 413 1593 430 l 1593 366 l 1523 366 l 1523 406 q 1442 564 1523 422 "},"Y":{"x_min":0,"x_max":2349.359375,"ha":2364,"o":"m 1226 1266 l 1323 1266 l 1323 927 q 1470 1085 1467 1085 q 1557 1033 1557 1037 l 1557 1030 q 1399 887 1551 1030 q 1578 718 1577 722 l 1578 716 q 1492 667 1573 716 l 1489 667 l 1323 843 l 1323 680 l 1226 680 l 1226 1266 m 694 1253 q 751 1199 751 1242 l 751 1182 q 702 1133 735 1133 l 686 1133 q 632 1196 640 1133 q 689 1253 646 1253 l 694 1253 m 97 1190 l 192 1190 l 290 832 l 293 832 l 393 1190 l 482 1190 q 520 1006 490 1190 q 583 686 526 990 l 480 670 q 436 1009 436 998 q 390 854 430 1009 q 339 680 385 843 l 244 680 q 151 1011 151 1007 l 149 1011 q 103 670 108 701 l 0 686 q 97 1190 8 720 m 1020 1085 q 1166 1011 1115 1085 l 1166 1009 l 1085 952 q 1017 984 1053 984 l 1009 984 q 933 887 950 984 l 933 873 q 1003 767 933 789 l 1025 767 q 1085 800 1053 767 q 1166 740 1158 749 l 1166 737 q 1022 667 1112 667 l 1017 667 q 838 816 888 667 q 832 868 832 849 l 832 884 q 908 1047 832 979 q 1020 1085 955 1085 m 1771 1085 q 1920 987 1875 1085 q 1928 957 1928 974 q 1717 822 1857 822 l 1698 822 q 1752 765 1698 788 l 1776 765 q 1852 794 1822 765 l 1855 794 q 1907 740 1859 794 l 1907 737 q 1768 667 1857 667 l 1760 667 q 1597 808 1648 667 q 1589 873 1589 843 l 1589 876 q 1717 1077 1589 1022 q 1771 1085 1736 1085 m 2059 1077 q 2154 824 2132 887 l 2156 824 q 2251 1079 2251 1074 l 2254 1079 l 2349 1055 l 2349 1047 q 2110 480 2335 1007 q 2023 507 2029 507 l 2102 708 l 1958 1052 q 2059 1079 2044 1079 l 2059 1077 m 642 1071 l 743 1071 l 743 680 l 642 680 l 642 1071 m 1692 900 l 1692 897 q 1825 963 1785 897 q 1768 987 1807 987 l 1766 987 q 1692 900 1711 987 m 203 523 l 298 523 l 396 162 l 398 162 l 496 523 l 588 523 q 607 434 594 523 q 689 18 621 377 q 585 8 636 8 q 542 339 542 320 l 537 339 q 444 13 537 335 l 349 13 q 257 341 257 335 l 255 341 l 208 5 l 206 5 q 105 18 187 5 l 203 523 m 897 417 q 1082 263 1032 417 q 1087 208 1087 223 q 973 16 1087 78 q 900 0 942 0 q 770 59 824 0 q 716 200 716 123 l 716 217 q 838 406 716 341 q 897 417 876 417 m 1711 417 q 1839 374 1772 417 l 1839 371 q 1782 295 1791 305 q 1719 317 1755 317 l 1711 317 q 1673 287 1685 317 q 1782 241 1673 269 q 1847 146 1847 210 l 1847 119 q 1749 5 1847 43 q 1711 0 1729 0 l 1709 0 q 1576 43 1620 0 q 1616 132 1612 117 l 1619 132 q 1695 100 1652 100 l 1711 100 q 1749 138 1749 109 q 1654 181 1749 155 q 1584 238 1603 200 q 1576 295 1576 267 l 1576 301 q 1676 412 1576 377 q 1711 417 1688 417 m 2078 417 q 2232 314 2189 417 l 2240 295 q 2026 154 2170 154 l 2007 154 q 2061 97 2007 121 l 2086 97 q 2162 127 2134 97 l 2164 127 q 2216 67 2216 83 q 2078 0 2162 0 l 2069 0 q 1907 143 1956 0 q 1899 211 1899 175 q 2010 404 1899 339 q 2078 417 2044 417 m 1158 404 l 1258 404 l 1258 157 q 1294 103 1261 103 l 1299 103 q 1378 168 1355 103 l 1378 404 l 1478 404 l 1478 184 q 1543 51 1478 103 q 1456 2 1469 6 q 1413 56 1413 50 q 1304 0 1349 4 l 1266 0 q 1169 70 1213 0 q 1158 124 1158 99 l 1158 404 m 2002 230 l 2004 230 q 2135 295 2095 230 q 2078 320 2120 320 l 2075 320 q 2002 230 2019 320 m 816 208 q 889 100 816 124 l 908 100 q 979 168 954 100 q 987 208 984 181 q 925 314 987 280 q 900 317 910 317 l 895 317 q 816 208 830 317 "},"\"":{"x_min":0,"x_max":0,"ha":456},"‹":{"x_min":0,"x_max":0,"ha":428},"˙":{"x_min":0,"x_max":0,"ha":695},"ê":{"x_min":0,"x_max":0,"ha":617},"Ï":{"x_min":0,"x_max":0,"ha":446},"„":{"x_min":0,"x_max":0,"ha":617},"Â":{"x_min":0,"x_max":0,"ha":1044},"Í":{"x_min":0,"x_max":0,"ha":446},"´":{"x_min":0,"x_max":0,"ha":695},"ì":{"x_min":0,"x_max":0,"ha":349},"±":{"x_min":0,"x_max":0,"ha":688},"Ú":{"x_min":0,"x_max":0,"ha":1018},"|":{"x_min":0,"x_max":0,"ha":688},"§":{"x_min":0,"x_max":0,"ha":688},"Ý":{"x_min":0,"x_max":0,"ha":836},"b":{"x_min":0,"x_max":1950.5625,"ha":2014,"o":"m 862 1633 q 1152 1492 1031 1633 q 1220 1291 1220 1403 l 1220 1280 q 1158 1096 1220 1182 l 1163 1096 q 1519 927 1342 1096 q 1660 610 1660 763 l 1660 569 l 1657 537 l 1679 537 q 1700 613 1684 537 q 1825 718 1741 718 q 1939 651 1901 718 q 1950 604 1950 623 l 1950 553 q 1850 374 1950 463 q 1809 244 1839 300 q 1578 40 1735 103 q 1435 16 1497 16 l 1397 16 q 1315 24 1348 16 q 1250 0 1288 0 l 1201 0 q 1093 37 1162 0 q 914 73 994 48 q 751 181 780 128 q 648 406 685 247 l 645 406 q 401 255 537 255 l 374 255 q 67 447 210 255 q 0 667 0 560 q 154 935 0 845 q 301 968 225 968 q 556 830 423 968 q 634 702 617 752 l 637 702 q 721 881 647 758 q 859 1014 809 996 l 859 1017 q 632 1133 746 1017 q 564 1299 564 1225 q 561 1332 561 1299 l 561 1348 q 713 1597 561 1507 q 862 1633 780 1633 m 1071 800 q 1161 472 1071 654 l 1185 434 l 1182 434 q 914 539 1030 539 q 729 409 784 539 q 716 336 716 372 q 987 67 716 156 q 1082 51 1065 51 q 1055 92 1055 78 l 1055 94 q 1228 10 1137 10 q 1294 24 1262 10 l 1294 27 q 1082 119 1155 52 q 987 314 987 213 l 987 320 l 990 347 q 887 322 967 347 l 887 325 q 1022 368 923 368 q 1125 336 1095 368 l 1123 336 q 1003 347 1055 347 l 1003 317 q 1185 75 1003 166 q 1426 32 1289 32 q 1757 192 1616 32 q 1823 349 1823 289 l 1823 360 q 1774 347 1804 351 q 1673 431 1699 347 l 1673 472 q 1679 515 1673 484 l 1676 515 q 1521 455 1628 514 l 1521 458 q 1543 482 1534 482 q 1535 653 1538 531 q 1559 708 1547 708 l 1568 708 q 1622 564 1614 708 q 1619 526 1619 541 l 1622 526 q 1638 550 1638 526 q 1641 588 1641 573 q 1549 859 1641 726 q 1502 908 1507 908 q 1483 832 1490 834 q 1291 1049 1414 995 q 1247 1055 1260 1055 q 1085 897 1135 1055 q 1071 800 1074 857 m 1399 786 q 1502 602 1474 786 q 1505 558 1502 579 q 1462 439 1505 465 l 1443 439 q 1361 613 1384 439 q 1356 705 1356 692 q 1399 786 1363 786 m 1421 759 q 1432 705 1432 732 l 1432 702 q 1399 642 1432 642 l 1397 642 q 1378 651 1388 642 l 1378 645 q 1451 453 1395 453 q 1486 556 1482 453 l 1486 558 q 1426 759 1486 689 l 1421 759 m 1587 670 q 1554 615 1587 615 l 1554 583 q 1557 496 1554 554 q 1603 529 1603 516 q 1606 577 1606 554 l 1606 580 q 1589 670 1606 623 l 1587 670 "},"q":{"x_min":0,"x_max":1104.140625,"ha":1095,"o":"m 827 1429 q 968 1348 912 1429 q 984 1285 979 1329 q 908 1163 984 1207 q 865 1155 888 1155 l 859 1155 l 832 1158 q 862 1049 862 1104 l 862 1044 q 990 1115 914 1115 q 1101 1028 1069 1115 q 1104 998 1104 1009 l 1104 984 q 1006 838 1104 881 q 973 832 987 832 l 957 832 q 843 933 875 832 l 843 941 q 773 859 807 881 q 659 813 714 813 q 773 705 691 760 l 805 708 l 811 708 q 841 689 841 704 l 868 689 q 900 683 900 688 q 984 759 912 683 l 998 762 l 1003 762 q 1044 694 1037 762 q 968 613 1044 632 l 968 607 q 946 458 968 556 q 897 325 946 360 q 870 293 893 325 q 851 284 860 284 l 841 284 q 792 314 828 284 q 751 439 775 337 q 721 561 721 497 l 721 572 l 724 577 q 708 607 716 577 l 708 626 q 594 743 670 638 q 553 621 553 702 q 623 349 553 516 q 686 293 663 349 q 822 233 722 271 q 911 200 865 200 q 1066 284 1004 200 q 1087 347 1087 326 l 1090 347 l 1090 333 q 990 206 1090 259 q 906 187 950 187 l 887 187 q 916 116 916 145 q 816 10 916 44 q 751 0 784 0 l 710 0 q 488 135 582 0 q 474 173 474 168 q 333 138 414 138 q 103 230 190 138 q 75 290 75 265 l 75 314 q 160 398 75 371 q 198 401 183 401 l 206 401 q 333 371 242 401 q 344 393 337 383 q 322 480 328 466 q 255 545 269 508 q 290 629 266 554 l 287 634 l 287 653 q 311 748 287 707 l 311 751 l 309 751 q 276 732 290 751 q 244 689 258 727 q 151 596 228 655 q 73 504 82 505 l 56 504 q 2 585 25 504 q 0 683 2 612 q 46 784 0 703 q 108 887 61 845 q 122 960 113 887 q 195 1020 147 1020 q 238 976 238 1011 q 217 911 238 970 q 214 889 217 900 q 274 830 274 838 l 290 830 q 453 868 397 830 q 398 900 438 887 q 333 1009 333 950 q 336 1044 336 1043 q 317 1098 317 1064 l 317 1106 q 371 1163 328 1163 q 417 1101 411 1163 l 417 1085 l 428 1085 q 499 1204 428 1136 q 634 1256 562 1256 q 716 1239 667 1256 q 702 1296 702 1266 l 702 1299 q 805 1426 702 1395 q 827 1429 825 1429 m 545 1207 l 548 1212 l 548 1226 q 442 1104 471 1185 q 436 1079 436 1083 l 442 1077 q 491 1152 459 1152 q 496 1139 496 1144 q 466 1058 496 1111 q 480 1033 480 1047 q 417 1077 441 1077 q 377 1020 417 1026 l 371 1020 q 344 1028 368 1020 l 344 1003 q 447 892 344 942 q 504 881 481 881 l 523 881 q 667 957 603 881 l 661 960 l 634 960 q 656 968 636 968 l 667 968 q 727 935 720 968 q 686 954 697 954 q 642 846 670 942 q 577 808 614 808 q 496 862 549 808 q 455 878 486 873 q 482 851 455 876 l 488 854 q 556 800 549 800 q 594 792 577 792 q 670 854 630 792 q 659 822 670 849 l 661 822 q 775 878 723 832 q 794 927 794 910 l 794 938 q 727 1020 794 997 q 697 1022 708 1022 l 678 1022 q 599 1001 641 1022 l 599 1003 q 675 1196 675 1123 q 629 1245 675 1238 l 623 1245 q 548 1207 598 1245 l 545 1207 m 556 1166 q 567 1144 567 1162 q 520 1041 553 1077 l 510 1036 q 488 1060 488 1036 l 488 1063 q 542 1166 488 1123 l 556 1166 m 496 1055 q 499 1047 499 1049 l 504 1047 l 504 1058 q 526 1090 504 1074 l 537 1090 l 537 1085 l 539 1085 q 558 1144 558 1133 l 558 1152 q 553 1158 558 1158 q 496 1068 518 1158 l 496 1055 m 447 1074 l 453 1071 q 469 1096 459 1096 l 477 1096 q 488 1144 488 1127 l 482 1144 q 447 1074 468 1144 m 124 900 q 127 897 127 900 l 132 900 l 135 900 q 59 794 70 841 l 65 797 l 65 794 q 8 664 8 704 l 8 659 l 10 659 q 46 732 10 679 q 54 756 48 756 l 54 732 q 75 626 54 680 l 73 626 l 56 648 q 32 567 32 602 l 32 561 q 65 512 35 512 q 122 583 78 512 l 225 678 q 246 721 246 713 l 238 721 q 165 786 187 721 l 165 794 l 157 794 q 86 708 110 794 l 84 708 l 84 724 q 162 803 103 803 l 165 803 q 225 859 165 854 l 227 865 q 176 897 193 897 l 176 900 l 189 900 q 206 895 197 900 l 227 984 q 198 1009 214 1009 q 124 900 124 994 m 580 838 l 577 838 l 577 846 l 585 862 l 580 862 q 534 841 550 862 q 577 819 554 819 l 588 819 q 645 884 624 819 l 642 884 q 580 838 614 884 m 173 800 q 238 729 173 748 l 241 729 q 274 746 261 729 q 211 797 211 746 l 211 803 q 227 827 211 819 l 257 827 q 263 832 263 827 q 225 851 242 851 q 173 805 188 851 l 173 800 m 387 827 l 382 819 l 385 819 l 390 827 l 387 827 m 377 819 q 360 800 360 801 l 363 800 l 379 819 l 377 819 m 298 656 l 298 653 q 306 591 298 616 l 301 591 l 295 610 l 293 610 q 265 539 290 583 q 390 474 323 474 l 401 474 q 387 512 394 489 q 347 537 353 526 l 347 539 q 387 523 377 523 l 385 529 l 385 548 l 387 548 q 404 496 396 518 q 420 501 413 501 q 572 455 459 501 q 542 602 542 541 l 542 629 q 550 699 542 654 q 412 792 494 792 l 398 792 q 306 713 333 792 q 298 656 298 685 m 583 762 l 583 759 l 588 756 l 588 759 l 583 762 m 360 762 q 368 754 364 762 l 368 743 q 328 656 368 693 q 309 678 309 656 q 352 762 324 762 l 360 762 m 317 675 l 317 670 q 322 664 318 664 l 325 664 q 363 751 363 707 l 355 756 q 317 675 317 726 m 439 756 q 463 721 463 756 q 417 640 451 640 q 396 675 396 647 q 439 756 396 743 m 952 710 q 954 702 954 705 q 919 683 924 683 l 919 678 q 930 672 930 678 l 927 672 q 862 680 892 678 q 732 575 756 680 l 732 548 q 775 401 732 512 q 811 314 794 314 l 822 314 q 854 398 854 337 q 846 444 854 417 q 838 442 841 442 q 830 444 832 444 l 830 447 q 922 477 849 447 l 922 474 l 916 466 l 916 458 q 897 336 916 408 q 944 501 921 336 q 960 610 952 520 l 938 610 l 938 613 q 957 615 949 615 l 952 623 q 1033 699 1033 631 q 1001 751 1028 751 q 952 710 982 751 m 404 680 q 417 648 404 660 l 420 648 q 455 727 455 678 q 444 748 451 748 l 436 748 q 404 680 404 720 m 13 607 l 13 604 q 18 564 13 590 l 21 564 q 56 656 21 617 q 46 713 48 689 q 13 607 13 669 m 716 613 q 727 591 720 591 q 800 678 727 639 q 832 686 817 686 q 808 699 826 699 q 718 632 755 699 q 716 613 716 621 m 822 661 l 827 661 q 876 569 876 635 q 854 515 876 536 l 854 518 q 865 564 865 543 l 865 577 q 822 661 865 622 m 409 491 q 493 439 409 459 l 493 442 q 461 485 483 485 q 420 493 447 491 q 409 491 415 491 m 854 444 q 862 409 862 432 l 862 382 q 824 301 862 329 q 846 293 841 293 q 908 463 892 293 q 854 444 895 455 m 412 461 q 458 382 434 382 q 493 339 479 373 l 504 333 q 529 349 516 349 q 496 428 518 369 q 412 461 459 428 m 86 301 q 249 160 86 219 q 328 151 300 151 q 469 187 416 151 q 466 227 469 193 q 501 301 466 280 l 499 306 l 499 317 l 501 322 l 488 330 q 434 295 488 301 l 428 295 q 333 352 363 295 q 295 371 333 367 q 198 390 259 385 q 89 314 111 390 l 86 301 m 344 366 l 344 360 q 428 306 344 319 l 442 306 q 482 336 472 306 q 444 377 482 354 l 444 374 l 450 360 q 415 339 450 342 q 352 382 352 350 q 344 366 344 379 m 301 355 l 306 355 q 390 265 390 298 q 306 347 358 303 l 301 355 m 507 311 q 599 260 529 260 q 670 301 670 265 q 626 339 670 326 q 632 317 632 328 l 632 314 q 607 301 632 306 l 599 301 q 531 341 550 301 q 507 311 507 328 m 501 293 q 477 230 477 265 q 618 37 477 112 q 729 13 668 13 q 900 97 876 23 q 903 119 903 108 q 729 257 903 199 l 675 287 q 602 249 658 249 q 501 293 542 249 m 694 246 q 756 238 735 243 l 756 236 l 718 238 q 542 203 630 238 l 542 206 q 694 246 596 246 "},"Ö":{"x_min":0,"x_max":0,"ha":1095},"ﬂ":{"x_min":0,"x_max":0,"ha":733},"z":{"x_min":0,"x_max":1684.703125,"ha":1725,"o":"m 534 1725 q 675 1687 612 1725 q 827 1429 827 1580 l 827 1421 q 659 1142 827 1274 l 661 1142 q 784 1120 711 1142 q 1087 868 965 1059 q 1142 1096 1087 984 q 1413 1285 1256 1285 l 1481 1275 q 1684 927 1684 1183 l 1684 922 q 1633 740 1684 827 q 1364 575 1523 575 q 1150 651 1258 575 l 1152 632 l 1152 613 q 1028 282 1152 423 q 995 208 1013 236 q 735 89 900 89 l 732 89 q 604 0 663 0 l 567 0 q 417 81 506 0 q 325 135 417 95 q 124 284 250 163 q 0 512 0 427 l 0 569 q 10 604 0 583 q 81 659 50 659 l 81 661 q 143 873 81 766 q 385 1098 241 1041 l 385 1101 q 179 1389 179 1198 q 211 1530 179 1458 q 534 1725 349 1725 m 862 822 q 851 922 859 883 q 713 1098 815 1098 q 558 1022 629 1098 q 455 887 506 972 l 455 892 q 450 935 455 924 q 366 1049 421 1049 l 363 1049 q 282 1006 334 1049 q 173 735 173 869 l 173 702 q 187 640 173 673 q 141 642 172 640 q 105 640 139 642 q 13 539 13 622 q 46 431 15 497 q 189 252 76 362 q 401 119 307 152 q 404 122 401 122 q 577 24 503 24 l 596 24 q 675 59 637 24 q 759 141 752 140 l 762 141 l 762 138 q 748 111 762 128 q 843 132 788 111 q 1006 314 1006 200 l 1006 320 q 979 393 1006 355 q 773 480 903 480 q 694 472 733 480 q 713 485 695 478 q 862 822 862 600 m 572 854 q 621 751 621 839 q 567 545 621 650 q 537 501 537 505 q 491 455 507 455 q 499 434 499 442 l 499 423 q 279 545 392 545 l 257 545 q 311 558 257 556 l 311 561 q 260 623 260 580 l 260 626 l 265 626 q 322 561 279 594 l 322 558 l 317 558 l 317 556 q 447 499 370 556 l 450 499 q 444 558 444 539 l 444 583 q 564 854 474 854 l 572 854 m 602 773 q 564 838 595 838 q 529 816 550 838 q 461 556 461 691 q 463 510 463 539 l 466 510 q 523 602 491 602 l 526 602 q 550 548 550 602 l 553 548 q 602 746 602 650 l 602 773 m 311 743 q 374 642 364 743 l 374 634 l 371 634 q 309 732 338 732 q 287 718 288 718 q 311 743 287 739 m 309 664 q 374 564 374 610 l 368 564 q 284 651 326 651 l 260 645 l 260 648 q 279 667 266 661 l 295 667 l 309 664 m 108 531 q 138 518 128 531 l 138 515 l 130 515 l 111 518 q 103 469 103 492 q 230 255 103 358 q 472 162 345 162 l 480 162 q 756 314 669 162 q 721 330 724 326 q 672 344 672 339 l 686 347 l 705 347 q 746 339 721 347 q 824 257 824 298 l 824 255 l 822 255 q 773 301 779 301 q 713 165 750 257 q 583 48 675 48 q 404 149 500 48 q 257 214 320 173 q 84 469 84 330 q 89 518 84 477 q 59 510 63 510 l 59 512 q 94 531 71 531 l 108 531 m 244 504 q 341 480 295 504 q 461 341 461 414 l 461 336 q 377 263 461 271 q 298 282 343 263 q 162 431 162 347 l 162 436 q 244 504 162 493 m 702 195 q 577 103 638 195 l 572 105 q 583 141 572 120 q 564 146 583 145 l 558 146 q 480 105 504 146 q 580 67 525 67 l 588 67 q 623 73 599 67 q 702 192 663 87 l 702 195 "},"™":{"x_min":0,"x_max":0,"ha":1015},"ã":{"x_min":0,"x_max":0,"ha":625},"æ":{"x_min":0,"x_max":0,"ha":986},"®":{"x_min":0,"x_max":0,"ha":1135},"É":{"x_min":0,"x_max":0,"ha":781},"~":{"x_min":0,"x_max":0,"ha":688},"³":{"x_min":0,"x_max":0,"ha":688},"₧":{"x_min":0,"x_max":0,"ha":1375},"¡":{"x_min":0,"x_max":0,"ha":456},"[":{"x_min":0,"x_max":0,"ha":514},"L":{"x_min":0,"x_max":1030.90625,"ha":1048,"o":"m 428 1475 l 431 1475 q 569 1378 540 1475 q 572 1353 569 1368 q 501 1237 572 1292 q 618 1182 573 1221 q 623 1177 619 1177 q 756 1323 640 1323 q 865 1231 832 1323 q 870 1193 870 1211 l 870 1177 q 773 1047 870 1084 q 751 1044 763 1044 l 735 1044 q 683 1058 713 1044 l 683 1055 l 686 1039 l 686 995 q 634 857 686 933 l 634 854 q 697 843 663 843 l 699 843 q 805 925 728 895 q 838 930 824 930 q 933 854 897 930 q 1030 797 1007 854 l 1030 765 q 984 680 1011 680 q 906 645 964 645 q 865 618 891 618 l 851 618 q 822 626 840 618 q 813 577 813 586 l 824 482 q 740 431 824 459 l 694 330 l 713 317 q 854 352 822 352 q 971 276 929 352 q 976 244 976 250 q 843 92 976 158 q 721 67 777 67 l 699 67 q 531 105 622 67 q 344 0 440 0 l 290 0 q 135 78 221 0 q 97 168 97 119 q 103 192 97 180 q 0 293 0 212 q 32 352 6 352 q 8 293 8 320 q 100 203 8 231 l 108 203 q 192 268 131 247 q 363 295 232 279 q 409 325 374 299 q 453 355 453 341 q 491 420 475 382 l 488 420 q 482 425 482 420 q 539 534 482 454 q 545 594 545 581 q 499 721 545 684 q 347 613 430 693 l 347 610 q 360 572 354 596 q 439 491 439 550 q 396 420 439 448 q 309 317 382 317 l 301 317 q 241 333 284 317 q 211 347 223 333 l 206 344 l 184 344 q 113 444 125 344 l 113 447 q 181 580 113 520 q 241 640 181 613 q 404 765 339 734 l 404 767 l 401 767 q 344 759 358 759 q 200 838 244 759 q 132 914 132 868 l 132 922 q 187 976 145 976 q 244 935 210 976 l 249 935 l 249 938 q 230 1020 230 978 q 363 1215 230 1148 q 390 1223 385 1223 l 390 1226 q 303 1283 343 1226 q 290 1332 290 1306 l 290 1342 q 390 1470 290 1430 q 428 1475 411 1475 m 279 1090 l 265 1104 l 263 1104 q 241 1014 241 1074 q 257 941 241 982 l 260 941 q 265 946 265 941 q 246 1006 246 965 q 260 1030 252 1030 q 298 968 282 1030 q 311 946 307 946 q 330 935 330 941 l 298 941 q 252 925 252 933 l 252 922 q 268 881 268 897 q 222 835 262 835 l 217 835 q 336 773 255 773 l 349 773 q 534 895 463 773 q 556 979 556 939 q 526 963 540 973 l 523 963 l 523 965 q 564 987 538 987 l 572 987 q 591 976 587 987 l 572 979 l 564 979 q 561 938 561 952 l 561 933 l 575 843 l 575 835 q 510 778 565 778 l 507 778 q 453 792 487 778 q 415 775 422 775 l 415 773 l 439 773 l 458 778 q 507 770 487 770 l 523 770 q 596 870 587 770 q 599 892 596 873 l 604 892 q 602 846 602 860 l 602 841 l 599 835 l 602 835 q 672 973 666 908 q 618 1047 672 1020 q 580 1052 598 1052 q 463 984 519 1052 l 463 1001 q 387 1188 463 1133 q 366 1193 377 1193 l 355 1193 q 284 1123 323 1193 q 279 1090 279 1096 m 314 1096 l 325 1096 q 366 971 366 1052 l 366 968 q 349 944 366 944 q 295 1049 295 963 q 314 1096 295 1084 m 317 1090 q 306 1055 306 1080 l 306 1036 q 341 954 306 982 q 333 984 333 975 q 344 1006 337 1006 l 349 1006 l 355 1003 q 317 1090 336 1090 m 260 1025 q 255 1009 255 1016 l 255 1001 q 271 946 255 975 l 284 946 q 279 973 279 959 q 287 979 287 976 q 260 1025 270 1025 m 694 800 l 694 792 q 729 748 694 768 q 789 838 729 767 l 789 835 q 743 759 784 822 q 737 735 737 741 l 737 729 q 792 678 748 678 l 792 680 q 838 770 832 767 q 803 675 838 765 l 803 672 q 859 626 803 636 q 897 648 882 626 l 897 651 q 881 656 890 651 l 870 651 l 870 653 q 892 675 870 661 l 900 675 q 887 664 895 664 l 887 659 l 914 656 q 990 716 972 656 l 990 735 q 938 786 990 763 l 938 789 l 944 789 q 963 784 961 784 q 916 832 938 825 l 916 838 l 930 832 l 930 835 q 846 919 886 919 l 843 919 q 708 838 778 919 q 694 800 694 814 m 534 822 q 526 841 528 822 q 493 794 493 827 q 510 786 493 789 q 567 838 567 794 l 567 846 q 558 887 567 862 q 534 822 534 873 m 659 827 l 659 824 l 667 819 l 667 822 l 659 827 m 670 819 l 670 816 l 675 813 l 675 816 l 670 819 m 954 813 q 1001 716 1001 755 l 998 705 l 998 702 l 1001 702 q 1011 737 1011 727 l 1011 743 q 957 813 1011 789 l 954 813 m 667 773 q 691 670 680 670 l 710 664 l 716 664 q 754 683 740 664 q 724 740 733 683 q 683 797 683 761 q 667 773 667 788 m 553 651 l 556 618 l 556 591 q 526 496 551 507 q 493 428 493 448 q 577 406 524 406 q 664 434 664 412 q 691 501 678 462 l 694 501 l 694 493 q 689 466 689 469 l 691 466 q 721 482 716 482 q 683 450 712 470 l 678 439 q 811 488 790 488 l 813 488 l 805 564 l 803 564 q 773 515 803 545 l 770 515 q 813 632 813 602 l 808 634 q 803 629 808 629 l 797 629 q 765 675 775 629 l 765 678 l 759 678 q 710 651 759 662 q 670 591 704 591 l 664 591 q 618 675 618 601 q 653 732 618 725 l 661 732 l 661 746 q 553 651 586 718 m 515 729 l 515 727 l 520 727 l 520 729 l 515 729 m 629 667 q 661 599 629 619 l 667 599 q 702 656 696 599 q 664 713 670 656 q 659 724 664 724 l 656 724 q 629 686 634 724 l 629 667 m 773 672 l 773 670 q 797 634 781 644 q 805 637 803 637 q 786 667 792 667 l 773 672 m 195 583 l 198 583 q 124 442 124 514 q 187 352 124 373 l 200 352 q 179 390 179 377 l 184 390 q 225 349 184 375 q 246 344 242 344 l 246 347 q 241 371 241 357 q 244 379 244 377 l 246 379 q 298 328 255 328 l 301 328 q 385 417 372 328 l 374 417 l 374 409 q 366 379 374 379 l 366 390 l 363 390 q 352 368 358 368 l 352 374 q 387 450 352 406 l 387 447 l 379 425 l 382 425 q 425 482 425 447 l 425 499 q 322 572 425 548 l 322 575 l 333 575 l 333 577 q 271 599 293 599 q 203 580 244 599 l 203 583 q 268 607 203 598 q 339 575 331 600 l 349 575 q 271 629 334 629 l 268 629 q 195 583 195 618 m 241 569 l 241 567 l 217 482 l 214 482 q 208 488 208 482 q 241 569 219 544 m 271 564 l 276 564 l 274 545 l 274 493 q 268 488 274 488 l 265 488 l 263 504 q 271 564 263 518 m 206 550 l 206 545 q 179 480 184 482 q 173 485 173 480 q 206 550 173 514 m 746 444 l 748 444 q 811 480 801 463 l 805 480 q 746 444 746 470 m 537 311 l 542 309 q 604 344 550 325 q 634 401 634 395 l 632 401 q 599 379 607 401 q 537 314 599 370 l 537 311 m 577 396 l 558 352 q 594 396 582 375 l 577 396 m 713 309 l 713 295 q 596 238 713 248 q 556 246 583 238 l 556 244 q 564 200 564 226 l 564 195 q 539 119 564 155 q 637 86 539 110 q 691 81 664 81 l 718 81 q 935 176 847 81 q 963 244 963 210 l 963 246 q 865 339 963 316 l 841 339 q 724 309 818 339 l 713 309 m 545 303 q 550 282 550 293 l 550 263 q 594 249 554 252 l 613 249 q 705 301 705 263 q 691 322 705 316 q 615 287 668 287 q 580 301 593 287 q 594 328 583 312 l 594 330 q 545 303 564 320 m 379 271 l 379 265 q 442 227 379 233 l 461 227 q 542 284 542 236 q 531 301 536 301 q 458 260 497 260 q 409 284 409 266 l 434 325 q 379 271 379 301 m 756 303 q 664 211 685 239 l 664 217 q 746 301 664 246 q 756 303 747 301 m 111 165 l 111 157 q 246 21 111 87 q 325 10 295 10 q 512 105 426 10 q 550 198 550 154 l 550 217 q 545 252 550 227 q 444 214 508 214 q 412 222 423 217 l 412 219 q 439 200 439 206 l 434 200 q 268 252 321 252 q 274 257 269 257 l 276 257 q 390 230 325 257 l 390 233 q 368 263 377 233 l 368 274 q 374 290 368 281 l 371 290 q 208 260 329 277 q 111 165 111 219 "},";":{"x_min":0,"x_max":0,"ha":378}," ":{"x_min":0,"x_max":0,"ha":345},"∑":{"x_min":0,"x_max":0,"ha":818},"%":{"x_min":0,"x_max":0,"ha":1092},"P":{"x_min":0,"x_max":1055.3125,"ha":1107,"o":"m 450 1437 l 466 1437 q 596 1359 543 1437 q 610 1307 610 1334 l 610 1291 q 539 1182 610 1230 q 648 1101 594 1169 q 686 1011 672 1068 q 727 960 718 1011 q 634 805 727 890 l 632 805 l 632 803 l 640 803 q 746 838 712 838 l 748 838 q 813 906 765 906 q 878 938 813 923 q 900 941 893 941 q 992 895 957 941 q 1033 841 1018 884 q 1055 800 1055 824 l 1055 775 q 998 713 1055 734 l 987 710 q 963 718 965 718 q 876 697 924 697 q 800 713 854 697 q 770 721 790 713 l 770 718 q 813 583 813 672 q 830 507 824 574 q 762 439 830 476 q 724 363 748 439 q 737 349 737 351 q 908 387 863 387 q 1022 325 990 387 q 1028 301 1028 307 l 1028 279 q 941 165 1028 229 q 762 119 859 119 l 724 119 q 580 146 642 119 q 420 13 541 59 q 352 0 376 0 l 287 0 q 141 103 200 0 q 132 138 132 123 q 290 257 132 218 q 401 284 371 272 q 469 330 401 305 l 474 341 l 469 339 l 455 339 q 309 355 434 339 l 303 355 q 168 293 226 355 l 165 293 l 165 295 q 309 366 222 366 q 444 349 311 366 q 499 374 489 349 q 539 447 520 406 q 472 485 499 447 q 447 507 455 507 q 387 567 387 518 l 387 569 q 447 710 387 607 q 453 732 453 728 q 439 746 439 739 l 412 746 q 301 816 333 746 q 236 957 236 883 q 135 919 188 919 q 8 1022 53 919 q 0 1077 0 1055 q 81 1212 0 1174 l 100 1215 l 122 1215 q 233 1128 180 1215 q 255 1060 246 1104 l 257 1060 q 352 1166 282 1121 q 417 1188 393 1188 q 336 1315 336 1241 q 425 1435 336 1395 q 450 1437 440 1437 m 349 1068 q 434 911 349 954 l 434 908 q 314 843 332 908 q 311 832 311 838 q 404 756 311 778 q 428 754 419 754 l 420 767 l 423 767 q 493 724 475 724 q 575 775 527 724 q 678 865 613 789 q 716 963 716 923 q 670 1003 716 1003 q 640 1001 646 1001 l 642 1020 q 572 1155 642 1098 q 548 1163 555 1163 q 515 1101 524 1163 q 518 1093 518 1096 l 515 1093 q 406 1169 455 1169 q 349 1085 358 1169 l 349 1068 m 477 1074 q 537 944 525 1058 l 537 933 q 596 973 594 967 q 610 992 607 992 l 610 987 q 599 963 610 977 q 615 960 601 963 l 615 957 q 518 895 569 957 q 504 919 518 912 q 453 1039 453 975 l 453 1044 q 477 1074 453 1074 m 461 1044 l 461 1041 q 488 949 461 1002 l 491 949 q 501 971 491 971 q 526 938 526 956 l 529 938 l 529 946 q 485 1060 529 1001 l 477 1066 l 472 1066 q 461 1044 465 1066 m 585 1039 q 594 1036 591 1036 l 594 1028 l 588 1030 l 583 1030 q 564 990 564 1012 l 561 990 l 561 1006 q 585 1039 561 1039 m 599 1009 q 610 998 608 1006 q 569 968 581 998 q 564 960 569 960 l 564 965 q 599 1009 575 1009 m 689 960 q 699 952 699 956 l 686 952 q 691 925 689 948 q 585 792 691 847 q 537 748 579 792 q 493 735 511 735 q 420 816 453 735 q 412 830 412 822 l 409 830 l 390 811 l 390 813 q 444 857 390 846 l 450 857 l 450 851 q 420 838 432 851 l 420 835 q 510 789 457 789 l 531 789 q 678 895 618 789 l 680 922 l 680 930 q 675 952 680 942 l 670 949 l 664 949 l 664 952 q 689 960 664 960 m 626 941 l 632 941 q 659 922 659 933 l 659 903 q 594 838 659 870 q 572 832 577 832 q 537 868 537 837 q 604 938 537 907 q 626 941 615 941 m 800 887 q 797 892 800 892 q 759 838 759 868 q 767 835 765 835 q 800 841 773 835 q 873 775 873 828 l 873 767 q 832 713 873 737 q 881 708 859 708 q 1017 765 943 708 l 1017 759 l 1009 748 l 1014 751 l 1025 751 q 990 737 1025 742 q 973 727 990 732 l 973 724 l 987 721 q 1049 786 1032 721 q 1011 851 1049 811 q 1014 862 1014 856 q 949 906 986 895 l 949 908 l 952 908 l 968 906 q 897 930 944 930 q 800 887 847 930 m 841 884 l 846 884 l 846 881 q 816 841 816 849 l 813 841 l 813 854 q 841 884 819 868 m 903 876 q 835 838 903 874 q 832 835 835 835 l 830 835 l 830 838 q 903 876 866 876 m 789 830 l 789 827 q 835 778 835 807 q 792 740 819 740 l 789 740 q 759 746 770 740 l 759 743 q 811 721 778 721 q 862 765 862 730 l 862 773 q 800 832 862 817 q 789 830 795 830 m 903 835 l 908 835 l 908 830 l 862 813 l 862 816 q 903 835 879 835 m 444 792 q 493 743 465 743 q 539 765 520 743 q 510 778 539 774 l 496 775 l 501 767 l 501 759 q 444 792 471 792 m 743 748 q 748 743 744 743 l 748 748 l 743 748 m 694 743 l 694 740 l 697 740 q 705 743 702 743 l 705 746 l 702 746 q 694 743 697 743 m 664 729 l 664 727 l 667 727 q 691 737 687 737 l 691 740 l 689 740 q 664 729 669 729 m 732 740 q 640 623 712 668 q 599 613 607 613 l 569 613 l 564 615 l 564 613 q 577 548 577 580 q 523 390 577 485 l 567 385 q 705 423 636 385 q 721 480 713 480 l 721 469 q 770 523 735 478 l 770 520 q 718 453 767 501 q 716 439 718 444 l 721 439 q 819 499 781 453 l 819 510 q 811 572 819 534 l 808 572 q 803 564 808 564 l 803 588 q 732 740 803 693 m 515 713 l 515 694 l 518 694 l 518 713 l 515 713 m 740 710 l 748 710 q 794 629 779 710 q 789 623 794 623 l 786 623 q 740 699 758 623 l 740 710 m 748 705 l 748 699 q 786 629 769 629 q 789 632 786 632 q 751 705 767 705 l 748 705 m 493 702 l 493 699 l 504 691 l 504 694 l 493 702 m 507 686 l 507 683 l 512 680 l 512 683 l 507 686 m 488 596 q 496 594 493 594 q 553 613 511 602 l 531 656 l 529 656 q 488 596 504 632 m 699 648 l 710 648 q 756 567 744 648 l 756 553 q 743 531 756 538 l 740 531 q 689 621 705 531 l 689 626 q 699 648 693 648 m 702 642 q 697 626 697 634 q 735 539 697 577 q 743 537 740 537 q 748 561 748 547 q 702 642 735 642 m 550 604 l 550 602 l 556 602 l 556 604 l 550 604 m 512 594 l 512 591 q 550 558 550 588 l 550 548 q 469 504 550 504 l 469 499 q 507 485 494 485 q 564 526 564 489 q 567 548 564 529 q 550 596 567 596 l 531 596 l 512 594 m 556 493 q 510 477 542 477 l 496 477 q 545 455 515 455 l 558 493 l 556 493 m 567 322 l 572 320 q 623 355 585 333 q 637 379 634 376 l 637 382 q 583 363 583 376 q 567 322 583 357 m 743 341 q 746 330 743 335 q 724 290 743 309 l 727 290 q 824 352 789 347 q 678 236 775 322 l 678 238 q 716 284 691 259 l 713 284 q 634 260 682 260 l 623 260 q 585 268 603 260 l 585 265 q 596 217 596 246 l 596 214 q 585 157 596 191 q 743 130 652 130 q 998 236 912 130 q 1017 293 1017 262 q 949 368 1017 346 q 903 374 927 374 l 900 374 q 743 341 866 374 m 716 352 q 656 309 716 322 l 640 309 q 615 320 619 309 l 615 333 l 618 339 q 577 309 590 325 q 583 287 583 299 l 583 279 q 623 271 607 271 l 642 271 q 737 330 714 271 q 721 352 737 341 l 716 352 m 412 284 l 412 274 q 482 236 421 236 q 572 290 572 246 q 561 309 566 309 l 556 309 q 491 268 556 284 l 474 268 q 444 284 453 268 l 444 290 q 455 314 444 300 l 453 314 q 412 284 412 295 m 146 138 q 241 24 146 80 q 314 10 278 10 l 322 10 q 550 122 457 10 q 585 208 585 170 l 585 222 q 572 263 582 263 q 491 227 545 227 l 480 227 q 401 271 401 236 q 189 206 235 238 q 146 138 146 171 m 325 225 q 482 179 464 210 l 480 179 q 301 219 379 219 l 301 222 l 325 225 "},"∏":{"x_min":0,"x_max":0,"ha":1028},"À":{"x_min":0,"x_max":0,"ha":1044},"_":{"x_min":0,"x_max":0,"ha":695},"ñ":{"x_min":0,"x_max":0,"ha":751},"+":{"x_min":0,"x_max":0,"ha":688},"‚":{"x_min":0,"x_max":0,"ha":378},"½":{"x_min":0,"x_max":0,"ha":1332},"Æ":{"x_min":0,"x_max":0,"ha":1436},"₣":{"x_min":0,"x_max":0,"ha":688},"Ë":{"x_min":0,"x_max":0,"ha":781},"'":{"x_min":0,"x_max":0,"ha":235},"ª":{"x_min":0,"x_max":0,"ha":439},"˛":{"x_min":0,"x_max":0,"ha":695},"ð":{"x_min":0,"x_max":0,"ha":773},"T":{"x_min":0,"x_max":982.0625,"ha":1021,"o":"m 664 1342 q 803 1245 754 1342 q 811 1190 811 1211 q 724 1079 811 1098 q 699 1077 714 1077 l 683 1077 l 678 1079 l 678 1077 q 751 908 751 1004 q 762 881 758 908 l 762 876 q 675 732 762 811 q 784 697 703 720 q 830 618 830 678 l 830 604 q 849 577 841 593 q 968 520 934 559 q 982 491 982 500 l 982 450 q 887 363 982 398 l 878 363 q 813 371 840 363 l 813 368 q 805 349 805 358 q 824 298 817 349 q 919 203 838 278 q 963 100 963 158 q 857 0 963 14 l 794 0 q 724 16 764 0 q 653 0 684 0 l 604 0 q 439 116 517 0 q 404 238 404 185 q 442 320 404 295 q 450 347 442 331 l 398 347 q 282 425 309 347 l 282 428 q 132 352 181 428 q 127 322 127 329 q 130 257 130 262 q 56 138 130 188 q 10 127 29 127 l 0 127 l 0 130 q 113 222 75 130 q 119 252 119 241 q 116 330 116 322 q 179 417 116 373 q 279 447 212 431 q 393 602 279 513 q 463 686 442 654 l 463 689 q 355 740 422 689 q 336 792 336 769 q 303 903 303 840 l 303 944 l 306 957 l 303 957 q 246 941 273 941 l 236 941 q 135 1033 162 941 q 132 1063 132 1057 q 230 1220 132 1162 q 274 1228 260 1228 l 282 1228 q 371 1163 346 1228 q 377 1133 377 1152 l 377 1104 l 374 1085 q 526 1142 448 1142 q 564 1136 540 1142 l 564 1139 q 539 1215 539 1175 q 640 1340 539 1302 q 664 1342 654 1340 m 469 1071 q 425 1087 440 1087 l 420 1087 q 355 982 355 1074 l 355 965 q 393 830 355 906 q 347 784 347 814 q 417 713 347 746 q 504 694 466 694 l 488 710 l 493 710 q 585 672 551 672 q 670 756 636 672 l 675 759 l 675 756 l 670 743 l 672 743 q 754 881 754 822 q 680 933 737 933 q 656 927 676 933 l 656 933 q 561 1123 656 1056 q 537 1128 543 1128 l 529 1128 q 469 1071 493 1128 m 518 1047 l 529 1047 q 572 935 566 1047 l 569 911 q 594 900 594 906 l 575 903 q 461 846 514 903 l 461 851 q 477 876 465 863 q 431 979 431 905 q 447 1014 436 1014 l 458 1014 q 507 895 478 1014 q 531 908 531 905 q 501 1006 501 955 q 518 1047 504 1042 m 510 1006 q 542 908 510 952 q 534 935 534 923 l 534 938 q 542 954 536 954 q 561 941 561 954 l 564 941 l 564 949 q 523 1041 554 1041 q 510 1006 513 1041 m 439 976 q 485 878 439 910 l 488 884 q 472 916 472 893 q 482 933 472 933 q 491 930 488 930 l 491 933 q 453 1009 469 1003 q 439 976 442 1009 m 561 892 q 604 851 604 892 q 575 816 594 825 q 523 797 543 797 l 501 797 q 469 824 469 800 l 469 832 q 561 892 469 874 m 667 873 l 678 873 q 710 857 701 873 l 708 857 q 680 865 702 857 q 656 797 673 829 q 615 697 641 697 q 577 686 612 689 q 472 746 540 686 q 409 773 442 756 q 390 754 409 769 l 390 765 q 436 794 408 794 q 417 781 436 788 l 417 778 q 507 751 466 751 l 534 751 q 672 859 634 751 l 672 865 l 670 865 q 642 862 666 865 q 667 873 646 873 m 583 713 l 583 716 l 588 735 l 583 735 q 542 710 557 735 l 542 708 q 580 694 542 700 q 640 756 629 694 l 640 759 q 583 713 613 754 m 659 678 l 659 661 l 661 661 l 661 678 l 659 678 m 735 645 l 735 637 l 737 637 l 737 645 l 735 645 m 661 640 q 634 539 661 605 l 672 539 q 699 575 691 539 q 735 607 704 581 l 735 618 q 661 640 692 636 m 523 632 l 520 626 l 523 626 l 526 632 l 523 632 m 507 604 l 496 588 l 501 591 l 515 591 q 580 577 563 577 q 626 545 610 561 q 642 591 642 585 l 640 591 q 602 583 622 583 l 580 583 q 507 604 545 583 m 699 556 q 811 580 736 580 q 838 577 834 577 q 792 604 838 595 l 773 604 q 699 556 728 604 m 477 564 l 499 564 q 501 569 499 569 q 537 529 530 569 q 520 493 537 514 l 529 469 l 531 469 q 564 518 564 489 l 564 534 q 512 585 554 585 q 477 564 491 585 m 556 575 l 556 572 q 572 531 572 550 l 572 520 q 539 466 572 486 q 569 396 539 436 l 569 393 q 539 434 556 393 l 539 436 l 537 436 l 537 434 q 561 371 552 371 l 585 358 q 594 406 585 377 l 596 406 l 596 404 q 594 349 594 367 q 632 311 619 311 q 651 298 632 308 l 653 298 q 667 385 667 331 q 572 572 667 529 q 556 575 570 572 m 683 510 l 683 499 q 762 458 683 470 q 797 444 779 444 q 824 463 815 444 l 824 477 q 756 537 824 529 q 773 542 756 542 l 767 550 l 770 550 q 813 523 775 549 q 835 534 825 534 q 819 515 819 516 q 832 477 832 491 l 832 469 q 786 431 832 441 q 813 401 792 401 q 903 488 849 401 q 908 518 908 499 q 892 548 908 529 l 892 550 l 895 550 q 916 510 916 535 l 916 507 q 835 396 916 465 q 811 393 825 393 q 841 374 821 374 q 935 444 881 374 q 949 491 949 466 q 862 564 949 551 q 794 572 840 569 q 686 529 716 572 l 683 510 m 290 444 q 387 358 290 376 q 417 355 398 355 l 423 355 q 401 412 401 377 l 401 425 q 420 474 402 446 l 393 477 q 344 461 389 477 l 344 466 q 377 477 371 477 l 377 480 l 371 480 l 355 477 q 374 485 355 483 q 349 531 349 509 q 358 558 349 543 l 355 558 q 290 444 290 498 m 466 556 l 461 548 l 463 548 l 469 556 l 466 556 m 653 529 l 640 529 l 640 526 q 672 412 672 472 l 678 412 l 702 466 l 699 466 q 675 501 675 476 l 675 507 q 680 531 675 514 l 678 531 q 653 529 663 529 m 944 529 q 957 488 952 516 q 868 374 957 424 l 868 371 l 873 371 q 963 425 916 371 q 976 463 976 446 l 976 474 q 946 529 976 505 l 944 529 m 477 512 l 477 510 q 501 507 499 510 l 504 507 l 504 510 l 493 512 l 477 512 m 444 496 q 474 507 464 507 l 474 510 l 469 510 q 444 496 444 501 m 439 496 l 436 491 l 439 491 l 442 496 l 439 496 m 379 482 l 379 480 l 385 480 l 385 482 l 379 482 m 531 461 l 531 455 l 534 439 l 537 439 l 537 447 l 534 461 l 531 461 m 444 434 l 444 423 l 447 423 l 447 434 l 444 434 m 675 385 l 675 379 q 710 409 710 394 q 718 423 713 409 l 694 423 q 675 385 687 423 m 724 420 q 713 396 724 410 l 713 393 q 732 420 717 394 l 724 420 m 447 415 l 447 406 l 450 406 l 450 415 l 447 415 m 675 366 l 675 352 q 672 328 675 343 q 767 268 706 268 q 813 309 813 268 l 813 311 q 797 344 813 333 q 786 320 790 320 l 789 314 q 773 306 786 306 l 765 306 q 702 363 702 322 l 710 382 l 705 382 q 675 366 675 374 m 420 374 q 447 355 428 355 l 461 355 q 455 379 455 368 l 453 379 q 420 374 420 379 m 561 360 q 577 320 577 326 l 580 320 l 580 325 l 583 325 l 583 317 q 542 295 583 303 l 529 295 q 461 347 495 295 q 453 328 453 337 l 453 322 q 537 252 453 271 l 548 252 q 610 293 610 257 l 610 298 q 561 360 610 335 m 667 311 l 661 293 l 781 233 q 838 222 838 233 q 786 227 809 227 q 830 146 830 187 l 830 135 q 746 27 830 68 l 743 27 l 743 21 q 830 8 788 8 q 946 73 919 8 q 952 108 952 100 q 843 257 952 174 q 822 290 822 285 q 773 260 799 260 l 762 260 q 667 311 712 260 m 415 246 l 415 244 q 534 35 415 124 q 632 10 585 10 q 781 65 707 10 q 816 138 816 101 l 816 146 q 659 282 816 221 q 618 306 657 284 l 621 293 q 558 244 607 244 l 537 244 q 444 309 475 244 q 415 246 415 292 m 675 249 l 686 249 l 686 246 q 518 157 614 239 l 518 160 q 618 236 567 215 q 675 249 654 249 "},"Þ":{"x_min":0,"x_max":0,"ha":760},"j":{"x_min":0,"x_max":1204.53125,"ha":1229,"o":"m 377 1383 q 482 1294 452 1383 l 488 1258 q 477 1196 485 1228 q 545 1228 519 1228 l 553 1228 q 596 1199 578 1228 l 613 1196 q 637 1207 627 1207 l 651 1207 q 680 1193 660 1207 l 680 1215 q 792 1337 680 1304 l 813 1337 q 922 1245 890 1337 q 925 1215 925 1226 l 925 1209 q 827 1079 925 1117 q 805 1077 817 1077 l 794 1077 l 767 1079 q 792 968 792 1029 q 773 878 792 929 q 670 762 773 816 l 670 759 q 835 661 775 680 q 873 678 852 678 l 887 678 q 1028 792 961 792 l 1039 792 q 1079 762 1073 792 l 1079 751 q 992 653 1079 724 l 992 651 l 1011 648 q 1152 710 1044 648 l 1177 716 q 1204 702 1195 716 l 1204 667 q 1123 588 1204 630 q 1060 572 1073 572 l 1060 569 q 1142 526 1072 545 q 1152 504 1152 514 q 1082 453 1152 460 l 1077 453 q 992 491 1028 453 l 990 491 q 927 477 965 477 q 881 493 902 478 q 846 491 880 493 l 827 493 q 775 477 809 481 q 789 431 789 440 q 737 387 772 412 q 705 274 705 290 q 727 249 723 249 q 857 257 838 257 q 1001 154 1001 244 l 1001 146 q 868 21 1001 60 q 784 13 822 13 q 542 81 652 13 q 423 8 519 37 q 371 0 388 0 l 287 0 q 119 78 201 0 q 94 149 94 118 l 94 168 q 198 268 94 244 q 151 431 170 307 q 127 512 151 455 q 181 333 149 512 q 219 268 199 286 l 238 268 q 387 246 263 268 q 434 274 394 262 l 482 377 q 472 398 476 377 q 504 564 504 486 q 491 667 499 649 q 255 594 385 594 q 203 596 211 596 q 168 588 183 588 q 105 610 139 588 q 24 713 24 631 q 32 759 27 748 q 0 832 0 780 l 0 841 q 65 908 14 908 q 116 938 87 938 l 124 938 q 162 922 141 938 q 230 1041 162 980 q 263 1049 255 1049 q 298 1022 292 1049 l 298 1006 q 255 876 298 998 q 238 727 238 826 q 260 697 246 724 q 322 689 298 689 q 453 754 372 689 l 458 762 q 336 900 336 824 q 339 933 336 918 q 336 979 336 954 l 336 984 q 385 1117 336 1058 q 349 1112 373 1112 l 347 1112 q 246 1182 274 1112 q 241 1223 241 1208 q 320 1370 241 1316 q 377 1383 341 1383 m 428 1014 q 436 971 428 1003 l 420 971 q 347 916 360 971 l 347 903 q 461 773 347 831 l 461 775 q 458 784 458 781 q 545 724 502 724 q 629 773 579 724 l 632 773 l 623 759 l 623 756 q 756 851 720 788 l 762 870 l 762 887 q 716 938 762 909 q 732 1020 727 967 q 672 1169 732 1098 q 645 1180 653 1180 q 596 1150 623 1180 q 548 1201 575 1201 q 447 1101 507 1201 q 428 1014 428 1046 m 564 1131 q 591 1066 588 1131 q 575 979 591 1041 l 596 979 q 594 987 594 984 q 632 1112 599 1112 l 637 1112 q 661 1052 661 1098 q 634 965 661 1008 q 651 949 649 959 l 648 949 q 583 968 618 968 l 564 968 q 518 960 551 968 q 537 971 524 971 l 537 973 q 520 1036 520 996 q 564 1131 528 1131 m 558 1123 q 529 1033 529 1086 q 548 976 535 980 l 550 976 l 548 990 q 561 1028 548 1020 l 567 1028 q 575 1017 575 1028 l 577 1017 q 583 1071 583 1044 q 558 1123 579 1123 m 602 1011 l 615 1020 q 626 1001 626 1018 q 618 971 626 986 l 626 971 q 651 1044 651 994 l 651 1068 q 634 1104 645 1104 l 632 1104 q 602 1014 615 1104 l 602 1011 m 168 876 l 168 870 q 203 827 168 848 q 227 759 227 800 q 217 724 225 724 l 219 737 l 219 748 q 173 835 219 814 q 119 876 132 876 l 108 876 q 89 849 89 864 l 89 846 q 154 756 89 782 l 154 754 l 138 754 l 132 756 l 132 754 q 141 746 137 754 l 135 746 l 119 756 q 105 705 105 727 l 105 691 q 138 642 105 659 l 138 640 l 130 640 q 94 705 94 659 q 116 762 94 733 l 116 765 l 113 765 l 86 767 q 51 751 73 751 q 40 754 46 754 q 35 713 35 724 q 108 618 35 646 q 141 615 116 615 q 130 610 141 610 l 130 607 q 162 602 149 602 l 168 602 q 252 678 236 602 l 252 680 q 236 713 243 712 l 233 713 q 184 629 233 672 q 168 623 175 623 q 219 697 219 666 q 233 843 229 697 l 287 1011 l 287 1028 q 265 1041 280 1041 q 184 960 223 1041 q 168 876 168 927 m 580 963 q 645 922 645 954 l 645 911 q 585 873 645 879 l 575 873 q 512 914 512 881 l 512 925 q 577 963 520 963 l 580 963 m 59 851 l 59 849 q 108 773 65 782 q 78 841 78 805 l 78 843 q 111 884 84 884 l 122 884 q 160 865 132 884 l 160 908 q 119 930 153 922 q 59 851 71 930 m 434 927 l 455 927 q 461 922 461 927 q 431 916 435 919 q 567 824 468 824 l 588 824 q 697 884 653 824 l 697 887 q 680 897 680 894 l 691 897 q 724 868 724 890 l 724 851 l 708 878 q 705 881 708 881 q 645 822 699 864 q 539 740 592 740 q 453 859 480 740 q 425 911 430 883 l 425 914 l 423 914 l 393 892 l 393 895 q 434 927 408 927 m 10 835 q 54 762 19 762 l 56 762 q 81 775 81 767 q 48 854 48 803 q 59 897 48 870 l 54 897 q 10 835 10 879 m 477 816 l 477 813 q 534 751 499 751 l 545 751 q 585 767 562 751 q 550 792 572 792 l 539 792 l 539 789 q 545 773 545 780 q 482 816 510 816 l 477 816 m 841 610 q 854 615 849 615 q 737 550 843 601 q 721 526 721 532 q 770 488 721 494 q 862 526 809 488 l 865 526 l 865 523 l 843 501 l 849 501 q 952 534 898 501 l 952 531 q 892 499 952 518 l 892 496 q 930 488 913 488 l 941 488 q 1006 504 963 488 q 1001 499 1006 499 q 1068 466 1023 466 l 1093 466 q 1142 501 1142 474 q 1098 529 1142 520 q 1052 569 1052 548 l 1033 569 l 1033 572 l 1131 604 q 1196 678 1196 647 l 1196 689 q 1180 705 1196 705 q 1039 640 1165 705 q 1014 637 1029 640 q 982 642 987 642 q 963 623 982 638 l 963 626 q 1052 724 967 648 q 1071 759 1068 742 q 1036 784 1071 779 q 900 678 972 784 l 841 610 m 694 727 l 694 724 l 705 716 l 705 718 l 694 727 m 705 713 l 705 710 l 710 708 l 710 710 l 705 713 m 512 599 l 515 575 q 480 398 515 469 q 545 363 498 363 q 642 404 642 378 q 670 461 661 452 l 670 458 l 667 444 l 670 444 q 718 472 714 472 q 661 431 702 452 l 645 382 l 664 382 q 781 436 728 382 q 762 480 766 479 q 713 529 713 486 q 737 564 713 543 q 702 629 709 564 l 702 648 q 713 667 702 663 l 721 667 q 751 594 751 639 l 751 585 q 746 569 751 578 l 748 569 q 762 575 757 575 q 716 678 739 678 q 653 694 694 694 q 512 599 569 694 m 797 591 q 878 670 816 591 l 873 670 q 797 594 836 670 l 797 591 m 618 670 q 659 585 646 670 q 632 545 659 545 l 626 545 q 588 618 588 556 q 618 670 588 670 m 613 661 q 599 629 599 647 l 599 621 q 626 553 599 570 q 648 577 648 553 l 648 591 q 613 661 640 661 m 710 653 l 710 623 q 732 572 721 572 l 740 572 l 743 585 q 718 659 743 635 l 716 659 q 710 653 710 658 m 770 588 l 770 580 q 778 583 775 583 q 773 588 778 588 l 770 588 m 526 263 q 545 233 545 249 l 545 211 q 567 233 567 225 q 610 279 567 255 l 642 374 l 640 374 q 629 377 635 377 q 561 352 612 366 l 526 263 m 697 265 q 637 230 692 230 q 602 263 602 230 q 577 230 577 247 l 577 227 q 637 192 585 192 q 713 244 698 192 q 699 265 713 259 l 697 265 m 387 222 q 458 179 387 187 q 537 227 537 186 l 537 233 q 518 255 530 251 q 474 217 509 217 l 453 217 q 417 241 417 217 q 425 260 417 246 l 420 260 q 387 222 387 244 m 103 154 q 222 27 103 74 q 330 8 273 8 q 515 67 432 8 q 550 130 550 103 l 550 143 q 531 195 550 179 q 458 170 502 170 l 455 170 q 379 211 397 170 q 377 227 377 225 l 382 238 l 233 257 q 108 189 134 257 l 103 154 m 721 238 q 651 184 700 184 l 629 184 q 572 214 585 184 l 567 214 l 545 195 q 561 138 561 164 l 561 130 q 550 89 561 122 l 550 86 q 794 27 667 27 q 987 132 948 27 l 990 157 q 889 244 990 221 q 857 246 875 246 l 854 246 q 721 238 829 246 m 322 225 l 325 225 q 431 143 395 201 l 431 138 q 322 222 369 198 l 322 225 m 786 222 l 786 219 q 651 157 767 219 q 770 222 695 201 l 786 222 "},"1":{"x_min":0,"x_max":0,"ha":688},"›":{"x_min":0,"x_max":0,"ha":428},"ı":{"x_min":0,"x_max":0,"ha":349},"ä":{"x_min":0,"x_max":0,"ha":625},"<":{"x_min":0,"x_max":0,"ha":688},"£":{"x_min":0,"x_max":0,"ha":688},"¹":{"x_min":0,"x_max":0,"ha":688},"t":{"x_min":0,"x_max":982.0625,"ha":1021,"o":"m 664 1342 q 803 1245 754 1342 q 811 1190 811 1211 q 724 1079 811 1098 q 699 1077 714 1077 l 683 1077 l 678 1079 l 678 1077 q 751 908 751 1004 q 762 881 758 908 l 762 876 q 675 732 762 811 q 784 697 703 720 q 830 618 830 678 l 830 604 q 849 577 841 593 q 968 520 934 559 q 982 491 982 500 l 982 450 q 887 363 982 398 l 878 363 q 813 371 840 363 l 813 368 q 805 349 805 358 q 824 298 817 349 q 919 203 838 278 q 963 100 963 158 q 857 0 963 14 l 794 0 q 724 16 764 0 q 653 0 684 0 l 604 0 q 439 116 517 0 q 404 238 404 185 q 442 320 404 295 q 450 347 442 331 l 398 347 q 282 425 309 347 l 282 428 q 132 352 181 428 q 127 322 127 329 q 130 257 130 262 q 56 138 130 188 q 10 127 29 127 l 0 127 l 0 130 q 113 222 75 130 q 119 252 119 241 q 116 330 116 322 q 179 417 116 373 q 279 447 212 431 q 393 602 279 513 q 463 686 442 654 l 463 689 q 355 740 422 689 q 336 792 336 769 q 303 903 303 840 l 303 944 l 306 957 l 303 957 q 246 941 273 941 l 236 941 q 135 1033 162 941 q 132 1063 132 1057 q 230 1220 132 1162 q 274 1228 260 1228 l 282 1228 q 371 1163 346 1228 q 377 1133 377 1152 l 377 1104 l 374 1085 q 526 1142 448 1142 q 564 1136 540 1142 l 564 1139 q 539 1215 539 1175 q 640 1340 539 1302 q 664 1342 654 1340 m 469 1071 q 425 1087 440 1087 l 420 1087 q 355 982 355 1074 l 355 965 q 393 830 355 906 q 347 784 347 814 q 417 713 347 746 q 504 694 466 694 l 488 710 l 493 710 q 585 672 551 672 q 670 756 636 672 l 675 759 l 675 756 l 670 743 l 672 743 q 754 881 754 822 q 680 933 737 933 q 656 927 676 933 l 656 933 q 561 1123 656 1056 q 537 1128 543 1128 l 529 1128 q 469 1071 493 1128 m 518 1047 l 529 1047 q 572 935 566 1047 l 569 911 q 594 900 594 906 l 575 903 q 461 846 514 903 l 461 851 q 477 876 465 863 q 431 979 431 905 q 447 1014 436 1014 l 458 1014 q 507 895 478 1014 q 531 908 531 905 q 501 1006 501 955 q 518 1047 504 1042 m 510 1006 q 542 908 510 952 q 534 935 534 923 l 534 938 q 542 954 536 954 q 561 941 561 954 l 564 941 l 564 949 q 523 1041 554 1041 q 510 1006 513 1041 m 439 976 q 485 878 439 910 l 488 884 q 472 916 472 893 q 482 933 472 933 q 491 930 488 930 l 491 933 q 453 1009 469 1003 q 439 976 442 1009 m 561 892 q 604 851 604 892 q 575 816 594 825 q 523 797 543 797 l 501 797 q 469 824 469 800 l 469 832 q 561 892 469 874 m 667 873 l 678 873 q 710 857 701 873 l 708 857 q 680 865 702 857 q 656 797 673 829 q 615 697 641 697 q 577 686 612 689 q 472 746 540 686 q 409 773 442 756 q 390 754 409 769 l 390 765 q 436 794 408 794 q 417 781 436 788 l 417 778 q 507 751 466 751 l 534 751 q 672 859 634 751 l 672 865 l 670 865 q 642 862 666 865 q 667 873 646 873 m 583 713 l 583 716 l 588 735 l 583 735 q 542 710 557 735 l 542 708 q 580 694 542 700 q 640 756 629 694 l 640 759 q 583 713 613 754 m 659 678 l 659 661 l 661 661 l 661 678 l 659 678 m 735 645 l 735 637 l 737 637 l 737 645 l 735 645 m 661 640 q 634 539 661 605 l 672 539 q 699 575 691 539 q 735 607 704 581 l 735 618 q 661 640 692 636 m 523 632 l 520 626 l 523 626 l 526 632 l 523 632 m 507 604 l 496 588 l 501 591 l 515 591 q 580 577 563 577 q 626 545 610 561 q 642 591 642 585 l 640 591 q 602 583 622 583 l 580 583 q 507 604 545 583 m 699 556 q 811 580 736 580 q 838 577 834 577 q 792 604 838 595 l 773 604 q 699 556 728 604 m 477 564 l 499 564 q 501 569 499 569 q 537 529 530 569 q 520 493 537 514 l 529 469 l 531 469 q 564 518 564 489 l 564 534 q 512 585 554 585 q 477 564 491 585 m 556 575 l 556 572 q 572 531 572 550 l 572 520 q 539 466 572 486 q 569 396 539 436 l 569 393 q 539 434 556 393 l 539 436 l 537 436 l 537 434 q 561 371 552 371 l 585 358 q 594 406 585 377 l 596 406 l 596 404 q 594 349 594 367 q 632 311 619 311 q 651 298 632 308 l 653 298 q 667 385 667 331 q 572 572 667 529 q 556 575 570 572 m 683 510 l 683 499 q 762 458 683 470 q 797 444 779 444 q 824 463 815 444 l 824 477 q 756 537 824 529 q 773 542 756 542 l 767 550 l 770 550 q 813 523 775 549 q 835 534 825 534 q 819 515 819 516 q 832 477 832 491 l 832 469 q 786 431 832 441 q 813 401 792 401 q 903 488 849 401 q 908 518 908 499 q 892 548 908 529 l 892 550 l 895 550 q 916 510 916 535 l 916 507 q 835 396 916 465 q 811 393 825 393 q 841 374 821 374 q 935 444 881 374 q 949 491 949 466 q 862 564 949 551 q 794 572 840 569 q 686 529 716 572 l 683 510 m 290 444 q 387 358 290 376 q 417 355 398 355 l 423 355 q 401 412 401 377 l 401 425 q 420 474 402 446 l 393 477 q 344 461 389 477 l 344 466 q 377 477 371 477 l 377 480 l 371 480 l 355 477 q 374 485 355 483 q 349 531 349 509 q 358 558 349 543 l 355 558 q 290 444 290 498 m 466 556 l 461 548 l 463 548 l 469 556 l 466 556 m 653 529 l 640 529 l 640 526 q 672 412 672 472 l 678 412 l 702 466 l 699 466 q 675 501 675 476 l 675 507 q 680 531 675 514 l 678 531 q 653 529 663 529 m 944 529 q 957 488 952 516 q 868 374 957 424 l 868 371 l 873 371 q 963 425 916 371 q 976 463 976 446 l 976 474 q 946 529 976 505 l 944 529 m 477 512 l 477 510 q 501 507 499 510 l 504 507 l 504 510 l 493 512 l 477 512 m 444 496 q 474 507 464 507 l 474 510 l 469 510 q 444 496 444 501 m 439 496 l 436 491 l 439 491 l 442 496 l 439 496 m 379 482 l 379 480 l 385 480 l 385 482 l 379 482 m 531 461 l 531 455 l 534 439 l 537 439 l 537 447 l 534 461 l 531 461 m 444 434 l 444 423 l 447 423 l 447 434 l 444 434 m 675 385 l 675 379 q 710 409 710 394 q 718 423 713 409 l 694 423 q 675 385 687 423 m 724 420 q 713 396 724 410 l 713 393 q 732 420 717 394 l 724 420 m 447 415 l 447 406 l 450 406 l 450 415 l 447 415 m 675 366 l 675 352 q 672 328 675 343 q 767 268 706 268 q 813 309 813 268 l 813 311 q 797 344 813 333 q 786 320 790 320 l 789 314 q 773 306 786 306 l 765 306 q 702 363 702 322 l 710 382 l 705 382 q 675 366 675 374 m 420 374 q 447 355 428 355 l 461 355 q 455 379 455 368 l 453 379 q 420 374 420 379 m 561 360 q 577 320 577 326 l 580 320 l 580 325 l 583 325 l 583 317 q 542 295 583 303 l 529 295 q 461 347 495 295 q 453 328 453 337 l 453 322 q 537 252 453 271 l 548 252 q 610 293 610 257 l 610 298 q 561 360 610 335 m 667 311 l 661 293 l 781 233 q 838 222 838 233 q 786 227 809 227 q 830 146 830 187 l 830 135 q 746 27 830 68 l 743 27 l 743 21 q 830 8 788 8 q 946 73 919 8 q 952 108 952 100 q 843 257 952 174 q 822 290 822 285 q 773 260 799 260 l 762 260 q 667 311 712 260 m 415 246 l 415 244 q 534 35 415 124 q 632 10 585 10 q 781 65 707 10 q 816 138 816 101 l 816 146 q 659 282 816 221 q 618 306 657 284 l 621 293 q 558 244 607 244 l 537 244 q 444 309 475 244 q 415 246 415 292 m 675 249 l 686 249 l 686 246 q 518 157 614 239 l 518 160 q 618 236 567 215 q 675 249 654 249 "},"¬":{"x_min":0,"x_max":0,"ha":688},"ù":{"x_min":0,"x_max":0,"ha":718}}}
